<?xml version="1.0" encoding="UTF-8" standalone="no"?>
<svg
   xmlns:dc="http://purl.org/dc/elements/1.1/"
   xmlns:cc="http://creativecommons.org/ns#"
   xmlns:rdf="http://www.w3.org/1999/02/22-rdf-syntax-ns#"
   xmlns:svg="http://www.w3.org/2000/svg"
   xmlns="http://www.w3.org/2000/svg"
   width="451.603mm"
   height="308.65601mm"
   viewBox="0 0 451.603 308.65601"
   version="1.1"
   id="svg2103">
  <defs
     id="defs2097" />
  <metadata
     id="metadata2100">
    <rdf:RDF>
      <cc:Work
         rdf:about="">
        <dc:format>image/svg+xml</dc:format>
        <dc:type
           rdf:resource="http://purl.org/dc/dcmitype/StillImage" />
        <dc:title></dc:title>
      </cc:Work>
    </rdf:RDF>
  </metadata>
  <g
     id="layer1">
    <g
       id="g2680"
       transform="matrix(1,0,0,1.0000013,-92.476494,115.76164)">
      <path
         style="fill:#fde2a7;stroke-width:0.352778"
         d="M 177.49761,178.61605 C 135.29657,170.79243 98.90313,164.04633 96.623304,163.62471 l -4.145139,-0.76657 V 23.548329 -115.76149 H 318.25595 544.03373 V 31.748965 179.25942 l -1.85208,-0.18444 c -1.01864,-0.10145 -14.55208,-1.03063 -30.0743,-2.06485 l -28.22223,-1.88039 -114.12361,8.90868 c -62.76799,4.89977 -114.44112,8.88477 -114.82917,8.85554 -0.38806,-0.0292 -35.23368,-6.45429 -77.43473,-14.27791 z"
         id="path2694" />
      <path
         style="fill:#eccb82;stroke-width:0.352778"
         d="M 173.52886,177.81468 92.478165,162.79058 V 23.514547 -115.76149 H 318.25595 544.03373 V 31.679087 179.11966 l -2.38125,-0.18928 c -1.30968,-0.1041 -14.68437,-1.02396 -29.72152,-2.04413 l -27.34028,-1.85486 -114.4764,8.938 c -62.96201,4.91589 -114.71451,8.92256 -115.00555,8.90369 -0.29105,-0.0189 -37.00198,-6.79514 -81.57987,-15.0584 z M 233.60269,35.400959 c 1.39094,-0.292593 3.6635,-0.983837 5.05014,-1.536096 2.19706,-0.875023 4.12279,-1.437612 6.75451,-1.97328 0.38805,-0.07899 4.65114,-1.109419 9.47352,-2.289849 4.82238,-1.180433 10.7755,-2.550177 13.22916,-3.043879 5.36393,-1.079274 6.81025,-1.706072 11.93484,-5.172269 4.4582,-3.015466 4.74933,-3.132278 10.34164,-4.149481 6.37223,-1.159062 8.84661,-2.163402 16.88983,-6.855534 4.56311,-2.6619546 6.77015,-3.3484566 12.03795,-3.7444214 2.42535,-0.1823049 5.04473,-0.4315918 5.82084,-0.5539739 2.00863,-0.3167345 6.66992,-2.0091152 11.05243,-4.0128152 2.07033,-0.9465627 4.21376,-1.83120227 4.76319,-1.96586107 l 0.99896,-0.24483834 -1.43993,-1.46718149 c -1.22252,-1.2456547 -1.43993,-1.6905321 -1.43993,-2.9464139 0,-1.3258305 -0.10061,-1.5017713 -0.97014,-1.6965787 -0.53358,-0.1195423 -1.52576,-0.3598051 -2.20486,-0.5339186 -2.79704,-0.7171407 -5.19026,-0.388493 -15.875,2.1800254 -4.95598,1.1913728 -8.15333,2.3229321 -21.51945,7.6158155 -8.63423,3.4190972 -17.18688,6.9072613 -19.00589,7.7514827 -2.26194,1.049789 -3.77988,1.534943 -4.80254,1.534943 -2.31579,0 -5.11868,0.629113 -7.09478,1.592436 -0.98948,0.482353 -2.11161,0.877009 -2.49361,0.877009 -1.15613,0 -4.28359,1.039403 -6.98349,2.320935 -1.40315,0.66602 -3.48816,1.383718 -4.63335,1.594887 -2.88194,0.531414 -3.96185,1.039104 -6.73296,3.165306 -2.76026,2.117876 -3.7806,2.599827 -7.08091,3.34464 -3.28973,0.742424 -4.83286,1.389725 -7.49469,3.143835 -1.74847,1.152214 -2.72976,1.550917 -4.13184,1.678792 -1.48658,0.135579 -2.1076,0.410552 -3.24215,1.435551 -0.87022,0.786194 -1.91393,1.351139 -2.74733,1.487089 -3.44856,0.562557 -5.01633,0.948806 -6.81201,1.678266 l -1.94028,0.788197 4.05694,0.194215 c 8.49657,0.406753 13.6692,0.344 16.24119,-0.197034 z"
         id="path2692" />
      <path
         style="fill:#9dd6ae;stroke-width:0.352778"
         d="M 173.79345,177.79968 92.654554,162.75147 92.565917,23.494993 92.47728,-115.76149 h 225.77823 225.77822 v 147.3784 147.3784 l -29.72152,-2.0234 -29.72153,-2.02341 -113.06528,8.80117 c -62.18591,4.84065 -113.85904,8.86801 -114.82917,8.9497 -1.30061,0.10952 -23.07488,-3.80386 -82.90278,-14.89969 z M 275.80376,35.957166 c 1.90902,-0.389036 4.42329,-1.038845 5.58726,-1.444021 2.29302,-0.798199 11.11837,-2.1616 24.06217,-3.717286 l 8.18752,-0.984039 2.09232,-1.824771 c 1.73693,-1.514838 2.45653,-1.896427 4.23668,-2.246651 1.17941,-0.232036 2.23044,-0.561146 2.33564,-0.731361 0.1052,-0.170215 1.44771,-0.727914 2.98336,-1.239333 1.53564,-0.511418 2.98218,-1.158903 3.21452,-1.43886 0.23235,-0.279954 0.88064,-0.509009 1.44065,-0.509009 0.74072,0 1.58215,-0.51846 3.08763,-1.902485 1.13818,-1.046367 2.4068,-2.009563 2.81915,-2.14044 0.53368,-0.169379 0.74974,-0.528017 0.74974,-1.244483 0,-0.827843 0.18484,-1.04713 1.04117,-1.235213 0.57265,-0.125776 2.0014,-0.849302 3.175,-1.607837 l 2.13383,-1.379153 -0.008,-2.036166 c -0.005,-1.1198934 -0.15406,-3.9411665 -0.33215,-6.2694996 l -0.32382,-4.23333303 -1.61098,-1.41111097 c -1.43825,-1.2598082 -1.61067,-1.5711487 -1.60811,-2.903696 0.002,-1.3413739 -0.0954,-1.5146019 -0.96727,-1.7099314 -0.53358,-0.1195423 -1.52576,-0.3598051 -2.20486,-0.5339186 -2.81057,-0.7206085 -6.08685,-0.2441116 -17.28995,2.5146386 -4.36967,1.0760251 -8.52678,2.5524917 -20.6375,7.3297515 -8.34109,3.2902629 -16.52646,6.6121381 -18.18971,7.3819375 -2.16582,1.002401 -3.72462,1.468667 -5.4923,1.642848 -2.92589,0.288311 -5.86372,1.019817 -6.94741,1.729877 -0.42865,0.280868 -1.48145,0.629281 -2.33955,0.774256 -1.98633,0.33559 -4.68598,1.2645 -7.50109,2.58102 -1.21672,0.569013 -3.24409,1.229438 -4.50527,1.467605 -2.77902,0.524806 -3.05464,0.659659 -6.17515,3.021206 -2.47702,1.87457 -5.51766,3.332639 -6.97888,3.346567 -1.52272,0.0145 -5.53601,1.696875 -7.76506,3.255094 -1.85668,1.297908 -2.61291,1.609605 -4.23066,1.743763 -1.62189,0.1345 -2.1453,0.351165 -2.963,1.226516 -1.11005,1.188304 -2.51872,1.719139 -5.43565,2.048337 -1.08612,0.122576 -2.91175,0.668246 -4.05694,1.2126 l -2.08216,0.989732 6.28064,0.269984 c 9.36412,0.402534 13.60694,0.145775 16.8263,-1.018261 1.45521,-0.526165 4.04999,-1.369469 5.76617,-1.874005 l 3.12034,-0.917342 1.81855,0.79097 c 4.40409,1.915537 9.06192,3.214402 13.98939,3.901031 3.38469,0.471646 10.72375,0.134334 14.69781,-0.675528 z"
         id="path2690" />
      <path
         style="fill:#a9a355;stroke-width:0.352778"
         d="m 173.79345,177.79969 -81.138896,-15.04821 -0.08903,-73.07124 -0.08903,-73.071236 1.147362,-0.19001 c 0.63105,-0.104507 30.198614,-2.271035 65.705704,-4.81451 59.64236,-4.2723533 64.98237,-4.7062417 70.12695,-5.6979776 4.28768,-0.8265512 6.39754,-1.0577688 9.17222,-1.0051802 1.98198,0.037567 4.15818,-0.1087014 4.836,-0.3250388 0.67782,-0.2163374 1.86844,-0.3907613 2.64583,-0.387611 1.68805,0.00684 8.53892,-1.2076112 11.99678,-2.1266678 1.35819,-0.3609939 3.18382,-0.7657817 4.05694,-0.8995339 0.87313,-0.1337521 3.09563,-0.63506341 4.93889,-1.11402976 2.65233,-0.6891972 4.41837,-0.89301102 8.46667,-0.97711676 2.8134,-0.0584517 5.97038,-0.28162248 7.01551,-0.49593848 2.43531,-0.4993887 7.28255,-0.5032339 8.21068,-0.00653 0.51876,0.277629 1.36247,0.269427 3.06361,-0.02981 1.29123,-0.2271148 5.04645,-0.5541786 8.34492,-0.7267998 3.29847,-0.1726247 7.0291,-0.4008296 8.29028,-0.5071215 2.80992,-0.2368233 4.00039,-0.7780231 -13.40556,6.0942956 -7.85812,3.1025921 -15.64835,6.271076 -17.3116,7.041077 -2.16634,1.002901 -3.72419,1.468988 -5.4923,1.64321 -2.92589,0.288312 -5.86372,1.019817 -6.94741,1.729878 -0.42865,0.280867 -1.48145,0.629281 -2.33955,0.774255 -1.98633,0.335591 -4.68598,1.2645 -7.50109,2.581021 -1.21672,0.569013 -3.24409,1.229438 -4.50527,1.467605 -2.77902,0.524806 -3.05464,0.659659 -6.17515,3.021206 -2.47702,1.874569 -5.51766,3.332639 -6.97888,3.346566 -1.52272,0.0145 -5.53601,1.696875 -7.76506,3.255095 -1.85668,1.297908 -2.61291,1.609605 -4.23066,1.743763 -1.62189,0.1345 -2.1453,0.351165 -2.963,1.226516 -1.11005,1.188304 -2.51872,1.719139 -5.43565,2.048337 -1.08612,0.122576 -2.91175,0.668246 -4.05694,1.212599 l -2.08216,0.989733 6.28064,0.269984 c 9.36412,0.402533 13.60694,0.145775 16.8263,-1.018261 1.45521,-0.526165 4.04999,-1.369469 5.76617,-1.874005 l 3.12034,-0.917342 1.81855,0.79097 c 1.00021,0.435031 2.9298,1.179121 4.288,1.653526 9.16946,3.202809 21.00808,3.253327 29.98646,0.127956 2.29302,-0.798199 11.11837,-2.1616 24.06217,-3.717287 l 8.18752,-0.984038 2.09232,-1.824771 c 1.73693,-1.514838 2.45653,-1.896427 4.23668,-2.246651 1.17941,-0.232036 2.23044,-0.561146 2.33564,-0.731361 0.1052,-0.170215 1.44771,-0.727915 2.98336,-1.239333 1.53564,-0.511418 2.98218,-1.158903 3.21452,-1.438861 0.23235,-0.279953 0.88064,-0.509008 1.44065,-0.509008 0.74072,0 1.58215,-0.51846 3.08763,-1.902485 1.13818,-1.046367 2.4068,-2.009563 2.81915,-2.14044 0.53368,-0.169351 0.74974,-0.527989 0.74974,-1.244455 0,-0.827843 0.18484,-1.04713 1.04117,-1.235213 0.57265,-0.125776 2.0014,-0.849302 3.175,-1.607837 l 2.13383,-1.379153 -0.008,-2.036166 c -0.005,-1.1198933 -0.15351,-3.9411664 -0.33094,-6.2694995 l -0.32259,-4.23333303 -1.50495,-1.30635717 c -1.06079,-0.9208099 -1.35355,-1.3559366 -0.99197,-1.4743464 0.61341,-0.2008787 18.50089,-1.5391094 24.50187,-1.8330791 3.45552,-0.1692733 152.75592,3.8158805 173.83126,4.63993762 l 5.90902,0.23104473 V 89.512868 178.99531 l -29.72152,-2.0234 -29.72153,-2.02341 -113.06528,8.80117 c -62.18591,4.84065 -113.85904,8.86801 -114.82917,8.9497 -1.30061,0.10952 -23.07488,-3.80386 -82.90278,-14.89968 z"
         id="path2688" />
      <path
         style="fill:#baad39;stroke-width:0.352778"
         d="m 173.08789,177.55251 c -44.23833,-8.21227 -80.473024,-14.94062 -80.521531,-14.95188 -0.04851,-0.0113 -0.08819,-30.97672 -0.08819,-68.812134 V 24.996834 l 1.146528,0.0014 c 0.63059,7.05e-4 8.845903,-0.486068 18.256243,-1.081906 l 17.10973,-1.083338 4.34208,-1.399113 c 19.74141,-6.361123 42.56659,-7.811329 65.15514,-4.139657 4.32424,0.702889 4.98899,0.721219 11.64167,0.321049 l 7.05555,-0.424406 15.16945,-4.183012 c 8.34319,-2.300658 17.39194,-4.7738418 20.10833,-5.4959673 l 4.93889,-1.3129541 5.29167,0.4046466 c 6.94699,0.5312233 10.28495,0.5085362 14.32105,-0.097349 1.82791,-0.2743976 5.78283,-0.5977466 8.78871,-0.7185518 l 5.46524,-0.2196465 -4.58611,1.8945576 c -2.52236,1.0420067 -5.78841,2.4533329 -7.25789,3.1362785 -1.83844,0.854428 -3.44147,1.317565 -5.13951,1.484888 -2.92549,0.288269 -5.86333,1.019806 -6.94697,1.729831 -0.42865,0.280868 -1.48145,0.629282 -2.33955,0.774256 -1.98633,0.33559 -4.68598,1.2645 -7.50109,2.581021 -1.21672,0.569012 -3.24409,1.229437 -4.50527,1.467604 -2.77902,0.524807 -3.05464,0.65966 -6.17515,3.021207 -2.47702,1.874569 -5.51766,3.332638 -6.97888,3.346566 -1.52272,0.0145 -5.53601,1.696875 -7.76506,3.255094 -1.85668,1.297908 -2.61291,1.609605 -4.23066,1.743763 -1.62189,0.1345 -2.1453,0.351166 -2.963,1.226517 -1.11005,1.188303 -2.51872,1.719138 -5.43565,2.048337 -1.08612,0.122576 -2.91175,0.668245 -4.05694,1.212599 l -2.08216,0.989732 6.28064,0.269984 c 9.36412,0.402534 13.60694,0.145775 16.8263,-1.018261 1.45521,-0.526164 4.04999,-1.369469 5.76617,-1.874005 l 3.12034,-0.917342 1.81855,0.79097 c 1.00021,0.435032 2.9298,1.179121 4.288,1.653526 9.16946,3.202809 21.00808,3.253327 29.98646,0.127956 2.29302,-0.798198 11.11837,-2.1616 24.06217,-3.717286 l 8.18752,-0.984038 2.09232,-1.824771 c 1.73693,-1.514839 2.45653,-1.896428 4.23668,-2.246651 1.17941,-0.232036 2.23044,-0.561146 2.33564,-0.731362 0.1052,-0.170215 1.44771,-0.727914 2.98336,-1.239333 1.53564,-0.511418 2.98218,-1.158903 3.21452,-1.43886 0.23235,-0.279954 0.88064,-0.509009 1.44065,-0.509009 0.74072,0 1.58215,-0.51846 3.08763,-1.902484 1.13818,-1.046368 2.4068,-2.009564 2.81915,-2.140441 0.53368,-0.169354 0.74974,-0.527992 0.74974,-1.244458 0,-0.827843 0.18484,-1.04713 1.04117,-1.235213 0.57265,-0.125776 1.9918,-0.843096 3.15367,-1.594047 1.91996,-1.240931 2.12247,-1.490352 2.22202,-2.736758 l 0.10952,-1.3713887 7.23195,3.4502577 c 9.87263,4.710091 17.8703,8.175353 21.87483,9.47801 l 3.34878,1.089349 84.1375,1.661238 84.13751,1.661237 0.089,75.93541 c 0.0846,72.15321 0.0582,75.93581 -0.52916,75.94341 -0.34001,0.004 -13.8738,-0.88241 -30.07512,-1.97068 l -29.45695,-1.97868 -113.10406,8.84985 c -62.20724,4.86742 -114.03912,8.83132 -115.18195,8.80867 -1.14284,-0.0226 -38.27289,-6.76031 -82.51122,-14.97258 z"
         id="path2686" />
      <path
         style="fill:#a68a15;stroke-width:0.352778"
         d="m 173.08789,177.55251 c -44.23833,-8.21227 -80.473024,-14.94062 -80.521531,-14.95188 -0.04851,-0.0113 -0.08819,-25.95187 -0.08819,-57.6458 V 47.329501 l 2.230271,-2.611473 c 3.28342,-3.844628 7.87977,-7.999433 11.22658,-10.148104 16.21165,-10.407952 31.87469,-15.878875 52.86537,-18.465283 5.83546,-0.719028 26.07597,-0.604248 32.27917,0.183049 13.8188,1.753852 26.42228,4.714596 38.75829,9.104891 l 4.13372,1.471164 -1.98361,1.317265 c -1.47813,0.98159 -2.50286,1.376013 -4.0213,1.547805 -1.54819,0.175158 -2.24049,0.447619 -2.88185,1.134188 -1.23136,1.318164 -2.29297,1.768429 -5.24394,2.224133 -1.44975,0.223876 -3.59288,0.836708 -4.7625,1.361846 l -2.12659,0.954796 1.85554,0.226473 c 1.02055,0.124559 4.75118,0.33662 8.29028,0.471244 7.13803,0.271526 9.83085,-0.0103 13.84165,-1.448731 1.35898,-0.487377 3.85306,-1.277998 5.54242,-1.756932 l 3.07155,-0.87079 1.69095,0.851006 c 2.27209,1.14348 6.56501,2.55385 10.09,3.314911 2.17121,0.468778 4.46889,0.62212 9.23983,0.616659 6.74543,-0.0077 9.47894,-0.399468 14.71063,-2.108189 2.60407,-0.850515 14.61173,-2.667984 26.91715,-4.074152 3.4925,-0.399094 7.62,-0.870127 9.17223,-1.046738 17.44227,-1.984569 42.20922,-2.410484 52.79804,-0.907962 14.6691,2.081502 46.91916,13.103739 68.20474,23.310623 5.59781,2.684268 9.3981,4.058948 17.99166,6.508139 10.31844,2.94078 16.98156,4.047804 22.40139,3.721809 25.47645,-1.532372 46.6427,-1.816573 57.67917,-0.774471 3.68653,0.348096 6.90122,0.700299 7.14375,0.782676 0.64837,0.220225 0.64837,116.584837 0,116.596547 -0.24253,0.004 -13.77597,-0.88262 -30.0743,-1.9711 l -29.63334,-1.97907 -113.10406,8.85027 c -62.20724,4.86764 -114.03912,8.83174 -115.18195,8.80909 -1.14284,-0.0226 -38.27289,-6.76031 -82.51122,-14.97258 z"
         id="path2684" />
      <path
         style="fill:#905d12;stroke-width:0.352778"
         d="m 173.26428,177.55236 c -44.33535,-8.22109 -80.650673,-14.953 -80.700718,-14.95982 -0.05005,-0.007 -0.05005,-9.3869 0,-20.84464 l 0.09099,-20.83226 31.749998,-13.06126 31.75001,-13.061254 8.42854,-1.916123 8.42854,-1.916127 6.56452,0.515927 c 19.95602,1.568404 24.26376,1.572052 36.19784,0.03066 12.83265,-1.657449 21.87859,-3.378902 27.24998,-5.185703 1.93261,-0.650078 2.75466,-0.718167 6.70278,-0.555173 5.22383,0.215663 10.02986,1.323255 16.86255,3.886132 3.43807,1.289587 4.98606,1.666879 8.11389,1.977605 7.98842,0.793592 20.97391,1.481035 44.25831,2.343002 7.85812,0.290901 16.46441,0.759802 19.12508,1.042007 27.01019,2.864823 67.39376,13.596417 112.73179,29.957527 13.30067,4.7998 19.82308,7.33317 59.87785,23.25723 l 33.16112,13.18343 0.0987,4.46387 c 0.0543,2.45513 -0.025,4.45992 -0.17639,4.45508 -0.47579,-0.0152 -56.38296,4.31713 -173.25814,13.42605 -62.15594,4.84426 -113.82906,8.79278 -114.82917,8.7745 -1.00011,-0.0183 -38.09276,-6.75957 -82.42811,-14.98066 z"
         id="path2682" />
    </g>
  </g>
</svg>
