<?xml version="1.0" encoding="UTF-8" standalone="no"?>
<svg
   xmlns:dc="http://purl.org/dc/elements/1.1/"
   xmlns:cc="http://creativecommons.org/ns#"
   xmlns:rdf="http://www.w3.org/1999/02/22-rdf-syntax-ns#"
   xmlns:svg="http://www.w3.org/2000/svg"
   xmlns="http://www.w3.org/2000/svg"
   width="338.67999mm"
   height="105.353mm"
   viewBox="0 0 338.67999 105.353"
   version="1.1"
   id="svg8">
  <defs
     id="defs2" />
  <metadata
     id="metadata5">
    <rdf:RDF>
      <cc:Work
         rdf:about="">
        <dc:format>image/svg+xml</dc:format>
        <dc:type
           rdf:resource="http://purl.org/dc/dcmitype/StillImage" />
        <dc:title></dc:title>
      </cc:Work>
    </rdf:RDF>
  </metadata>
  <g
     id="layer1">
    <g
       id="g878"
       transform="matrix(1,0,0,1.0000025,86.941412,-54.442219)">
      <g
         id="g1023"
         transform="translate(-109.26074,-34.637375)">
        <path
           style="fill:#ffffff;fill-opacity:1;stroke:none;stroke-width:0.264583px;stroke-linecap:butt;stroke-linejoin:miter;stroke-opacity:1"
           d="M 32.318482,90.588114 346.10882,92.812598 345.4336,118.17944 32.358807,114.38759 Z"
           id="path1004" />
        <g
           id="g972"
           transform="translate(7.6240513,87.330915)">
          <g
             id="g970"
             transform="translate(81.312869,-51.367938)">
            <path
               style="fill:#9dd6ae;stroke-width:0.264583"
               d="M -66.603889,149.29252 V 53.116481 H 102.72944 272.06277 v 96.176039 -4.36563 H 102.72944 -66.603889 Z m 81.09479,-76.459528 c 1.910292,-0.786921 3.465391,-0.826301 5.423958,-0.137345 1.328317,0.467257 2.248707,0.512644 10.555169,0.520528 l 9.099962,0.0086 2.148867,-2.062996 c 2.821265,-2.708529 4.114053,-3.341172 6.461778,-3.162157 2.76892,0.211129 6.285111,1.596842 9.99132,3.937523 l 1.61988,1.023046 h 3.08026 c 1.694146,1.3e-5 3.080263,-0.104471 3.080263,-0.232174 0,-0.486619 -0.77902,-0.834771 -2.801672,-1.252093 C 61.99947,71.238425 58.676317,70.209315 55.7659,69.189037 47.371341,66.246233 45.513389,65.743024 42.933609,65.713528 c -2.05255,-0.02347 -2.437389,0.05932 -4.406561,0.947944 -4.208193,1.899018 -5.110507,1.670058 -7.34667,-1.864188 -0.796237,-1.258453 -1.713227,-2.451076 -2.037757,-2.650275 -0.324527,-0.199197 -1.359128,-0.457557 -2.299108,-0.57413 -1.301022,-0.161351 -1.96892,-0.40943 -2.7975,-1.039093 -4.5754,-3.476977 -7.66504,-4.17079 -11.22608,-2.520937 -1.810967,0.839034 -3.7529902,2.187742 -3.7529902,2.606397 0,0.183478 -0.1696164,0.564711 -0.3769254,0.847186 -0.3481599,0.474398 -0.7294694,0.51359 -4.9968651,0.51359 -5.2413243,0 -5.2630757,0.0076 -6.4009825,2.251483 -0.3327929,0.656232 -0.845349,1.48967 -1.13901,1.852083 l -0.5339318,0.658934 h -6.571456 -6.571454 l -1.984375,0.973423 c -1.091406,0.535382 -2.639218,1.157119 -3.439583,1.381633 -3.326347,0.933096 -12.758888,2.267919 -16.060414,2.272753 -2.969181,0.0043 -5.211601,0.776872 -4.456126,1.535165 0.324008,0.325215 9.89643,0.476708 33.4811232,0.529865 l 22.8864578,0.05159 z M 183.55965,69.922705 c 9.16781,-0.07657 21.5098,-0.216627 27.42663,-0.311245 11.57631,-0.185121 11.81282,-0.22171 9.29899,-1.438643 -1.03923,-0.503076 -1.46992,-0.557178 -3.30756,-0.41547 -2.58879,0.199631 -3.21085,-0.03048 -5.40755,-2.00031 -2.07526,-1.8609 -2.70436,-2.024986 -4.39698,-1.146826 -1.93728,1.005094 -2.65086,0.906491 -4.29154,-0.593014 -3.11936,-2.850901 -6.33085,-2.553538 -10.81576,1.001462 -2.69337,2.134922 -3.01938,2.199462 -5.3245,1.054102 -1.11758,-0.555305 -1.96829,-0.785447 -2.90336,-0.785447 -1.27228,0 -1.38008,0.0604 -2.83322,1.5875 -1.73824,1.826712 -1.93866,1.86735 -4.5889,0.930468 -2.39473,-0.846553 -4.47634,-0.847696 -8.06979,-0.0044 -2.67865,0.628592 -3.11842,0.652108 -12.28108,0.656699 -5.22662,0.0026 -9.43563,0.07208 -9.35335,0.154355 0.27988,0.279887 16.46635,1.647566 18.32713,1.548559 1.01865,-0.0542 9.35303,-0.161195 18.52084,-0.237763 z"
               id="path958" />
            <path
               style="fill:#c4ba7d;stroke-width:0.264583"
               d="m -66.603889,147.07201 v -51.8299 l 4.694206,-0.195561 c 2.581813,-0.107561 5.915165,-0.116626 7.407449,-0.02016 3.078688,0.199041 4.711937,-0.02986 12.150616,-1.7029 3.612439,-0.81248 5.841696,-1.142585 9.729928,-1.440789 2.774111,-0.212759 7.127436,-0.739256 9.67405,-1.169995 2.546615,-0.430739 6.11849,-0.911154 7.9375,-1.067586 1.81901,-0.156435 3.871764,-0.337391 4.561676,-0.402124 1.8279637,-0.171514 5.6436522,-1.540955 9.75480881,-3.50098 L 2.9072075,84.025277 5.0785661,81.287856 c 3.758684,-4.738558 7.3238519,-7.763592 10.2952469,-8.735486 3.39793,-1.111409 7.360404,0.722516 10.383493,4.805717 0.906772,1.224751 1.16921,1.400064 2.727148,1.821778 3.594203,0.972907 5.036164,0.22892 10.900412,-5.624113 5.252607,-5.242563 6.100104,-5.773947 8.840409,-5.542976 4.03637,0.340212 8.475565,2.657941 16.582668,8.657905 2.738456,2.026695 5.705194,4.053493 6.592752,4.503994 l 1.613744,0.819092 7.912187,-0.184404 c 5.522762,-0.128715 8.231799,-0.09563 8.970524,0.109545 0.61637,0.171196 2.519693,1.393574 4.557746,2.927141 6.907024,5.197303 8.588454,5.455968 18.725584,2.880646 4.0344,-1.02493 5.49707,-0.955077 14.55209,0.694978 5.94282,1.082937 7.01821,1.205447 10.58899,1.20632 l 3.97442,0.0011 1.76017,-1.283232 c 3.0007,-2.187625 3.28892,-2.275467 7.48892,-2.282468 l 3.70416,-0.0062 1.32292,-0.916178 c 0.7276,-0.503899 3.28745,-2.897327 5.68854,-5.318731 2.40109,-2.421403 4.93365,-4.730556 5.62789,-5.131453 2.79151,-1.611974 6.75166,-0.501547 11.81318,3.312419 2.33614,1.760334 5.57853,4.643157 11.00164,9.781585 4.45426,4.220438 8.58872,7.755258 11.10742,9.496425 1.66015,1.147662 2.82199,1.66084 6.68742,2.95381 3.81246,1.27525 4.99922,1.56484 6.41289,1.56484 1.99607,0 6.2306,-0.97698 11.99108,-2.766561 7.33634,-2.279131 8.9627,-3.011421 15.16663,-6.828964 11.56197,-7.114606 13.80355,-8.121655 18.093,-8.128426 2.65361,-0.0042 5.26423,0.743447 8.92437,2.555788 l 2.97656,1.473861 V 143.5038 156.56857 H 102.72944 -66.603889 Z M 121.45185,74.481585 c -0.2358,-0.181901 -0.46691,-0.628386 -0.51359,-0.992188 -0.11627,-0.906301 -2.13341,-2.212459 -4.63457,-3.001036 -1.25619,-0.39606 -1.82928,-0.686158 -1.55978,-0.789573 0.99781,-0.382897 4.58987,0.734 7.25814,2.256806 1.40587,0.802347 1.4358,0.806765 5.75089,0.848876 4.73402,0.0462 6.62102,0.530368 2.27899,0.584745 -2.0102,0.02516 -3.00801,0.182319 -4.62004,0.727604 -2.26969,0.767747 -3.31307,0.863854 -3.96004,0.364766 z m -28.745064,-3.23985 c -1.074073,-0.364514 -2.443292,-0.6703 -3.042708,-0.679526 -1.000085,-0.0154 -1.035367,-0.03877 -0.428387,-0.283925 0.363802,-0.146936 2.03721,-0.232984 3.718685,-0.191217 2.666547,0.06623 3.173708,0.0081 3.968749,-0.454909 2.465425,-1.435801 6.335485,-2.496161 6.335485,-1.735865 0,0.165791 -0.13129,0.301437 -0.29175,0.301437 -0.71549,0 -4.735336,2.11128 -4.735336,2.487071 0,0.553384 -0.72223,0.894209 -2.269339,1.070916 -0.986126,0.112634 -1.776923,-0.01222 -3.255399,-0.513982 z m 21.242304,-7.57052 c -0.70272,-0.777647 -2.74771,-1.770155 -4.54492,-2.205813 -1.47946,-0.358634 -1.49028,-0.367765 -0.45702,-0.385468 1.23781,-0.02122 4.10522,0.614457 5.0832,1.126873 0.57631,0.301959 0.79842,0.297797 1.44981,-0.02716 1.00496,-0.50134 4.83318,-0.77765 5.08687,-0.36716 0.11293,0.182716 -0.009,0.299829 -0.31145,0.299829 -0.98801,0 -3.23067,0.821208 -3.99189,1.461733 -0.95279,0.801716 -1.65142,0.831045 -2.3146,0.09717 z"
               id="path960" />
            <path
               style="fill:#c0b562;stroke-width:0.264583"
               d="m -66.538196,143.29486 0.0666,-28.09036 10.186458,-4.34351 c 5.602552,-2.38892 11.019895,-4.62183 12.038541,-4.96201 2.302028,-0.76876 8.999395,-2.24137 14.419792,-3.17061 2.451163,-0.42021 5.378365,-1.13496 7.276041,-1.77664 6.846215,-2.314955 24.8035732,-9.768931 26.8945568,-11.163741 0.676484,-0.451257 1.8935382,-1.33827 2.7045655,-1.971137 2.2590759,-1.762827 2.6492861,-1.804652 8.5982677,-0.921626 1.508773,0.223954 3.602,0.36382 4.651613,0.310816 1.782315,-0.09 2.075794,-0.197649 4.442296,-1.629436 2.880389,-1.742699 4.08487,-2.156621 5.579943,-1.917549 0.575921,0.09209 4.854813,1.421633 9.508646,2.95453 4.844854,1.595819 9.437079,2.945604 10.743938,3.157948 1.255331,0.203973 4.842266,1.092459 7.970964,1.974416 7.570655,2.134105 9.182965,2.399009 15.610417,2.564802 5.292907,0.136528 5.494276,0.122089 8.334374,-0.597532 2.601913,-0.65927 3.429265,-0.743194 7.805209,-0.791729 4.852974,-0.05382 4.937738,-0.06486 9.921874,-1.292071 10.32094,-2.541247 9.78825,-2.519937 11.24045,-0.449689 0.59829,0.852914 1.37379,1.681062 1.72334,1.840328 0.34955,0.159266 2.57632,0.766056 4.94838,1.348423 4.36575,1.07184 6.94477,1.878726 9.32842,2.918547 0.98705,0.43058 1.57603,0.528423 2.38125,0.395573 2.91149,-0.480359 4.60145,-1.448742 9.38652,-5.37868 4.38382,-3.600392 7.00802,-5.493692 8.12586,-5.862611 0.67769,-0.223658 1.88862,-0.271489 3.91119,-0.154493 4.16728,0.241062 4.71859,-0.04781 9.63685,-5.04956 6.54149,-6.652527 7.5716,-7.366171 10.31479,-7.145975 1.31453,0.105519 2.2551,0.410464 4.11494,1.334122 3.8205,1.897375 6.15423,3.777419 14.97201,12.061404 9.54697,8.969034 11.87305,10.654885 17.21991,12.480314 4.43087,1.512706 11.28305,3.538136 12.81692,3.788546 0.97346,0.15891 1.01793,0.14104 0.5547,-0.22281 -0.43902,-0.34481 -0.45016,-0.41609 -0.0868,-0.55552 0.22923,-0.088 0.6786,-0.0198 0.99856,0.15141 0.31999,0.17125 0.50784,0.19174 0.41752,0.0455 -0.10481,-0.16953 0.22121,-0.2141 0.90003,-0.12305 1.38782,0.18615 2.10979,-0.40214 1.96765,-1.6033 l -0.0992,-0.83875 0.68604,0.78383 c 0.65666,0.75028 0.67743,0.75594 0.48519,0.1323 l -0.20082,-0.65155 0.75245,0.66146 c 0.41386,0.3638 0.60145,0.4637 0.4169,0.22199 -0.26614,-0.34853 -0.2677,-0.4814 -0.008,-0.64215 0.18343,-0.11338 0.37372,-0.0655 0.43177,0.10873 0.0571,0.17129 0.27623,0.31143 0.48694,0.31143 0.21072,0 0.45138,0.17784 0.53478,0.39519 0.12776,0.33294 0.27471,0.30758 0.93276,-0.161 0.76115,-0.54198 0.76891,-0.57 0.30308,-1.09627 -0.47038,-0.53139 -0.46601,-0.53714 0.27173,-0.35756 0.49239,0.11987 0.69138,0.088 0.5797,-0.0927 -0.0935,-0.15135 -0.3941,-0.27519 -0.66797,-0.27519 -0.27387,0 -0.57057,-0.117509 -0.65931,-0.261133 -0.17727,-0.286816 2.53986,-0.18061 3.02331,0.118173 0.35883,0.22178 0.811,-0.05136 0.811,-0.489897 0,-0.460208 0.98393,-0.354041 1.3902,0.150003 0.39526,0.490376 1.25564,0.827914 1.25564,0.492599 0,-0.406739 1.37546,-0.114652 1.63377,0.346945 0.19508,0.34855 0.12137,0.44254 -0.36385,0.46414 -1.34276,0.0598 1.32122,0.50785 3.57989,0.60213 1.80517,0.0754 2.36797,0.0149 2.4757,-0.26584 0.1741,-0.45371 1.91416,-0.47081 2.46407,-0.0242 0.42643,0.34632 0.58846,1.51294 0.21013,1.51294 -0.12581,0 -0.10369,0.23369 0.0492,0.51932 0.15285,0.28562 0.44264,0.4561 0.64399,0.37883 0.20135,-0.0773 0.44469,-0.0133 0.54076,0.14215 0.0961,0.15544 0.43553,0.27866 0.75435,0.27382 l 0.5797,-0.009 -0.59531,-0.49663 c -0.67974,-0.56705 -0.75128,-0.80867 -0.23945,-0.80867 0.19574,0 0.57137,-0.23812 0.83476,-0.52916 0.63969,-0.70684 1.04386,-0.66691 1.70059,0.16797 0.38848,0.49387 0.54837,0.57373 0.54837,0.27389 0,-0.23278 -0.23812,-0.55069 -0.52917,-0.70645 -0.60118,-0.32174 -0.7158,-1.05833 -0.16467,-1.05833 0.20045,0 0.51062,0.17609 0.68924,0.39132 0.24111,0.29054 0.45386,0.32221 0.82613,0.12298 0.39092,-0.20921 0.50139,-0.17884 0.50139,0.13785 0,0.2234 0.11533,0.40618 0.25627,0.40618 0.14097,0 0.18595,-0.1833 0.1,-0.40734 -0.12552,-0.32714 0.0454,-0.3995 0.86821,-0.36753 1.24132,0.0482 2.47972,0.47327 2.47972,0.85107 0,0.15212 0.0784,0.19824 0.1741,0.10249 0.26958,-0.26959 0.88424,0.35799 0.88424,0.90284 0,0.26816 0.36639,0.90488 0.81423,1.41493 0.80348,0.9151 0.85786,1.58968 0.10485,1.30072 -0.21278,-0.0817 -0.32694,-0.24545 -0.25368,-0.36399 0.0733,-0.11854 -0.0597,-0.40842 -0.29544,-0.64417 -0.39515,-0.39515 -0.45672,-0.39164 -0.78777,0.0448 -0.47003,0.61969 -0.47632,1.01844 -0.01,0.6314 0.28223,-0.23422 0.40143,-0.21136 0.52086,0.0999 0.0852,0.22199 0.33724,0.40362 0.56007,0.40362 0.53626,0 0.51924,0.42878 -0.0254,0.63775 -0.2522,0.0968 -0.5633,-0.0164 -0.75118,-0.2734 -0.29509,-0.40354 -0.33589,-0.39903 -0.5107,0.0565 -0.11795,0.3074 -0.0646,0.53691 0.14087,0.60538 1.10765,0.36922 2.02662,2.35307 1.29849,2.80309 -0.13917,0.086 -0.18597,0.33116 -0.10398,0.54478 0.082,0.21362 0.0272,0.3884 -0.12181,0.3884 -0.14896,0 -0.33089,-0.14882 -0.40429,-0.33073 -0.10263,-0.25435 -0.13827,-0.25075 -0.15436,0.0156 -0.0116,0.19241 -0.15665,0.26244 -0.32633,0.15756 -0.17484,-0.10806 -0.23416,-0.0734 -0.13872,0.081 0.22487,0.36385 2.05986,0.64384 2.41183,0.36801 0.1547,-0.12125 0.57896,-0.28478 0.94277,-0.3634 0.3638,-0.0786 1.37583,-0.44895 2.24895,-0.82297 2.29444,-0.98288 4.71752,-0.924 8.23333,0.20007 0.45194,0.14449 0.62389,0.0259 0.88837,-0.61256 1.10633,-2.67094 1.06476,-53.891417 1.06476,30.37915 l 1.6e-4,15.37824 H 102.72899 -66.604795 Z M 255.92319,109.20815 c 0,-0.36547 -0.1764,-0.52917 -0.57018,-0.52917 -0.5534,0 -0.5561,0.0156 -0.0913,0.52917 0.26339,0.29104 0.51996,0.52916 0.57018,0.52916 0.0502,0 0.0913,-0.23812 0.0913,-0.52916 z m -15.61042,-5.95313 c 0,-0.21828 0.18563,-0.39687 0.41249,-0.39687 0.22688,0 0.3389,-0.11907 0.24897,-0.26459 -0.33253,-0.53803 -1.0577,-0.27543 -1.09649,0.39707 -0.0209,0.3637 0.0683,0.66127 0.19844,0.66127 0.13012,0 0.23659,-0.1786 0.23659,-0.39688 z M 121.45185,74.481585 c -0.2358,-0.181901 -0.46691,-0.628386 -0.51359,-0.992188 -0.11627,-0.906301 -2.13341,-2.212459 -4.63457,-3.001036 -1.25619,-0.39606 -1.82928,-0.686158 -1.55978,-0.789573 0.99781,-0.382897 4.58987,0.734 7.25814,2.256806 1.40587,0.802347 1.4358,0.806765 5.75089,0.848876 4.73402,0.0462 6.62102,0.530368 2.27899,0.584745 -2.0102,0.02516 -3.00801,0.182319 -4.62004,0.727604 -2.26969,0.767747 -3.31307,0.863854 -3.96004,0.364766 z m -28.745064,-3.23985 c -1.074073,-0.364514 -2.443292,-0.6703 -3.042708,-0.679526 -1.000085,-0.0154 -1.035367,-0.03877 -0.428387,-0.283925 0.363802,-0.146936 2.03721,-0.232984 3.718685,-0.191217 2.666547,0.06623 3.173708,0.0081 3.968749,-0.454909 2.465425,-1.435801 6.335485,-2.496161 6.335485,-1.735865 0,0.165791 -0.13129,0.301437 -0.29175,0.301437 -0.71549,0 -4.735336,2.11128 -4.735336,2.487071 0,0.553384 -0.72223,0.894209 -2.269339,1.070916 -0.986126,0.112634 -1.776923,-0.01222 -3.255399,-0.513982 z m 21.242304,-7.57052 c -0.70272,-0.777647 -2.74771,-1.770155 -4.54492,-2.205813 -1.47946,-0.358634 -1.49028,-0.367765 -0.45702,-0.385468 1.23781,-0.02122 4.10522,0.614457 5.0832,1.126873 0.57631,0.301959 0.79842,0.297797 1.44981,-0.02716 1.00496,-0.50134 4.83318,-0.77765 5.08687,-0.36716 0.11293,0.182716 -0.009,0.299829 -0.31145,0.299829 -0.98801,0 -3.23067,0.821208 -3.99189,1.461733 -0.95279,0.801716 -1.65142,0.831045 -2.3146,0.09717 z"
               id="path962" />
            <path
               style="fill:#a9a256;stroke-width:0.264583"
               d="m -66.603889,141.26314 v -25.88877 l 10.120312,-4.32409 c 5.566172,-2.37824 11.072813,-4.64532 12.236979,-5.03794 2.380981,-0.80299 10.415341,-2.56409 15.610417,-3.42174 1.89177,-0.31231 4.332552,-0.86916 5.423958,-1.23745 4.653507,-1.5703 22.89353265,-9.001234 26.2451155,-10.692184 0.8286168,-0.418055 2.1699114,-1.300392 2.9806529,-1.960753 3.0263888,-2.465027 3.8428665,-2.639679 8.7419386,-1.869987 5.924728,0.930833 6.737845,0.845499 9.789584,-1.027401 3.730926,-2.289726 4.363786,-2.442909 7.056138,-1.707939 1.066832,0.29123 5.094851,1.588768 8.951153,2.883419 3.856302,1.294654 7.844896,2.491891 8.863541,2.660528 2.29905,0.380611 6.785832,1.497187 11.641667,2.89713 4.717089,1.359945 8.85458,1.904222 14.552083,1.914294 4.071017,0.0072 4.774147,-0.06231 7.408333,-0.732372 2.617496,-0.665816 3.389744,-0.74355 7.672917,-0.772366 l 4.762499,-0.03204 6.085421,-1.506466 c 3.34698,-0.828559 6.67059,-1.537803 7.38582,-1.576104 1.29764,-0.06949 1.30288,-0.0664 2.46699,1.452901 0.64163,0.837393 1.3904,1.642311 1.66394,1.788702 0.27353,0.146391 2.61619,0.795353 5.20592,1.442138 5.65644,1.4127 6.5555,1.71714 11.32316,3.834289 5.39553,2.395961 7.09913,2.907621 10.66829,3.204131 3.9811,0.33074 8.0111,1.09085 11.10587,2.09474 1.38007,0.44766 3.03308,0.79784 3.76623,0.79784 0.90701,0 2.46105,0.41608 5.08105,1.36041 5.94858,2.14406 7.9119,2.62457 10.7255,2.62503 3.6116,5.3e-4 8.6844,-1.33602 11.33779,-2.98734 1.69881,-1.05724 3.19844,-1.52978 6.15205,-1.93855 3.53528,-0.48927 3.67175,-0.53802 7.25475,-2.59148 3.07881,-1.764499 4.9951,-2.553489 6.20195,-2.553489 0.38785,0 3.74721,1.005149 7.46522,2.233669 6.91819,2.28592 10.53983,3.32907 11.50622,3.31417 0.53166,-0.008 0.53271,-0.0181 0.0419,-0.3896 -0.43852,-0.3319 -0.44977,-0.40185 -0.0868,-0.54113 0.22923,-0.088 0.6786,-0.0198 0.99856,0.15141 0.31999,0.17125 0.50784,0.19174 0.41752,0.0455 -0.10481,-0.16953 0.22121,-0.2141 0.90003,-0.12305 1.38782,0.18615 2.10979,-0.40214 1.96765,-1.6033 l -0.0992,-0.83875 0.68604,0.78383 c 0.65666,0.75028 0.67743,0.75594 0.48519,0.1323 l -0.20082,-0.65155 0.75245,0.66146 c 0.41386,0.3638 0.60145,0.4637 0.4169,0.22199 -0.26614,-0.34853 -0.2677,-0.4814 -0.008,-0.64215 0.18343,-0.11338 0.37372,-0.0655 0.43177,0.10873 0.0571,0.17129 0.27623,0.31143 0.48694,0.31143 0.21072,0 0.45138,0.17784 0.53478,0.39519 0.12776,0.33294 0.27471,0.30758 0.93276,-0.161 0.76115,-0.54198 0.76891,-0.57 0.30308,-1.09627 -0.47038,-0.53139 -0.46601,-0.53714 0.27173,-0.35756 0.49239,0.11987 0.69138,0.088 0.5797,-0.0927 -0.0935,-0.15135 -0.3941,-0.275189 -0.66797,-0.275189 -0.27387,0 -0.57057,-0.117509 -0.65931,-0.261133 -0.17727,-0.286816 2.53986,-0.18061 3.02331,0.118173 0.35883,0.221779 0.811,-0.05136 0.811,-0.489897 0,-0.460208 0.98393,-0.354041 1.3902,0.150003 0.39526,0.490376 1.25564,0.827913 1.25564,0.492599 0,-0.406739 1.37546,-0.114652 1.63377,0.346944 0.19508,0.34855 0.12137,0.44254 -0.36385,0.46414 -1.34276,0.0598 1.32122,0.50785 3.57989,0.60213 1.80517,0.0754 2.36797,0.0149 2.4757,-0.26584 0.1741,-0.45371 1.91416,-0.47081 2.46407,-0.0242 0.42643,0.34632 0.58846,1.51294 0.21013,1.51294 -0.12581,0 -0.10369,0.23369 0.0492,0.51932 0.15285,0.28562 0.44264,0.4561 0.64399,0.37883 0.20135,-0.0773 0.44469,-0.0133 0.54076,0.14215 0.0961,0.15544 0.43553,0.27866 0.75435,0.27382 l 0.5797,-0.009 -0.59531,-0.49663 c -0.67974,-0.56705 -0.75128,-0.80867 -0.23945,-0.80867 0.19574,0 0.57137,-0.23812 0.83476,-0.52916 0.63969,-0.70684 1.04386,-0.66691 1.70059,0.16797 0.38848,0.49387 0.54837,0.57373 0.54837,0.27389 0,-0.23278 -0.23812,-0.55069 -0.52917,-0.70645 -0.60118,-0.32174 -0.7158,-1.05833 -0.16467,-1.05833 0.20045,0 0.51062,0.17609 0.68924,0.39132 0.24111,0.29054 0.45386,0.32221 0.82613,0.12298 0.39092,-0.20921 0.50139,-0.17884 0.50139,0.13785 0,0.2234 0.11533,0.40618 0.25627,0.40618 0.14097,0 0.18595,-0.1833 0.1,-0.40734 -0.12552,-0.32714 0.0454,-0.3995 0.86821,-0.36753 1.24132,0.0482 2.47972,0.47327 2.47972,0.85107 0,0.15212 0.0784,0.19824 0.1741,0.10249 0.26958,-0.26959 0.88424,0.35799 0.88424,0.90284 0,0.26816 0.36639,0.90488 0.81423,1.41493 0.80348,0.9151 0.85786,1.58968 0.10485,1.30072 -0.21278,-0.0817 -0.32694,-0.24545 -0.25368,-0.36399 0.0733,-0.11854 -0.0597,-0.40842 -0.29544,-0.64417 -0.39515,-0.39515 -0.45672,-0.39164 -0.78777,0.0448 -0.47003,0.61969 -0.47632,1.01844 -0.01,0.6314 0.28223,-0.23422 0.40143,-0.21136 0.52086,0.0999 0.0852,0.22199 0.33724,0.40362 0.56007,0.40362 0.53626,0 0.51924,0.42878 -0.0254,0.63775 -0.2522,0.0968 -0.5633,-0.0164 -0.75118,-0.2734 -0.29509,-0.40354 -0.33589,-0.39903 -0.5107,0.0565 -0.11795,0.3074 -0.0646,0.53691 0.14087,0.60538 1.10765,0.36922 2.02662,2.35307 1.29849,2.80309 -0.13917,0.086 -0.18597,0.33116 -0.10398,0.54478 0.082,0.21362 0.0272,0.3884 -0.12181,0.3884 -0.14896,0 -0.33089,-0.14882 -0.40429,-0.33073 -0.10263,-0.25435 -0.13827,-0.25075 -0.15436,0.0156 -0.0119,0.19811 -0.16242,0.26643 -0.3516,0.15962 -0.22291,-0.12585 -0.24447,-0.0983 -0.0661,0.0846 0.41058,0.421 2.17932,0.66221 2.38739,0.32557 0.0988,-0.1599 0.34327,-0.22796 0.54322,-0.15123 0.19994,0.0767 1.16808,-0.23699 2.15138,-0.69713 2.34249,-1.09618 4.09771,-1.22155 6.90697,-0.49336 1.18372,0.30684 2.20046,0.55789 2.25944,0.55789 0.0589,0 0.25352,-0.35324 0.43235,-0.78498 1.10308,-2.66305 1.06196,-55.973933 1.06196,28.26925 l 1.6e-4,16.96573 H 102.72944 -66.603889 Z M 255.92319,109.20815 c 0,-0.36547 -0.1764,-0.52917 -0.57018,-0.52917 -0.5534,0 -0.5561,0.0156 -0.0913,0.52917 0.26339,0.29104 0.51996,0.52916 0.57018,0.52916 0.0502,0 0.0913,-0.23812 0.0913,-0.52916 z m -15.61042,-5.95313 c 0,-0.21828 0.18563,-0.39687 0.41249,-0.39687 0.22688,0 0.3389,-0.11907 0.24897,-0.26459 -0.33253,-0.53803 -1.0577,-0.27543 -1.09649,0.39707 -0.0209,0.3637 0.0683,0.66127 0.19844,0.66127 0.13012,0 0.23659,-0.1786 0.23659,-0.39688 z M 121.45185,74.481585 c -0.2358,-0.181901 -0.46691,-0.628386 -0.51359,-0.992188 -0.11627,-0.906301 -2.13341,-2.212459 -4.63457,-3.001036 -1.25619,-0.39606 -1.82928,-0.686158 -1.55978,-0.789573 0.99781,-0.382897 4.58987,0.734 7.25814,2.256806 1.40587,0.802347 1.4358,0.806765 5.75089,0.848876 4.73402,0.0462 6.62102,0.530368 2.27899,0.584745 -2.0102,0.02516 -3.00801,0.182319 -4.62004,0.727604 -2.26969,0.767747 -3.31307,0.863854 -3.96004,0.364766 z m -28.745064,-3.23985 c -1.074073,-0.364514 -2.443292,-0.6703 -3.042708,-0.679526 -1.000085,-0.0154 -1.035367,-0.03877 -0.428387,-0.283925 0.363802,-0.146936 2.03721,-0.232984 3.718685,-0.191217 2.666547,0.06623 3.173708,0.0081 3.968749,-0.454909 2.465425,-1.435801 6.335485,-2.496161 6.335485,-1.735865 0,0.165791 -0.13129,0.301437 -0.29175,0.301437 -0.71549,0 -4.735336,2.11128 -4.735336,2.487071 0,0.553384 -0.72223,0.894209 -2.269339,1.070916 -0.986126,0.112634 -1.776923,-0.01222 -3.255399,-0.513982 z m 21.242304,-7.57052 c -0.70272,-0.777647 -2.74771,-1.770155 -4.54492,-2.205813 -1.47946,-0.358634 -1.49028,-0.367765 -0.45702,-0.385468 1.23781,-0.02122 4.10522,0.614457 5.0832,1.126873 0.57631,0.301959 0.79842,0.297797 1.44981,-0.02716 1.00496,-0.50134 4.83318,-0.77765 5.08687,-0.36716 0.11293,0.182716 -0.009,0.299829 -0.31145,0.299829 -0.98801,0 -3.23067,0.821208 -3.99189,1.461733 -0.95279,0.801716 -1.65142,0.831045 -2.3146,0.09717 z"
               id="path964" />
            <path
               style="fill:#83792c;stroke-width:0.264583"
               d="m -66.603889,147.31318 v -30.42204 l 0.665278,-0.16697 c 0.365902,-0.0918 1.514102,-0.11901 2.551555,-0.0604 1.751621,0.099 1.938163,0.16874 2.6131,0.9772 0.441897,0.52932 0.796139,0.75846 0.903643,0.58452 0.366819,-0.59353 1.872279,-0.31365 2.643632,0.49147 0.699273,0.72988 0.782503,0.75297 1.35712,0.37646 1.02274,-0.67012 1.760139,-0.36685 2.494838,1.02606 0.542069,1.0277 0.870383,1.32531 1.818975,1.64884 0.636633,0.21714 1.261711,0.3304 1.389062,0.25169 0.32426,-0.2004 0.288747,-1.00717 -0.05967,-1.35559 -0.211901,-0.2119 -0.139839,-0.33926 0.264583,-0.46762 0.30569,-0.097 0.5558,-0.28745 0.5558,-0.42316 0,-0.13571 0.297657,-0.24675 0.661459,-0.24675 0.833942,0 0.911271,-0.866 0.109283,-1.22386 -0.529016,-0.23605 -0.515144,-0.27381 0.330729,-0.90033 0.485597,-0.35967 0.882904,-0.83253 0.882904,-1.05081 0,-0.22842 0.257327,-0.40984 0.606259,-0.42742 0.333442,-0.0168 0.762709,-0.24451 0.953926,-0.50602 0.211101,-0.28869 0.518717,-0.40982 0.783115,-0.30836 0.255601,0.0981 0.833037,-0.10272 1.3981,-0.48618 0.529458,-0.3593 0.856741,-0.65689 0.727293,-0.66132 -0.129448,-0.004 -0.027,-0.1294 0.227661,-0.27773 0.254662,-0.14833 0.463021,-0.44492 0.463021,-0.65908 0,-0.21417 0.310699,-0.53097 0.690443,-0.70399 0.583058,-0.26566 0.742578,-0.24329 1.025653,0.14384 0.269007,0.36789 0.472299,0.40631 1.029348,0.19451 0.780044,-0.29657 0.961469,-0.66209 0.210291,-0.42368 -0.410628,0.13033 -0.466143,0.0329 -0.366845,-0.64363 0.06435,-0.43846 0.252317,-0.79902 0.417703,-0.80124 0.165383,-0.002 0.125441,-0.11489 -0.08876,-0.25036 -0.329319,-0.20826 -0.313068,-0.27561 0.105228,-0.43612 0.272078,-0.10441 0.822782,-0.53315 1.223787,-0.95276 0.776526,-0.81257 2.432632,-1.27511 2.74659,-0.76712 0.09985,0.16155 0.472172,0.29374 0.827386,0.29374 0.516483,0 0.645843,0.13561 0.645843,0.67707 0,0.38401 -0.114523,0.6063 -0.264584,0.51355 -0.14552,-0.0899 -0.264583,-0.0294 -0.264583,0.13451 0,0.17571 0.21308,0.2304 0.519173,0.13325 0.707816,-0.22465 1.542389,0.26832 1.645161,0.97178 0.08369,0.57287 0.09023,0.57361 0.59472,0.0667 1.332116,-1.33843 3.162464,-2.50821 2.664904,-1.70314 -0.08994,0.14552 0.01508,0.26458 0.233355,0.26458 0.523708,0 0.786905,-0.44731 0.363606,-0.61797 -0.182808,-0.0737 -0.06449,-0.1434 0.262935,-0.15489 0.464182,-0.0163 0.595313,0.12481 0.595313,0.64057 0,0.41158 0.149931,0.66146 0.396875,0.66146 0.218281,0 0.396875,-0.12181 0.396875,-0.27068 0,-0.14888 0.315989,-0.0636 0.702201,0.18941 l 0.702202,0.4601 -0.834494,0.34051 c -0.458972,0.18728 -0.834493,0.45923 -0.834493,0.60434 0,0.36738 0.131694,0.33686 1.107787,-0.25674 0.548814,-0.33375 0.917011,-0.42184 1.026025,-0.24545 0.338431,0.54759 2.14422,0.75648 2.947709,0.34098 0.415169,-0.21469 0.86082,-0.32485 0.990336,-0.24481 0.129513,0.08 0.431239,-0.0502 0.670499,-0.28948 0.339796,-0.33979 0.56165,-0.37379 1.013518,-0.15531 0.318175,0.15384 0.920306,0.35438 1.338067,0.44565 0.417761,0.0913 0.933024,0.3394 1.145027,0.5514 0.255034,0.25503 0.526542,0.30651 0.802412,0.15212 0.28081,-0.15715 0.727657,-0.0557 1.368518,0.31074 1.295619,0.7408 1.276482,0.71159 0.728694,1.11214 -0.358611,0.26223 -0.42059,0.47382 -0.235609,0.80436 0.227682,0.40684 0.289454,0.39365 0.664565,-0.14189 0.227451,-0.32473 0.571785,-0.53393 0.765188,-0.46487 0.193402,0.0691 0.548097,0.0248 0.788212,-0.0984 0.414033,-0.21242 0.667848,0.0287 0.697767,0.66279 0.03283,0.6958 1.4729884,0.89963 2.0784582,0.29416 0.5084287,-0.50843 1.1266276,-0.50843 1.3217287,0 0.083764,0.21828 0.3251782,0.39688 0.5364797,0.39688 0.2112989,0 0.3105971,-0.11907 0.2206599,-0.26459 -0.089937,-0.14552 -0.018971,-0.26458 0.1576837,-0.26458 0.2208239,0 0.1953445,-0.1447 -0.081534,-0.46302 -0.618654,-0.71125 -0.471342,-1.33789 0.3846671,-1.63629 0.4232249,-0.14754 0.69401,-0.39039 0.6017472,-0.53968 -0.1662483,-0.269 0.337431,-0.37988 1.2769612,-0.28113 0.3806216,0.04 0.4491937,-0.0693 0.3128988,-0.49869 -0.1408853,-0.4439 -0.056314,-0.55689 0.4385998,-0.58598 0.33723,-0.0198 1.0558172,-0.0742 1.5968662,-0.12073 0.5410465,-0.0466 1.0486681,0.0204 1.1280458,0.14885 0.082383,0.13329 0.4855633,0.13565 0.93940043,0.005 0.43729275,-0.12541 0.88217109,-0.25086 0.9886209,-0.27878 0.10644717,-0.0279 0.35958727,-0.11447 0.56253327,-0.19234 0.2029433,-0.0779 0.519004,0.0636 0.702355,0.31431 0.3124967,0.42736 0.3644317,0.42255 0.8297412,-0.0769 0.2730077,-0.29304 0.9693222,-0.60843 1.547368,-0.70086 0.8419967,-0.13464 1.1955277,-0.0544 1.7778306,0.40367 0.7740121,0.60884 0.9386385,1.19752 0.3961104,1.41643 -0.2601939,0.10499 -0.2587969,0.13791 0.00654,0.15434 0.185502,0.0115 0.4478866,0.31182 0.5830755,0.66739 0.2219722,0.58382 0.329311,0.62255 1.10726,0.39943 0.5190199,-0.14885 0.9574027,-0.15112 1.1028125,-0.006 0.1327414,0.13274 0.4245715,0.17104 0.6485099,0.0851 0.312354,-0.11986 0.372224,-0.0226 0.257114,0.41755 -0.08253,0.31559 -0.04363,0.5738 0.08644,0.5738 0.130069,0 0.537136,0.47625 0.904589,1.05833 0.655587,1.03852 0.697153,1.05833 2.220177,1.05833 1.479727,0 1.567619,-0.0375 1.885349,-0.80457 0.403058,-0.97305 1.264947,-2.10585 1.602232,-2.10585 0.134959,0 0.24538,0.36586 0.24538,0.81301 v 0.81302 l 0.986324,-0.81302 c 1.067721,-0.8801 1.924093,-1.05864 1.924093,-0.40113 0,0.37278 0.05582,0.37278 0.588039,0 1.117761,-0.78291 2.150036,-0.53042 3.72819,0.91193 l 1.448459,1.32381 2.343177,0.16298 2.343176,0.16298 0.603234,-0.82533 c 0.756121,-1.03451 1.312757,-1.04872 1.735085,-0.0443 0.312052,0.74215 0.344455,0.75532 0.650928,0.26458 0.434562,-0.69584 0.79775,-0.6499 1.160766,0.14683 0.278744,0.61178 0.338125,0.63078 0.764681,0.24475 0.710948,-0.6434 1.858951,-0.37826 2.500778,0.57757 l 0.553397,0.82415 0.43503,-0.758 c 0.602745,-1.05022 1.354334,-0.97074 2.169896,0.22946 0.589894,0.86811 0.670997,0.91398 0.670997,0.37948 0,-1.53315 1.316048,-2.16756 2.350531,-1.13307 0.488212,0.48821 0.50137,0.47668 0.64058,-0.5612 0.295474,-2.20292 1.05223,-1.93341 2.024502,0.721 0.650439,1.77576 0.967539,2.25217 1.499074,2.25217 0.226962,0 0.364479,-0.29359 0.364479,-0.77814 0,-1.29414 0.934032,-1.36892 1.598173,-0.12796 l 0.349652,0.65333 0.336233,-0.79966 c 0.431117,-1.02533 1.262703,-1.05865 1.797942,-0.0721 l 0.394729,0.7276 0.01058,-1.23513 c 0.01349,-1.57426 0.210336,-2.07216 0.819187,-2.07216 0.487773,0 1.580714,1.2533 1.961208,2.24896 0.186743,0.48866 0.221808,0.47347 0.458052,-0.19844 0.140706,-0.40018 0.402225,-0.7276 0.581152,-0.7276 0.416399,0 1.370894,1.02785 2.870573,3.09119 1.168689,1.60795 1.194102,1.62496 1.482408,0.99219 0.399073,-0.87587 0.740545,-0.81217 1.79035,0.33395 0.559758,0.61111 0.895581,0.82491 0.895581,0.57017 0,-0.22416 0.230621,-0.61628 0.512495,-0.87137 0.545502,-0.49368 0.969579,-0.37688 1.549556,0.42678 0.286755,0.39734 0.428911,0.42142 0.876601,0.14848 0.463082,-0.28232 0.616601,-0.2311 1.151128,0.38407 0.339228,0.39042 0.667597,0.8623 0.729708,1.04863 0.08148,0.24443 0.32026,0.17569 0.857401,-0.24682 0.409461,-0.32208 0.85236,-0.58561 0.984223,-0.58561 0.131866,0 0.453869,0.50416 0.715569,1.12036 0.459983,1.08308 0.486341,1.10068 0.79221,0.52916 0.465987,-0.8707 0.717769,-0.73737 1.38172,0.73173 0.328835,0.72761 0.641011,1.32292 0.693724,1.32292 0.05271,0 0.424945,-0.24332 0.82718,-0.5407 0.888635,-0.657 1.305386,-0.52424 2.12561,0.67713 0.346181,0.50705 0.722442,0.9219 0.836139,0.9219 0.113697,0 0.961554,-0.35709 1.884124,-0.79354 2.110595,-0.99847 2.775461,-0.99516 4.177969,0.0208 1.11782,0.80974 1.128258,0.81162 1.693344,0.30401 0.875316,-0.78629 1.40325,-0.86994 2.088481,-0.33094 0.614516,0.48338 0.634476,0.48272 0.955624,-0.0315 0.507622,-0.81283 1.390611,-0.51572 2.077043,0.69889 0.544063,0.9627 0.598506,0.99715 0.602464,0.3813 0.0054,-0.83644 0.61395,-1.71697 1.015254,-1.46895 0.163587,0.1011 0.438621,0.65508 0.611185,1.23105 0.342704,1.14384 0.6355,1.3245 0.88297,0.5448 0.08771,-0.27634 0.469151,-0.81212 0.847659,-1.19063 1.052362,-1.05236 1.983412,-0.9153 3.515177,0.51749 1.251876,1.17098 1.294223,1.18811 1.471422,0.59531 0.100348,-0.3357 0.352718,-0.88027 0.560808,-1.21016 0.51799,-0.82114 1.19882,-0.4278 2.15381,1.24432 l 0.73527,1.28742 0.48161,-1.16441 c 0.26489,-0.64042 0.64423,-1.1644 0.84297,-1.1644 0.44738,0 0.90915,0.82378 0.90915,1.6219 0,0.47724 0.15949,0.34687 0.78792,-0.64406 0.79513,-1.25379 1.22893,-1.45606 2.11068,-0.98416 0.38185,0.20435 0.51111,0.14913 0.6193,-0.26459 0.0752,-0.28756 0.32341,-0.52284 0.55157,-0.52284 0.46031,0 1.22219,1.28379 1.22219,2.05943 0,1.02085 0.38144,0.80345 1.49022,-0.84937 0.62667,-0.93413 1.37667,-1.77373 1.66667,-1.86578 0.60956,-0.19346 1.60515,0.25963 1.6066,0.73117 5.3e-4,0.17678 0.25081,-0.0953 0.55615,-0.60462 1.51224,-2.52255 2.82826,-3.01862 4.07558,-1.53627 0.39105,0.46474 0.822,1.13692 0.95765,1.49372 l 0.24666,0.64875 0.60427,-0.56768 c 0.33235,-0.31223 0.72467,-0.56769 0.87182,-0.56769 0.33348,0 1.16073,0.88905 2.01508,2.16562 l 0.65252,0.97498 0.31193,-1.04113 c 0.34897,-1.16477 0.90734,-1.34574 1.37555,-0.44582 0.17035,0.32742 0.34378,0.63556 0.38538,0.68476 0.0416,0.0492 0.43388,-0.17541 0.87171,-0.49911 1.03718,-0.76681 2.60528,-0.77187 3.89225,-0.0125 0.53693,0.3168 1.00644,0.5414 1.04335,0.49911 0.0369,-0.0423 0.36981,-0.6797 0.73977,-1.41644 0.36996,-0.73674 0.87341,-1.50616 1.11879,-1.7098 0.38852,-0.32245 0.49441,-0.30427 0.81981,0.14073 0.20551,0.28105 0.50264,0.99005 0.6603,1.57554 l 0.28665,1.06454 0.53317,-1.05636 c 1.14863,-2.27574 2.03223,-2.55167 3.35322,-1.04716 0.45163,0.51439 0.82115,1.07001 0.82115,1.23471 0,0.1647 0.39356,-0.15582 0.87457,-0.71227 0.73234,-0.84718 0.98765,-0.98334 1.56987,-0.83721 0.38241,0.096 0.77079,0.41235 0.86305,0.70306 0.26696,0.84112 0.51789,0.62796 1.02825,-0.87349 0.99353,-2.92293 2.1111,-3.31957 2.97554,-1.05606 l 0.46642,1.2213 0.4621,-1.8799 c 0.55004,-2.23764 1.10155,-3.38098 1.81508,-3.76285 0.71691,-0.38368 2.81617,0.53174 3.98509,1.73776 0.48428,0.49965 0.95737,0.90846 1.05131,0.90846 0.0939,0 0.30925,-0.46213 0.47848,-1.02695 0.36026,-1.20246 0.85725,-1.69505 1.47212,-1.4591 0.50512,0.19384 1.21437,1.44154 1.21437,2.13631 0,0.33872 0.22747,0.19435 0.81301,-0.51602 1.408,-1.70815 2.28325,-1.18404 3.28786,1.96881 0.59877,1.87916 0.62698,1.91642 0.90442,1.19482 0.15751,-0.40965 0.28638,-0.83768 0.28638,-0.95117 0,-0.1135 0.22822,-0.4129 0.50716,-0.66533 0.72582,-0.65686 1.34769,-0.23124 2.32603,1.59204 l 0.81115,1.51169 0.18716,-0.8521 c 0.37822,-1.72204 1.32447,-1.31197 2.65079,1.14875 0.81557,1.51313 1.19063,1.82946 1.19063,1.0042 0,-0.67794 0.7481,-1.64638 1.27177,-1.64634 0.24641,2e-5 1.37712,0.59534 2.5127,1.32292 1.13557,0.72759 2.11365,1.32288 2.1735,1.32288 0.0599,0 0.25157,-0.26789 0.42604,-0.59531 0.28602,-0.53678 0.27457,-0.56015 -0.11639,-0.23766 -0.37874,0.3124 -0.4756,0.26219 -0.76554,-0.39688 -0.18256,-0.41499 -0.45243,-0.83886 -0.5997,-0.94194 -0.17486,-0.1224 -0.15378,-0.3014 0.0608,-0.51594 0.18068,-0.18069 0.32851,-0.7649 0.32851,-1.29825 0,-1.06927 0.83234,-2.36402 1.51973,-2.36402 0.23264,0 0.64261,-0.19876 0.91104,-0.44169 0.45727,-0.41381 0.51142,-0.40975 0.85818,0.0645 0.26838,0.36704 0.28751,0.55721 0.0696,0.69189 -0.16528,0.10215 -0.21341,0.27283 -0.10695,0.37929 0.10647,0.10647 0.43508,-0.0657 0.73025,-0.38248 0.59524,-0.63892 1.05477,-0.72528 1.49843,-0.28161 0.3636,0.36359 0.9538,0.0417 0.77549,-0.42297 -0.17948,-0.46773 0.60223,-3.04649 0.9235,-3.04649 0.14316,0 0.17088,0.14883 0.0616,0.33073 -0.13501,0.22473 -0.0552,0.21434 0.24897,-0.0324 0.58366,-0.47344 0.57463,-0.85519 -0.0153,-0.64934 -0.42943,0.14983 -0.42825,0.12523 0.0162,-0.33904 0.45429,-0.47458 0.49705,-0.47653 0.82292,-0.0376 0.42087,0.56695 1.06247,0.6168 0.85116,0.0661 -0.11791,-0.30727 0.0618,-0.39687 0.79588,-0.39687 0.94695,0 0.94762,7.9e-4 0.52086,0.65215 -0.48692,0.74312 -0.54887,1.19993 -0.16273,1.19993 0.14552,0 0.26459,-0.17299 0.26459,-0.38442 0,-0.61498 0.58548,-1.72866 0.8295,-1.57785 0.40905,0.2528 2.12158,-0.75608 2.3635,-1.39237 0.13125,-0.34522 0.41902,-0.69688 0.63948,-0.78148 0.22047,-0.0846 0.40085,-0.43647 0.40085,-0.78194 0,-0.46668 0.18699,-0.67278 0.7276,-0.80192 0.40019,-0.0956 0.86375,-0.28051 1.03015,-0.41092 0.16639,-0.13041 0.69413,-0.28666 1.17274,-0.34723 0.47861,-0.0606 0.97346,-0.29465 1.09967,-0.52017 0.12621,-0.22551 0.4695,-0.41003 0.76287,-0.41003 0.2934,0 0.77391,-0.12871 1.06786,-0.28602 0.68088,-0.36439 0.95591,-0.0985 0.55769,0.53911 -0.24749,0.3963 -0.2282,0.52432 0.0978,0.64942 0.73334,0.28142 0.95599,0.16477 0.8029,-0.42064 -0.10522,-0.40241 0.0462,-0.75902 0.50162,-1.18106 0.59566,-0.55204 1.4395,-0.6054 1.4395,-0.091 0,0.11632 0.23812,0.14923 0.52916,0.0731 0.36801,-0.0962 0.52917,-0.008 0.52917,0.28936 0,0.51834 0.19558,0.52404 1.05833,0.0309 1.0355,-0.59194 1.5875,-0.49994 1.5875,0.26459 0,0.48507 -0.1411,0.66146 -0.52916,0.66146 -0.55333,0 -0.63691,0.20511 -0.36857,0.9044 0.20984,0.54684 0.89773,0.54173 0.89773,-0.007 0,-0.27901 0.14388,-0.36997 0.41852,-0.26458 0.23019,0.0883 0.4518,0.1606 0.49247,0.1606 0.0407,0 0.0169,0.29765 -0.0525,0.66145 -0.15761,0.82449 0.39772,0.86695 1.91961,0.14677 l 1.05833,-0.5008 -0.8599,-0.0214 c -0.47294,-0.0118 -0.85989,-0.12774 -0.85989,-0.25769 0,-0.40539 0.76819,-0.55409 1.47473,-0.28547 0.8748,0.3326 1.70027,0.329 1.70027,-0.007 0,-0.14552 -0.27115,-0.26459 -0.60254,-0.26459 -0.64651,0 -2.04329,-1.3833 -2.04329,-2.02357 0,-0.38032 0.26593,-0.37354 2.66602,0.068 0.37488,0.069 0.99893,0.005 1.38676,-0.1427 0.38782,-0.14745 0.90387,-0.19183 1.14675,-0.0986 0.3682,0.14129 0.3356,0.2089 -0.19613,0.40663 -0.58661,0.21814 -0.59952,0.25869 -0.16089,0.50547 0.33157,0.18655 0.58793,0.17611 0.84142,-0.0343 0.2861,-0.23743 0.43762,-0.17073 0.70382,0.30983 0.18659,0.33682 0.31396,0.7017 0.28305,0.81084 -0.0309,0.10914 0.26226,0.19843 0.65154,0.19843 0.66895,0 0.6831,-0.0254 0.25807,-0.46302 -0.84283,-0.86786 -1.73593,-2.43079 -1.47955,-2.58923 0.13962,-0.0863 0.49094,-0.0817 0.78066,0.0103 0.36187,0.11485 0.52681,0.0462 0.52681,-0.2192 0,-0.65223 0.75885,-0.72291 1.31799,-0.12275 0.58817,0.63133 0.93025,1.48843 0.68996,1.72873 -0.22474,0.22475 0.64878,1.12601 1.09138,1.12601 0.20431,0 0.29789,-0.11906 0.20796,-0.26458 -0.0899,-0.14553 0.0945,-0.26459 0.40995,-0.26459 0.47019,0 0.5453,-0.11222 0.41703,-0.62325 -0.13941,-0.55547 -0.0634,-0.62576 0.69893,-0.64628 1.5264,-0.0411 1.7686,-0.0832 1.92407,-0.3348 0.0842,-0.13626 -0.12179,-0.25154 -0.45781,-0.25616 -0.33599,-0.005 -0.82759,-0.17266 -1.09241,-0.3734 -0.46559,-0.35294 -0.46559,-0.37491 0,-0.66568 0.44911,-0.28047 0.4459,-0.29136 -0.0477,-0.16181 -0.29104,0.0764 -0.70376,0.0294 -0.91712,-0.1045 -0.33068,-0.20745 -0.29641,-0.4063 0.23206,-1.34662 0.51139,-0.90986 0.55619,-1.14767 0.2557,-1.35682 -0.25559,-0.17786 -0.10761,-0.22217 0.49551,-0.14837 0.47294,0.0579 0.8599,0.01 0.8599,-0.107 0,-0.11671 0.32091,-0.0902 0.7131,0.0589 0.94761,0.36027 2.06984,-0.42763 2.0546,-1.44248 -0.0127,-0.84551 0.0502,-0.85425 0.70961,-0.0985 l 0.5194,0.59531 -0.17769,-0.66145 c -0.17764,-0.66124 -0.17741,-0.6612 0.7035,0.13229 0.48469,0.43656 0.7257,0.58939 0.53559,0.33962 -0.71434,-0.93854 -0.11231,-1.00119 0.82966,-0.0863 0.53927,0.52374 0.91069,0.7703 0.82534,0.54793 -0.0853,-0.22238 -0.0416,-0.40433 0.0973,-0.40433 0.13883,0 0.50356,-0.21781 0.8105,-0.48403 0.52141,-0.45221 0.52903,-0.51308 0.11607,-0.92604 -0.25559,-0.2556 -0.31308,-0.44201 -0.13634,-0.44201 0.16812,0 0.37925,0.11906 0.46919,0.26458 0.25765,0.41691 0.66167,0.3084 0.49255,-0.13229 -0.0838,-0.21828 -0.4372,-0.396874 -0.78545,-0.396874 -0.34822,0 -0.63314,-0.116086 -0.63314,-0.257969 0,-0.141883 0.32742,-0.207039 0.7276,-0.144791 2.68203,0.417187 2.97656,0.414875 2.97656,-0.02339 0,-0.354354 0.0716,-0.372949 0.39688,-0.103021 0.32424,0.269097 0.39687,0.253019 0.39687,-0.08787 0,-0.316875 0.15624,-0.261022 0.64942,0.232185 0.61143,0.61142 1.67309,0.93198 1.34879,0.40726 -0.0869,-0.140647 0.14889,-0.16233 0.56248,-0.05172 0.87043,0.23279 1.13708,0.82306 0.37177,0.82306 -0.30316,0 -0.55121,0.12804 -0.55121,0.28453 0,0.15649 0.32742,0.26293 0.72761,0.23654 0.40018,-0.0264 0.84666,-0.0228 0.99218,0.008 0.14552,0.0308 0.59201,0.0345 0.99219,0.008 0.40018,-0.0264 0.7276,0.08 0.7276,0.23654 0,0.15649 0.35719,0.28453 0.79375,0.28453 0.43657,0 0.79375,-0.13197 0.79375,-0.29327 0,-0.18583 0.25932,-0.22818 0.70784,-0.11561 0.45292,0.11368 1.00084,0.021 1.52136,-0.25729 1.16673,-0.62382 2.26838,-0.19047 2.16694,0.85239 -0.10856,1.11592 0.24788,1.58581 1.35138,1.78147 0.54965,0.0974 1.23748,0.23703 1.52853,0.31018 0.29104,0.0731 0.0827,-0.1352 -0.46302,-0.46299 -1.09715,-0.65902 -1.26466,-1.02113 -0.47234,-1.02113 0.28594,0 0.6473,-0.23813 0.80306,-0.52917 0.39027,-0.72921 0.91483,-0.66235 1.55705,0.19844 0.37497,0.50257 0.54544,0.59708 0.55123,0.30559 0.005,-0.23211 -0.22973,-0.63752 -0.52078,-0.90091 -0.29104,-0.26339 -0.52916,-0.57949 -0.52916,-0.70246 0,-0.36629 0.58568,-0.25445 1.09868,0.20981 0.39042,0.35332 0.55314,0.37178 0.88072,0.0999 0.33025,-0.27409 0.40185,-0.25981 0.40185,0.0802 0,0.22751 0.1393,0.49975 0.30953,0.60497 0.2049,0.12662 0.25527,0.0498 0.14902,-0.22708 -0.31007,-0.80798 1.31823,-0.83274 2.98685,-0.0454 0.76187,0.35949 1.12274,0.71681 1.22688,1.21485 0.0811,0.38806 0.49183,1.03541 0.91262,1.43856 0.83333,0.79838 0.96213,1.16316 0.41069,1.16316 -0.19492,0 -0.49004,-0.29765 -0.65577,-0.66146 -0.44379,-0.97398 -1.13461,-0.79286 -1.50588,0.39481 -0.18544,0.5933 -0.16203,0.62279 0.23389,0.29421 0.37831,-0.31396 0.51263,-0.29944 0.95798,0.10358 0.28488,0.25781 0.44979,0.57903 0.3665,0.71381 -0.0833,0.13478 -0.30054,0.0411 -0.48278,-0.20808 -0.18225,-0.24922 -0.46847,-0.36838 -0.63606,-0.2648 -0.50792,0.31392 -0.34261,0.94494 0.32755,1.25028 1.01164,0.46093 1.66606,2.3464 0.81442,2.3464 -0.22297,0 -0.51308,0.26789 -0.64469,0.59532 -0.13163,0.32742 -0.24685,0.42664 -0.25606,0.22048 -0.009,-0.20615 -0.0933,-0.29833 -0.18677,-0.20483 -0.27083,0.27083 0.43632,0.95925 0.83013,0.80814 0.19627,-0.0753 0.59177,-0.0112 0.87892,0.14246 0.39624,0.21207 0.59973,0.18581 0.84439,-0.109 0.1773,-0.21363 0.44966,-0.30972 0.60529,-0.21354 0.15563,0.0962 1.00534,0.19659 1.88825,0.22313 1.29778,0.039 1.67153,-0.0457 1.95104,-0.44237 0.48826,-0.69289 1.76982,-0.63825 2.2851,0.0974 0.22653,0.32342 0.41187,0.97826 0.41187,1.45521 0,0.47694 0.11907,0.86717 0.26459,0.86717 0.14552,0 0.26458,-0.10283 0.26458,-0.22851 0,-0.12568 0.3139,-0.54239 0.69755,-0.92604 0.96472,-0.96472 1.82761,-0.90824 2.48036,0.16236 0.35637,0.58448 0.52459,0.70948 0.52528,0.39026 0.003,-0.66766 0.93041,-3.22562 1.4311,-3.94047 0.38661,-0.55198 0.42196,-38.884927 0.42196,34.38144 v 13.28807 H 102.72944 -66.603889 Z M 181.2225,119.92377 c 0,-0.21828 -0.0992,-0.39687 -0.22049,-0.39687 -0.26424,0 -0.29073,0.37073 -0.0441,0.61736 0.24525,0.24524 0.26459,0.22913 0.26459,-0.22049 z m -223.922588,-4.77391 c -0.08617,-0.22456 -0.213419,-0.35154 -0.282774,-0.28219 -0.06935,0.0694 -0.04762,0.25309 0.0483,0.40829 0.260893,0.42213 0.41338,0.34012 0.234473,-0.1261 z m 234.769338,-0.45161 c -0.0734,-0.1819 -0.13345,-0.0331 -0.13345,0.33073 0,0.3638 0.06,0.51263 0.13345,0.33073 0.0734,-0.1819 0.0734,-0.47956 0,-0.66146 z m -204.285914,0.091 c -0.08149,-0.13186 -0.386175,-0.17751 -0.677074,-0.10144 -0.728014,0.19038 -0.662525,0.34118 0.148172,0.34118 0.37239,0 0.610396,-0.10788 0.528902,-0.23974 z m 22.937253,-0.46466 c -0.181901,-0.0734 -0.479558,-0.0734 -0.661459,0 -0.1819007,0.0734 -0.03307,0.13346 0.330729,0.13346 0.363803,0 0.512631,-0.0601 0.33073,-0.13346 z M 206.73601,113.0141 c 0.30689,-0.36977 0.28744,-0.41436 -0.14412,-0.33073 -0.27435,0.0532 -0.54837,0.24549 -0.60894,0.42739 -0.15713,0.47199 0.33338,0.40903 0.75306,-0.0967 z m -221.680004,-0.23407 c -0.09764,-0.39057 -0.929085,-0.3216 -1.065755,0.0884 -0.08067,0.24201 0.07878,0.3252 0.507119,0.26459 0.34363,-0.0486 0.595016,-0.20748 0.558636,-0.353 z m 224.443684,-0.41448 c 0.28477,-0.46075 -0.0396,-0.55833 -0.40243,-0.12108 -0.20871,0.25146 -0.22879,0.40327 -0.0533,0.40327 0.15475,0 0.35986,-0.12698 0.45577,-0.28219 z m -4.78467,-0.79443 c -0.24882,-0.40257 -0.64633,-0.2796 -0.48184,0.14906 0.0834,0.21744 0.26025,0.32828 0.39288,0.2463 0.13264,-0.082 0.17267,-0.25989 0.089,-0.39536 z m -6.20641,-1.33703 c 0,-0.1277 -0.16587,-0.23218 -0.36857,-0.23218 -0.39729,0 -0.7531,0.64222 -0.49744,0.89788 0.18658,0.18659 0.86601,-0.33568 0.86601,-0.6657 z m 3.175,0.16469 c 0.18372,-0.22139 0.21238,-0.39687 0.0648,-0.39687 -0.14552,0 -0.4128,0.17859 -0.59396,0.39687 -0.18373,0.22139 -0.21238,0.39688 -0.0648,0.39688 0.14552,0 0.41281,-0.1786 0.59397,-0.39688 z m 17.19791,-0.11667 c 0,-0.13694 -0.11906,-0.32256 -0.26458,-0.4125 -0.14552,-0.0899 -0.26458,0.0221 -0.26458,0.24897 0,0.22687 0.11906,0.41249 0.26458,0.41249 0.14552,0 0.26458,-0.11203 0.26458,-0.24896 z m 1.85209,0.14907 c 0,-0.0549 -0.20836,-0.2633 -0.46303,-0.46302 -0.41965,-0.32911 -0.42899,-0.31975 -0.0999,0.0999 0.34565,0.44073 0.56293,0.58089 0.56293,0.36313 z m 34.89462,-1.77096 c -0.60883,-0.37628 -0.76904,0.0287 -0.29742,0.75181 l 0.46009,0.70544 0.0893,-0.62317 c 0.0491,-0.34275 -0.0643,-0.71808 -0.25196,-0.83408 z m -289.889474,0.71946 c 0.16719,0.10333 0.205663,0.0499 0.09408,-0.13064 -0.285327,-0.46167 -0.689457,-0.36604 -0.665835,0.15755 0.01259,0.27934 0.07405,0.33116 0.15489,0.13065 0.0737,-0.18281 0.261289,-0.25371 0.416867,-0.15756 z m 258.434434,-1.49444 c 0,-0.14552 -0.1261,-0.26458 -0.2802,-0.26458 -0.15411,0 -0.20661,0.11906 -0.11668,0.26458 0.0899,0.14552 0.21604,0.26458 0.2802,0.26458 0.0642,0 0.11668,-0.11906 0.11668,-0.26458 z m 16.13958,-4.49792 c 0,-0.31173 0.1764,-0.52916 0.42926,-0.52916 0.34372,0 0.36624,-0.076 0.11295,-0.38115 -0.17396,-0.20963 -0.46826,-0.32285 -0.65394,-0.25159 -0.38653,0.14832 -0.50983,1.69107 -0.13515,1.69107 0.13578,0 0.24688,-0.23813 0.24688,-0.52917 z m 11.48728,-0.62359 c -0.0917,-0.2391 -0.27733,-0.43474 -0.4124,-0.43474 -0.13515,0 -0.11279,0.24813 0.0497,0.55183 0.33692,0.62951 0.61476,0.53981 0.36266,-0.11709 z m -16.24978,-1.75766 c 0.21828,-0.14106 0.27781,-0.25648 0.13229,-0.25648 -0.14552,0 -0.44317,0.11542 -0.66145,0.25648 -0.21829,0.14107 -0.27782,0.25648 -0.1323,0.25648 0.14552,0 0.44318,-0.11541 0.66146,-0.25648 z M 121.581,74.415304 c -0.32742,-0.234712 -0.59531,-0.652061 -0.59531,-0.927444 0,-0.886889 -2.7035,-2.559608 -5.35799,-3.31511 l -1.38888,-0.395296 1.8033,0.107106 c 1.54774,0.09193 2.23297,0.320853 4.83509,1.615329 2.85762,1.421577 3.10845,1.497682 4.36602,1.324721 0.73382,-0.100928 2.54662,-0.08721 4.02844,0.03049 l 2.69423,0.213992 -2.38125,0.181957 c -1.36583,0.104365 -3.0582,0.430477 -3.96875,0.764759 -2.20049,0.807853 -3.31175,0.917877 -4.0349,0.399496 z m -27.7151,-2.90957 c -0.727605,-0.196078 -1.658089,-0.484809 -2.067746,-0.641628 -0.409654,-0.156819 -1.243092,-0.29536 -1.852083,-0.307866 -1.090306,-0.02238 -1.095105,-0.02662 -0.313505,-0.27563 0.436563,-0.139089 2.043906,-0.222375 3.571875,-0.185079 2.674805,0.06529 2.839559,0.03607 4.429945,-0.78559 1.495925,-0.772859 4.151334,-1.641377 5.018354,-1.641377 0.80112,0 0.22389,0.483457 -1.34792,1.128953 -1.848841,0.759262 -3.238533,1.537533 -3.29911,1.847609 -0.02132,0.109141 -0.03877,0.312105 -0.03877,0.451033 0,0.138925 -0.446484,0.327916 -0.992187,0.419978 -0.545704,0.09206 -1.170782,0.207592 -1.389063,0.256739 -0.218281,0.04915 -0.992187,-0.07107 -1.71979,-0.267142 z m 19.84448,-8.069741 c -0.7332,-0.765295 -2.64779,-1.639065 -4.61196,-2.104787 -0.73761,-0.174893 -0.79985,-0.228894 -0.28356,-0.246055 0.9673,-0.03215 4.14702,0.680762 5.05367,1.133062 0.66481,0.331653 0.90965,0.336987 1.63445,0.03561 1.23387,-0.513045 3.6506,-0.754549 4.42438,-0.442126 0.5643,0.227846 0.58373,0.269753 0.13229,0.285318 -1.04109,0.0359 -2.46014,0.562195 -3.60186,1.335847 -1.45698,0.987296 -1.80414,0.987692 -2.74741,0.0031 z"
               id="path966" />
            <path
               style="fill:#150301;stroke-width:0.264583"
               d="m -66.603889,136.63313 v -8.29377 l 3.241146,0.10209 c 4.374622,0.1378 12.5041,-0.50533 11.57552,-0.91574 -0.435812,-0.19262 -0.511956,-0.29808 -0.223207,-0.30913 0.305191,-0.0117 0.396236,-0.17743 0.29987,-0.54593 -0.186172,-0.71193 0.677971,-0.71193 1.583034,0 0.687687,0.54093 1.120599,0.6962 0.886918,0.31809 -0.07175,-0.11609 -0.02605,-0.37998 0.101542,-0.58644 0.139762,-0.22614 0.119943,-0.51037 -0.04986,-0.71497 -0.180333,-0.21729 -0.185997,-0.3396 -0.01572,-0.3396 0.146367,0 0.324445,-0.22303 0.395731,-0.49563 0.102499,-0.39195 0.01729,-0.46625 -0.40739,-0.35519 -0.409832,0.10717 -0.483846,0.0522 -0.312545,-0.23198 0.189381,-0.31422 0.156314,-0.31717 -0.21162,-0.0189 -0.52919,0.42898 -0.98842,0.19602 -0.98842,-0.50143 0,-0.28245 -0.133641,-0.51355 -0.296981,-0.51355 -0.492571,0 0.348677,-0.8398 1.22292,-1.22081 0.436619,-0.19028 0.658911,-0.35063 0.493982,-0.35633 -0.38335,-0.0132 -0.672444,-1.06869 -0.292721,-1.06869 0.156151,0 0.206338,-0.0776 0.111526,-0.17238 -0.269367,-0.26937 1.105136,-0.8803 1.613729,-0.71726 0.278014,0.0891 0.342516,0.059 0.165916,-0.0776 -0.158906,-0.12287 -0.260063,-0.61035 -0.224794,-1.08329 0.06896,-0.92468 -0.09245,-1.05077 -0.67738,-0.52917 -0.314377,0.28034 -0.318799,0.26175 -0.02902,-0.12204 0.188024,-0.24903 0.55638,-0.52086 0.818568,-0.60408 0.262189,-0.0832 0.537946,-0.38548 0.612795,-0.6717 0.151632,-0.57985 1.113439,-0.71533 1.346507,-0.18968 0.09841,0.22195 0.138864,0.20019 0.122992,-0.0661 -0.04577,-0.76802 0.04181,-1.05834 0.319245,-1.05834 0.154109,0 0.206614,0.11907 0.116677,0.26459 -0.262564,0.42484 0.120368,0.30772 1.017489,-0.3112 1.180885,-0.81467 2.273814,-1.88541 2.282453,-2.2361 0.004,-0.16408 0.188177,-0.4484 0.409188,-0.63182 0.328675,-0.27278 0.496049,-0.24824 0.919289,0.13479 0.44812,0.40554 0.625468,0.42354 1.323629,0.13435 1.007975,-0.41751 1.246862,-0.75664 0.421907,-0.59894 -0.550566,0.10525 -0.606046,0.038 -0.486166,-0.5891 0.10192,-0.53315 0.25731,-0.676 0.629496,-0.57867 0.271796,0.0711 0.494173,0.0213 0.494173,-0.11058 0,-0.1319 -0.267891,-0.25363 -0.595312,-0.27051 -0.447985,-0.0231 -0.480724,-0.0606 -0.132292,-0.15169 0.254661,-0.0666 0.463021,-0.23133 0.463021,-0.36618 0,-0.13486 0.185621,-0.24519 0.41249,-0.24519 0.22687,0 0.342138,-0.11383 0.256152,-0.25296 -0.08599,-0.13913 0.144891,-0.45033 0.513058,-0.69156 0.560314,-0.36713 0.91739,-0.39612 2.191245,-0.17788 0.837015,0.1434 1.194424,0.27601 0.794242,0.29469 -1.305597,0.0609 -0.715473,1.08992 0.766191,1.33599 0.89544,0.14872 1.018474,0.25707 1.009317,0.88887 -0.0057,0.39574 0.06995,0.71952 0.168193,0.71952 0.37651,0 1.546616,-0.72097 1.403072,-0.86451 -0.08302,-0.083 0.09737,-0.28385 0.400878,-0.44628 0.303506,-0.16243 0.559374,-0.20184 0.5686,-0.0876 0.0092,0.11426 0.12445,-0.0601 0.256056,-0.38757 0.131609,-0.32742 0.369213,-0.59531 0.52801,-0.59531 0.158801,0 0.22769,0.0988 0.153091,0.21946 -0.170296,0.27555 0.654577,0.22689 1.12949,-0.0666 0.295384,-0.18256 0.294611,-0.26085 -0.0047,-0.47064 -0.290095,-0.20337 -0.282824,-0.22983 0.0379,-0.13792 0.218281,0.0626 0.365537,0.29387 0.327236,0.51402 -0.09023,0.51865 0.616088,1.13559 0.85589,0.74758 0.120166,-0.19443 0.328568,-0.1943 0.692425,5.3e-4 0.657178,0.35171 0.38013,0.86097 -0.343453,0.63131 -0.340881,-0.10819 -0.477609,-0.0704 -0.370765,0.10249 0.0931,0.15063 -0.0984,0.35883 -0.425543,0.46266 l -0.594807,0.18878 0.605792,0.2241 c 0.454557,0.16815 0.803643,0.0778 1.398294,-0.36182 0.586433,-0.43357 0.844426,-0.5019 0.992198,-0.2628 0.346364,0.56043 3.987094,0.45111 4.575427,-0.13738 0.495667,-0.49581 1.030366,-0.4115 0.83902,0.13229 -0.124907,0.35497 -0.08733,0.39342 0.161036,0.16476 0.427064,-0.39317 2.147673,-0.0105 2.459693,0.54706 0.18478,0.33018 0.345517,0.35588 0.778066,0.12439 0.427686,-0.22889 0.738248,-0.1878 1.441082,0.19071 0.961311,0.5177 1.158626,0.89131 0.470726,0.89131 -0.252529,0 -0.368364,0.14806 -0.285258,0.36463 0.187896,0.48966 -0.309129,0.94966 -0.843156,0.78036 -0.359246,-0.1139 -0.367244,-0.0916 -0.04816,0.1345 0.249978,0.17711 0.548073,0.18254 0.859895,0.0156 0.456798,-0.24447 0.729687,0.1071 0.27884,0.35923 -0.109141,0.061 -0.05342,0.0762 0.123817,0.0336 0.177241,-0.0426 0.392628,0.0365 0.478636,0.17565 0.270666,0.43795 1.448067,0.29591 1.448067,-0.17469 0,-0.31356 -0.176538,-0.39397 -0.661458,-0.30127 -0.363802,0.0695 -0.659635,0.0537 -0.657408,-0.0353 0.0227,-0.90617 2.112616,-1.47017 2.112616,-0.57014 0,0.48701 1.199351,1.17745 1.6073281,0.9253 0.1346147,-0.0832 0.2447555,-0.0289 0.2447555,0.12063 0,0.14954 0.1785937,0.20336 0.396875,0.1196 0.2182812,-0.0838 0.396875,-0.0205 0.396875,0.14059 0,0.16109 0.1375145,0.29289 0.3055911,0.29289 0.1721088,0 0.09394,-0.23387 -0.1789563,-0.53541 -0.3612012,-0.39913 -0.40817,-0.6118 -0.1845124,-0.83546 0.3683264,-0.36833 1.1162109,0.15825 1.1162109,0.78591 0,0.28562 0.2316374,0.17694 0.7697126,-0.36114 0.8182927,-0.81829 0.8282834,-1.17056 0.033192,-1.17056 -0.3585183,0 -0.451903,-0.14103 -0.3504009,-0.52917 0.07611,-0.29104 0.3584311,-0.52917 0.62738,-0.52917 0.268949,0 0.6227895,-0.24999 0.7863099,-0.55553 0.2162572,-0.40408 0.4768744,-0.52121 0.9559475,-0.42963 0.5026686,0.0961 0.7255722,-0.021 0.9413108,-0.4945 0.1554718,-0.34123 0.3761025,-0.56267 0.4902887,-0.4921 0.1141863,0.0706 0.2725817,0.0232 0.3519911,-0.1053 0.082288,-0.13314 0.6573652,-0.11622 1.3372147,0.0393 0.90412096,0.20689 1.45647835,0.18595 2.28210268,-0.0865 0.97767242,-0.32266 1.11496212,-0.31358 1.34004842,0.0886 0.1379299,0.24647 0.430485,0.44812 0.6501236,0.44812 0.2196385,0 0.3355922,-0.10315 0.257675,-0.22922 -0.077917,-0.12607 0.1141148,-0.45349 0.4267412,-0.7276 0.3126237,-0.27411 0.4700137,-0.33116 0.3497553,-0.12677 -0.1623695,0.27595 -0.1229968,0.31192 0.1529557,0.13973 0.7992771,-0.49874 2.0813288,-0.55887 2.3583634,-0.11062 0.100256,0.16222 0.1268545,0.5849 0.059108,0.9393 -0.089429,0.46782 -0.00598,0.64435 0.3045433,0.64435 0.4119536,0 0.5397897,0.28569 0.4462833,0.99736 -0.032501,0.24736 0.237826,0.29081 1.0255514,0.16485 0.6860593,-0.1097 1.2083759,-0.0559 1.4564043,0.1499 0.2126932,0.17652 0.4998931,0.251 0.6382171,0.16551 0.142584,-0.0881 0.190254,0.0788 0.110075,0.38537 -0.09172,0.35072 -0.02492,0.51359 0.190039,0.46338 0.182304,-0.0426 0.387763,0.0766 0.456576,0.26486 0.09244,0.25287 -0.06472,0.29462 -0.601702,0.15985 -0.514456,-0.12912 -0.672071,-0.0938 -0.5394486,0.12075 0.1030552,0.16674 0.4291486,0.30317 0.7246566,0.30317 0.574783,0 1.6441,1.09984 1.285452,1.32214 -0.118076,0.0732 0.354859,0.14147 1.050967,0.15173 1.053835,0.0155 1.380913,0.14838 1.954374,0.79375 0.731594,0.82334 0.910524,1.00855 1.752039,1.81357 0.627922,0.60069 0.696203,0.99214 0.135527,0.77699 -0.287557,-0.11035 -0.396875,0.0299 -0.396875,0.50916 0,0.36922 0.191879,0.73509 0.434298,0.82812 0.352459,0.13525 0.374968,0.0952 0.119446,-0.21272 -0.44297,-0.53375 0.08296,-0.79363 0.755772,-0.37346 0.549201,0.34299 0.619646,0.98579 0.145693,1.32943 -0.158123,0.11464 0.01887,0.45632 0.439893,0.84916 0.75501,0.70447 1.440535,0.71654 2.467806,0.0435 0.442182,-0.28973 0.669176,-0.31215 0.893104,-0.0882 0.22393,0.22393 0.300238,0.18828 0.300238,-0.14025 0,-0.60077 0.962115,-1.06978 1.775656,-0.86559 0.367419,0.0922 0.595212,0.24048 0.506206,0.32949 -0.08901,0.089 0.07346,0.32663 0.361045,0.52806 0.419246,0.29366 0.641779,0.30261 1.122797,0.0452 0.329956,-0.17658 0.659452,-0.2746 0.732213,-0.21781 0.07276,0.0568 0.458237,0.43669 0.856618,0.84423 0.531931,0.54416 0.905909,0.70804 1.407956,0.61701 0.869733,-0.15772 2.785105,0.80401 2.593856,1.3024 -0.09334,0.24323 0.01823,0.31961 0.346191,0.23697 0.334256,-0.0842 0.623314,0.12631 0.934635,0.68076 0.37719,0.67177 0.38798,0.80271 0.06615,0.80271 -0.211513,0 -0.384569,0.11906 -0.384569,0.26458 0,0.14552 0.115327,0.26459 0.256281,0.26459 0.140951,0 0.187745,0.17859 0.103984,0.39687 -0.08376,0.21828 -0.01347,0.39688 0.15621,0.39688 0.169677,0 0.253547,0.0893 0.186377,0.19843 -0.06717,0.10915 0.239985,0.22471 0.68257,0.25682 0.442584,0.0321 0.996532,0.23085 1.230992,0.44165 0.755865,0.67958 5.492584,1.04519 10.603553,0.81845 8.565486,-0.38 8.85149,-0.36099 11.213885,0.74537 2.380422,1.11479 3.165266,1.34994 6.372514,1.90923 1.27541,0.22241 3.743893,0.93743 5.485519,1.58893 1.741625,0.65149 4.174934,1.38266 5.407352,1.62481 2.852246,0.56041 3.876022,0.34707 8.17472,-1.70351 l 3.175,-1.51456 4.101042,0.0491 c 2.255573,0.027 12.522442,0.4119 22.815262,0.85527 12.18734,0.52497 18.94106,0.71987 19.36464,0.55883 0.35773,-0.13601 0.77854,-0.48668 0.93513,-0.77927 0.15659,-0.29259 0.43602,-0.47391 0.62097,-0.40294 0.20532,0.0788 0.43557,-0.20839 0.59128,-0.73746 0.19728,-0.67034 0.41972,-0.88545 0.98261,-0.95021 0.40018,-0.0461 0.72761,0.0294 0.72761,0.16757 0,0.47841 0.96337,0.50062 1.53783,0.0354 0.53987,-0.43716 1.77991,-0.43204 1.50905,0.006 -0.0672,0.10872 0.38063,0.0913 0.99516,-0.0387 1.45345,-0.30743 1.47623,-0.30968 2.63868,-0.26085 0.72171,0.0303 0.99219,0.15871 0.99219,0.47095 0,0.33859 0.0785,0.36413 0.37157,0.12091 0.20436,-0.16961 0.66523,-0.23467 1.02415,-0.14459 0.57856,0.14521 0.64411,0.0865 0.57778,-0.51777 -0.0412,-0.37486 0.0291,-0.68157 0.15616,-0.68157 0.12704,0 0.48055,-0.26788 0.78558,-0.59529 l 0.5546,-0.59529 0.50816,0.66144 c 0.27948,0.36379 0.5108,0.51261 0.51403,0.33071 0.01,-0.55994 0.53506,-0.3652 0.53506,0.19834 0,0.29398 0.17639,0.52916 0.39688,0.52916 0.21828,0 0.3671,-0.14883 0.33072,-0.33073 -0.0932,-0.4658 1.34207,-0.47222 1.80621,-0.008 0.21354,0.21355 0.37661,0.2529 0.37661,0.0909 0,-0.46157 0.98289,0.26876 1.30083,0.96658 0.15409,0.33819 0.57701,0.72775 0.93982,0.86569 0.43893,0.16688 0.60761,0.38643 0.50411,0.65614 -0.10635,0.27715 0.005,0.40535 0.35136,0.40535 0.69654,0 1.41529,0.57003 1.51037,1.19787 0.0692,0.45706 0.28933,0.52172 1.77117,0.52034 2.00159,-0.002 2.59151,-0.3606 4.60134,-2.79816 1.80145,-2.18483 2.73896,-2.72803 4.60433,-2.66778 1.88083,0.0608 9.59251,-0.47128 10.54969,-0.72784 0.63104,-0.16914 0.72218,-0.32468 0.72218,-1.23243 0,-0.96804 0.0559,-1.04433 0.81973,-1.11879 0.68986,-0.0673 0.86611,-0.23493 1.11249,-1.05834 l 0.29276,-0.97841 -0.51717,0.62462 c -0.33074,0.39944 -0.51718,0.48896 -0.51718,0.24832 0,-0.20697 -0.23308,-0.62648 -0.51796,-0.93226 -0.44634,-0.4791 -0.46504,-0.59988 -0.1352,-0.87362 0.21051,-0.17471 0.3175,-0.42323 0.23776,-0.55226 -0.0797,-0.12904 0.0108,-0.23643 0.20135,-0.23866 0.27999,-0.003 0.28127,-0.0453 0.007,-0.21959 -0.33859,-0.21484 -0.27012,-0.68435 0.26281,-1.80204 0.31949,-0.67006 1.44039,-0.97617 1.64282,-0.44863 0.18452,0.48084 1.33118,0.45501 1.74136,-0.0392 0.41469,-0.49968 1.16346,-0.51093 1.56795,-0.0236 0.33295,0.40119 -0.0404,0.84271 -0.4819,0.56986 -0.13027,-0.0805 -0.30513,0.0315 -0.38857,0.24897 -0.18189,0.47399 -0.11962,0.48237 0.72492,0.0976 0.62451,-0.28454 0.93466,-0.9315 1.11415,-2.32406 0.0452,-0.3506 0.2208,-0.72314 0.39025,-0.82786 0.22834,-0.14113 0.2209,-0.21946 -0.0287,-0.30267 -0.25814,-0.0861 -0.26701,-0.23256 -0.038,-0.62734 0.18375,-0.31674 0.30191,-0.37525 0.30686,-0.15195 0.007,0.2999 0.0804,0.30312 0.42331,0.0185 0.2284,-0.18955 0.35861,-0.56132 0.28936,-0.82614 -0.15107,-0.57769 0.23247,-0.64992 0.44939,-0.0846 0.1914,0.49878 0.96265,0.5235 0.96265,0.0309 0,-0.20131 0.26269,-0.43472 0.58376,-0.51868 0.73837,-0.19308 0.86337,-0.0711 0.40095,0.39135 -0.19988,0.19988 -0.4435,0.7796 -0.5414,1.28827 -0.12461,0.64754 -0.1,0.80586 0.0822,0.52799 0.22269,-0.33971 0.26074,-0.33019 0.26421,0.0661 0.002,0.25467 0.1306,0.46302 0.28527,0.46302 0.15467,0 0.25013,-0.20835 0.21214,-0.46302 -0.10293,-0.68992 0.56856,-2.47641 0.86252,-2.29473 0.14019,0.0866 0.54312,-0.0313 0.89541,-0.26215 0.76983,-0.50441 1.22701,-0.53921 1.16854,-0.0889 -0.0236,0.1819 -0.027,0.50932 -0.008,0.7276 0.0306,0.34287 0.0684,0.34481 0.27748,0.0143 0.14792,-0.23381 0.14272,-0.56824 -0.0134,-0.8599 -0.16971,-0.31711 -0.16351,-0.47728 0.0185,-0.47728 0.15064,0 0.2503,-0.0893 0.22147,-0.19843 -0.10296,-0.38976 0.35929,-1.39416 0.57911,-1.25831 0.1232,0.0761 0.30268,-0.21978 0.39885,-0.65761 0.12798,-0.5827 0.32877,-0.79832 0.74913,-0.80448 0.31586,-0.005 0.80541,-0.18322 1.08788,-0.39687 0.28248,-0.21366 0.84,-0.38846 1.23894,-0.38846 0.49298,0 0.77916,-0.16953 0.8933,-0.52917 0.10521,-0.33147 0.40033,-0.52917 0.78994,-0.52917 0.34211,0 0.82408,-0.0775 1.07104,-0.17231 0.36361,-0.13953 0.41481,-0.0644 0.26908,0.39473 -0.14052,0.44276 -0.0331,0.63399 0.49032,0.87246 0.36868,0.16798 0.60206,0.41586 0.51864,0.55085 -0.17526,0.28359 0.90853,-0.30391 1.41481,-0.76693 0.45159,-0.41302 0.43055,-0.61421 -0.0642,-0.61421 -0.22283,0 -0.47371,0.17859 -0.55747,0.39687 -0.22003,0.57339 -0.62484,0.48768 -0.62484,-0.13229 0,-0.62901 0.88804,-1.5875 1.47081,-1.5875 0.24263,0 0.33534,0.12485 0.22514,0.30317 -0.13187,0.21336 0.0204,0.25106 0.51353,0.12725 0.41473,-0.10409 0.70093,-0.0658 0.70093,0.0937 0,0.14829 -0.11533,0.26962 -0.25627,0.26962 -0.14097,0 -0.19074,0.17079 -0.11065,0.37954 0.11843,0.30861 0.36526,0.25694 1.32067,-0.27646 0.64627,-0.3608 1.28074,-0.59065 1.40999,-0.51078 0.40394,0.24964 0.11083,1.07122 -0.36698,1.02863 -0.28064,-0.025 -0.5543,0.24533 -0.71501,0.70639 -0.14322,0.41081 -0.45709,0.8224 -0.69752,0.91466 -0.37023,0.14207 -0.37888,0.20372 -0.0565,0.40295 0.42664,0.26368 1.14449,-0.17718 0.90898,-0.55824 -0.20174,-0.32642 0.2495,-0.29467 0.58536,0.0412 0.19135,0.19134 0.37952,0.15083 0.61447,-0.13229 0.45924,-0.55335 0.68967,-0.51289 0.68967,0.12108 0,0.29104 -0.0935,0.52916 -0.20789,0.52916 -0.11432,0 -0.17811,0.11066 -0.14173,0.24591 0.0364,0.13525 -0.17198,0.42489 -0.46303,0.64365 -0.40724,0.3061 -0.45733,0.47063 -0.21732,0.71415 0.24116,0.24472 0.47093,0.14383 1.01398,-0.44521 0.38619,-0.41889 1.25791,-0.95049 1.93713,-1.18134 1.37297,-0.46661 1.61604,-0.89674 0.51726,-0.91535 -0.39474,-0.007 -0.80153,-0.096 -0.90401,-0.19844 -0.10244,-0.10246 0.16696,-0.18628 0.59865,-0.18628 0.43172,0 0.91911,0.13415 1.08307,0.29812 0.32451,0.32453 1.65979,0.10433 1.65979,-0.27372 0,-0.12655 -0.39852,-0.30486 -0.88559,-0.39623 -0.60524,-0.11355 -1.00036,-0.39506 -1.24828,-0.88934 -0.19947,-0.39777 -0.39761,-0.78675 -0.44029,-0.86441 -0.0427,-0.0777 1.07529,-0.1372 2.48444,-0.1323 1.40911,0.005 2.36294,0.0474 2.11963,0.0945 -0.24334,0.047 -0.44241,0.30663 -0.44241,0.57685 0,0.41736 0.11654,0.45787 0.77446,0.26918 0.61272,-0.17572 0.86995,-0.11661 1.23163,0.28305 0.26649,0.29448 0.32973,0.50517 0.15158,0.50517 -0.16809,0 -0.30559,0.11193 -0.30559,0.24873 0,0.36675 1.39525,0.19575 1.5227,-0.18662 0.0599,-0.17968 -0.009,-0.32669 -0.15258,-0.32669 -0.33534,0 -1.73342,-2.37073 -1.52249,-2.58167 0.0874,-0.0874 0.52395,0.11105 0.97017,0.44095 0.44622,0.3299 0.8813,0.5298 0.96689,0.44422 0.0856,-0.0856 0.0294,-0.15559 -0.12477,-0.15559 -0.43937,0 -0.6581,-0.85925 -0.27983,-1.09927 0.18685,-0.11855 0.41929,-0.21736 0.51655,-0.21959 0.32541,-0.007 1.31789,1.83461 1.14189,2.11938 -0.0955,0.15455 -0.0266,0.45817 0.15309,0.67471 0.28421,0.34247 0.22804,0.35619 -0.43157,0.1054 -0.41709,-0.15858 -0.93056,-0.43026 -1.14104,-0.60374 -0.32782,-0.27018 -0.33724,-0.23003 -0.0655,0.27988 0.17447,0.32743 0.54695,0.59532 0.82775,0.59532 0.2808,0 0.63799,0.23812 0.79375,0.52916 0.36592,0.68373 0.79314,0.68373 0.66146,0 -0.14222,-0.73848 0.45291,-0.67048 1.44608,0.16522 0.45386,0.38191 0.90231,0.61729 0.99652,0.52308 0.0942,-0.0942 -0.0596,-0.33748 -0.34189,-0.54059 -0.28226,-0.2031 -0.75134,-0.55163 -1.04238,-0.7745 -0.52022,-0.39838 -0.51911,-0.40269 0.0661,-0.25523 0.37473,0.0944 0.59531,0.03 0.59531,-0.17376 0,-0.19445 0.18492,-0.25822 0.46302,-0.15967 0.29414,0.10424 0.22177,-0.0392 -0.19844,-0.39319 -0.49691,-0.41865 -0.53792,-0.51711 -0.16491,-0.39579 0.27313,0.0888 0.63031,0.0563 0.79375,-0.0722 0.61727,-0.48527 1.85436,-0.53045 2.19686,-0.0802 0.29811,0.39184 0.33335,0.37547 0.34089,-0.15828 0.007,-0.52126 -0.12557,-0.59531 -1.06881,-0.59531 -0.60476,0 -1.25132,-0.17407 -1.47413,-0.39688 -0.35277,-0.35277 -0.34872,-0.39687 0.0363,-0.39687 0.23826,0 0.66347,0.12325 0.94494,0.27389 0.28149,0.15064 0.51178,0.19353 0.51178,0.0953 0,-0.38708 -0.96864,-0.88198 -1.74183,-0.88996 -1.11665,-0.0115 -1.24042,-0.22272 -0.63162,-1.07772 0.59717,-0.83862 0.66972,-1.47257 0.19064,-1.66588 -0.1819,-0.0734 -0.0867,-0.14285 0.21166,-0.15434 0.29832,-0.0115 0.70017,0.12794 0.89297,0.30984 0.27176,0.25638 0.37706,0.2587 0.46839,0.0104 0.0716,-0.19479 0.39741,-0.26448 0.83101,-0.17776 0.98536,0.19707 2.24102,-0.78292 2.02313,-1.57896 -0.15467,-0.56515 -0.1524,-0.56498 0.36375,0.0266 0.61508,0.70495 0.95713,0.77523 0.71612,0.14713 -0.15636,-0.40743 -0.12885,-0.41109 0.30242,-0.0403 0.99328,0.85413 1.29792,0.91035 0.79902,0.14747 -0.25802,-0.39459 -0.36007,-0.7174 -0.22675,-0.7174 0.1333,0 0.3138,0.18614 0.40108,0.41364 0.0873,0.22751 0.273,0.34304 0.41265,0.25673 0.13962,-0.0863 0.43336,0.17405 0.65273,0.57855 0.26379,0.48644 0.40243,0.58557 0.40944,0.29278 0.0111,-0.45872 1.46473,-2.07087 1.8674,-2.07087 0.12573,0 0.31359,-0.13746 0.41741,-0.30546 0.11697,-0.18926 0.0726,-0.23365 -0.11668,-0.11668 -0.16801,0.10383 -0.30546,0.0706 -0.30546,-0.0738 0,-0.14444 -0.2679,-0.315121 -0.59532,-0.379291 -0.32742,-0.06417 0.16968,-0.06901 1.10466,-0.01077 1.18793,0.074 1.76448,0.0042 1.91419,-0.231638 0.1648,-0.259731 0.21941,-0.246052 0.23685,0.05934 0.0154,0.268399 0.0973,0.225574 0.25321,-0.132291 0.22645,-0.519705 0.23365,-0.518994 0.40227,0.03989 0.16775,0.55593 1.43142,1.03938 1.71056,0.65441 0.0731,-0.10087 0.31154,-0.16766 0.52983,-0.14842 0.83436,0.0735 0.90027,0.18417 0.20574,0.34532 -1.284,0.29792 -0.45713,0.86065 1.34201,0.9133 0.89422,0.0262 1.62616,0.13688 1.62656,0.24602 0,0.10914 0.4174,0.19844 0.92673,0.19844 0.50932,0 0.92604,-0.10255 0.92604,-0.2279 0,-0.12534 0.2845,-0.1735 0.63222,-0.10703 0.35481,0.0678 0.95983,-0.0934 1.37882,-0.36742 0.41064,-0.26855 0.6626,-0.35192 0.55994,-0.18527 -0.10279,0.16681 0,0.37493 0.23029,0.46302 0.62603,0.24023 0.8223,0.18531 0.37373,-0.10457 -0.34203,-0.22103 -0.33504,-0.25704 0.0505,-0.26053 0.54616,-0.005 0.8481,0.44109 0.89281,1.31886 0.0185,0.36381 0.052,0.79983 0.0743,0.96894 0.0225,0.16911 0.54668,0.39129 1.16514,0.49374 0.61846,0.10245 1.33284,0.2957 1.5875,0.42944 0.32745,0.17197 0.46302,0.14315 0.46302,-0.0984 0,-0.18787 -0.36589,-0.50355 -0.81309,-0.7015 l -0.81309,-0.35991 0.8754,-0.7308 c 0.99817,-0.83331 1.32837,-0.79502 1.8239,0.21152 l 0.35108,0.71305 0.10679,-0.64664 c 0.0662,-0.40075 -0.0642,-0.77165 -0.34288,-0.97542 -0.2473,-0.18083 -0.39999,-0.47771 -0.33933,-0.65974 0.076,-0.22799 0.28742,-0.15389 0.67945,0.23816 0.37098,0.37098 0.6313,0.46854 0.74769,0.28022 0.11742,-0.18998 0.26112,-0.14137 0.41968,0.14194 0.30237,0.5403 0.74398,0.56047 0.74398,0.034 0,-0.27616 0.2779,-0.39688 0.91358,-0.39688 0.94414,0 2.26142,0.46913 2.26142,0.80536 0,0.10519 0.25358,0.25757 0.56354,0.33862 0.35449,0.0927 0.50911,0.28918 0.41683,0.52965 -0.0807,0.21026 0.0217,0.6226 0.22735,0.91631 0.33827,0.48296 0.32658,0.52161 -0.12239,0.4042 -0.61606,-0.16111 -0.83095,0.17019 -0.94936,1.46356 -0.0811,0.88575 0.005,1.06747 0.69533,1.47551 1.08307,0.63979 1.71505,2.26887 0.88019,2.26887 -0.22283,0 -0.47488,0.18164 -0.56007,0.40363 -0.12192,0.31776 -0.2353,0.33689 -0.5329,0.0899 -0.20791,-0.17255 -0.30903,-0.49349 -0.22471,-0.7132 0.17164,-0.44731 -0.28435,-0.82848 -0.99843,-0.83461 -0.37671,-0.003 -0.41759,0.0897 -0.20201,0.45897 0.6481,1.11006 1.55665,1.94534 2.2534,2.07169 0.41347,0.075 0.96364,0.24971 1.22262,0.3883 0.63182,0.33815 0.77872,0.31747 0.62322,-0.0877 -0.10094,-0.26303 0.30419,-0.31613 1.79425,-0.2352 1.05852,0.0575 2.1032,0.21677 2.32148,0.35395 0.27932,0.17553 0.12255,0.21686 -0.52917,0.13953 -0.77933,-0.0925 -0.8459,-0.0633 -0.42008,0.18423 0.27826,0.16176 0.72475,0.50247 0.99219,0.75713 0.26741,0.25466 0.73237,0.46302 1.03322,0.46302 0.44577,0 0.51271,-0.11017 0.36172,-0.59531 l -0.18529,-0.59532 0.58594,0.5236 0.58598,0.5236 -0.6831,0.54467 c -0.88345,0.70444 -0.94052,1.78879 -0.0878,1.66768 0.47387,-0.0673 0.66196,0.10437 0.92205,0.84149 0.4544,1.28777 0.43516,1.33041 -0.45903,1.01869 -0.43656,-0.15219 -0.79375,-0.44592 -0.79375,-0.65273 0,-0.26409 -0.18774,-0.32892 -0.63063,-0.21776 -0.34684,0.0871 -1.09098,0.0346 -1.65365,-0.11666 -0.92294,-0.24804 -0.97276,-0.23715 -0.50942,0.11135 0.28249,0.21246 0.66944,0.38628 0.85989,0.38628 0.19047,0 0.33221,0.0893 0.31499,0.19844 -0.0955,0.60487 0.12872,0.81777 1.02351,0.97179 2.26132,0.38924 2.48462,0.4678 2.34728,0.8257 -0.14528,0.37858 0.49067,1.85591 0.91062,2.11547 0.13631,0.0842 0.24783,0.38426 0.24783,0.66672 0,0.37934 -0.19015,0.51841 -0.7276,0.53215 -0.40019,0.0102 -0.95703,0.10846 -1.23743,0.21831 -0.89511,0.35066 0.16925,0.54626 2.23393,0.41053 1.98697,-0.13062 3.04998,0.18346 2.80262,0.82806 -0.10787,0.28111 0.0882,0.37658 0.77325,0.37658 h 0.91773 v 10.71563 l -0.0137,24.25792 H 102.71574 -66.617592 Z m 18.713758,-10.38692 c -0.08792,-0.0879 -0.316122,-0.0973 -0.507118,-0.0209 -0.211067,0.0845 -0.148372,0.14716 0.159853,0.15985 0.278915,0.0115 0.435184,-0.051 0.347265,-0.13896 z m 65.054427,-2.14974 c -0.268954,-0.26895 -0.490868,0.13597 -0.270198,0.49302 0.166696,0.26972 0.229018,0.26993 0.318638,0.001 0.06128,-0.18383 0.03948,-0.40617 -0.04844,-0.49409 z m -0.68902,-0.0717 c 0,-0.14552 -0.119062,-0.26458 -0.264583,-0.26458 -0.145521,0 -0.264584,0.11906 -0.264584,0.26458 0,0.14552 0.119063,0.26459 0.264584,0.26459 0.145521,0 0.264583,-0.11907 0.264583,-0.26459 z m 1.5875,-0.24294 c 0,-0.54279 -0.343093,-1.07997 -0.689766,-1.07997 -0.457756,0 -0.475316,0.43025 -0.03784,0.92714 0.381172,0.43294 0.727604,0.5057 0.727604,0.15283 z m 160.998954,-0.28622 c 0.0899,-0.14552 0.0445,-0.26459 -0.10106,-0.26459 -0.14552,0 -0.33817,0.11907 -0.42811,0.26459 -0.0899,0.14552 -0.0444,0.26458 0.10107,0.26458 0.14552,0 0.33816,-0.11906 0.4281,-0.26458 z m 0.52917,-0.79375 c 0.0899,-0.14552 0.0445,-0.26459 -0.10107,-0.26459 -0.14552,0 -0.33816,0.11907 -0.4281,0.26459 -0.0899,0.14552 -0.0445,0.26458 0.10106,0.26458 0.14552,0 0.33817,-0.11906 0.42811,-0.26458 z m -189.986273,-2.8994 c -0.161697,-0.1617 -0.396552,-0.1617 -0.648229,0 -0.349829,0.22476 -0.349829,0.28237 0,0.50713 0.484815,0.31149 1.035796,-0.11957 0.648229,-0.50713 z m -1.447429,-0.55052 c -0.49919,-0.3157 -0.786088,-0.31901 -0.786088,-0.009 0,0.25137 0.826693,0.52927 1.050671,0.35319 0.06855,-0.0539 -0.05052,-0.20874 -0.264583,-0.34412 z m 2.6534952,0.43552 c 0,-0.0572 -0.1785937,-0.17252 -0.396875,-0.25628 -0.2182812,-0.0838 -0.396875,-0.037 -0.396875,0.10398 0,0.14095 0.1785938,0.25628 0.396875,0.25628 0.2182813,0 0.396875,-0.0468 0.396875,-0.10398 z m 25.3999998,-0.93874 c 0,-0.31217 -0.51603,-0.64611 -0.705557,-0.45659 -0.189523,0.18953 0.144418,0.70556 0.456589,0.70556 0.136933,0 0.248968,-0.11204 0.248968,-0.24897 z M -11.04139,117.8071 c 0,-0.21828 -0.15875,-0.39687 -0.352777,-0.39687 -0.19403,0 -0.35278,0.17859 -0.35278,0.39687 0,0.21829 0.15875,0.39688 0.35278,0.39688 0.194027,0 0.352777,-0.17859 0.352777,-0.39688 z m 273.26375,-0.73143 c 0.0448,-0.22928 -0.0742,-0.39327 -0.26458,-0.36444 -0.56015,0.0849 -1.02696,0.45348 -0.87847,0.69372 0.22378,0.36209 1.05471,0.12272 1.14305,-0.32928 z m -304.815312,-1.93424 c 0,-0.40806 -0.09633,-0.58498 -0.240184,-0.44112 -0.132101,0.1321 -0.164011,0.43869 -0.07091,0.6813 0.234798,0.61188 0.311095,0.55297 0.311095,-0.24018 z m 247.708472,-1.68962 c 0.21407,-0.13537 0.32041,-0.31495 0.23632,-0.39905 -0.20844,-0.20842 -1.0224,0.12359 -1.0224,0.41703 0,0.30156 0.29136,0.2949 0.78608,-0.018 z m -220.120352,-0.4136 c 0.371088,-0.44714 0.317849,-0.57758 -0.269891,-0.66126 -0.746109,-0.10622 -1.058334,0.006 -1.058334,0.38102 0,0.33203 0.335571,0.60074 0.827501,0.66262 0.09132,0.0115 0.316648,-0.16058 0.500724,-0.38238 z m -7.995725,-0.17881 c 0.382543,-0.38255 0.412637,-0.74084 0.06223,-0.74084 -0.140401,0 -0.382714,0.23813 -0.538475,0.52917 -0.31189,0.58277 -0.02318,0.71109 0.47625,0.21167 z M 262.0086,112.78 c 0,-0.21828 -0.11906,-0.39687 -0.26458,-0.39687 -0.14552,0 -0.26458,0.17859 -0.26458,0.39687 0,0.21828 0.11906,0.39688 0.26458,0.39688 0.14552,0 0.26458,-0.1786 0.26458,-0.39688 z m -288.991173,-0.55125 c -0.252134,-0.25214 -0.757631,0.15626 -0.569727,0.4603 0.111686,0.18071 0.259678,0.17614 0.449696,-0.0139 0.155777,-0.15577 0.209791,-0.35666 0.120031,-0.44642 z m 236.486543,0.3083 c 0.28226,-0.20638 0.42389,-0.46453 0.31475,-0.57366 -0.2568,-0.25681 -1.54654,0.42817 -1.36361,0.7242 0.19659,0.31807 0.45961,0.28032 1.04886,-0.15054 z M -33.001806,111.5894 c 0,-0.14552 -0.178594,-0.26459 -0.396875,-0.26459 -0.218282,0 -0.396875,0.11907 -0.396875,0.26459 0,0.14552 0.178593,0.26458 0.396875,0.26458 0.218281,0 0.396875,-0.11906 0.396875,-0.26458 z m 294.348956,0 c 0.0899,-0.14552 0.0374,-0.26459 -0.11669,-0.26459 -0.15409,0 -0.28019,0.11907 -0.28019,0.26459 0,0.14552 0.0525,0.26458 0.11668,0.26458 0.0642,0 0.19026,-0.11906 0.2802,-0.26458 z m -61.41995,-0.39688 c 0.0838,-0.21828 0.088,-0.39687 0.01,-0.39687 -0.0786,0 -0.32149,0.17859 -0.53978,0.39687 -0.34419,0.34421 -0.34544,0.39688 -0.009,0.39688 0.2131,0 0.45599,-0.1786 0.53975,-0.39688 z m -1.47151,-0.44979 c 0.43418,-0.43418 0.39981,-1.00542 -0.0605,-1.00542 -0.20789,0 -0.57387,0.1959 -0.8133,0.43533 -0.35162,0.35162 -0.36797,0.47802 -0.085,0.6574 0.46788,0.29665 0.58557,0.28593 0.95882,-0.0873 z m -235.955413,-0.21167 c 0,-0.14552 -0.12609,-0.26458 -0.280199,-0.26458 -0.154109,0 -0.206613,0.11906 -0.116676,0.26458 0.08994,0.14552 0.216027,0.26459 0.280199,0.26459 0.06417,0 0.116676,-0.11907 0.116676,-0.26459 z m 259.027083,-0.79375 c -0.51816,-0.33485 -0.86842,-0.33485 -0.66146,0 0.0899,0.14552 0.36486,0.26276 0.61092,0.26054 0.38558,-0.004 0.39256,-0.0395 0.0505,-0.26054 z m -9.525,-0.26458 c 0,-0.14552 -0.11907,-0.26458 -0.26459,-0.26458 -0.14552,0 -0.26458,0.11906 -0.26458,0.26458 0,0.14552 0.11906,0.26458 0.26458,0.26458 0.14552,0 0.26459,-0.11906 0.26459,-0.26458 z m -0.8654,-0.42444 c -0.0879,-0.0879 -0.31613,-0.0973 -0.50713,-0.0209 -0.21106,0.0845 -0.14838,0.14715 0.15986,0.15985 0.2789,0.0115 0.43519,-0.0511 0.34727,-0.13897 z m 12.90394,-3.80889 c -0.0899,-0.14552 -0.28258,-0.26459 -0.4281,-0.26459 -0.14552,0 -0.191,0.11907 -0.10107,0.26459 0.0899,0.14552 0.28258,0.26458 0.4281,0.26458 0.14552,0 0.191,-0.11906 0.10107,-0.26458 z m 1.03021,-1.7419 c 0.0989,-0.25768 0.0397,-0.37864 -0.1536,-0.3142 -0.39552,0.13184 -0.61327,0.73318 -0.2655,0.73318 0.14208,0 0.33067,-0.18854 0.4191,-0.41898 z m 15.24166,-0.11019 c 0,-0.29398 0.1764,-0.52916 0.39688,-0.52916 0.21828,0 0.39687,-0.10633 0.39687,-0.23628 0,-0.29245 -0.76594,-0.6059 -1.05061,-0.42995 -0.25966,0.16047 -0.51125,1.39742 -0.32263,1.58605 0.3003,0.3003 0.57949,0.11209 0.57949,-0.39066 z m 11.38015,-0.788 c -0.17078,-0.31913 -0.36621,-0.52455 -0.43426,-0.4565 -0.068,0.068 -0.0433,0.44415 0.055,0.83578 0.11494,0.45792 0.26993,0.62085 0.43426,0.4565 0.16436,-0.16434 0.14473,-0.46264 -0.055,-0.83578 z m -15.3489,-1.06408 c 0,-0.14552 -0.18563,-0.26458 -0.41248,-0.26458 -0.22688,0 -0.33891,0.11906 -0.24898,0.26458 0.0899,0.14552 0.27557,0.26458 0.41249,0.26458 0.13695,0 0.24897,-0.11906 0.24897,-0.26458 z m -0.52916,-0.52917 c 0.32265,-0.20851 0.28847,-0.25724 -0.18283,-0.26053 -0.31882,-0.002 -0.65328,0.11501 -0.74322,0.26053 -0.2082,0.33687 0.40479,0.33687 0.92605,0 z m 31.87141,20.88448 c -0.28477,-0.46075 0.0396,-0.55833 0.40243,-0.12108 0.20871,0.25146 0.22879,0.40327 0.0533,0.40327 -0.15475,0 -0.35986,-0.12698 -0.45577,-0.28219 z M -34.374332,109.55657 c 0.190994,-0.0764 0.419198,-0.067 0.507119,0.0209 0.08792,0.0879 -0.06835,0.15045 -0.347266,0.13896 -0.308226,-0.0127 -0.370919,-0.0754 -0.159853,-0.15985 z m 291.085952,-3.66211 c -0.48638,-0.58606 -0.2096,-0.65343 0.33605,-0.0818 0.25466,0.26679 0.35853,0.48507 0.23082,0.48507 -0.12769,0 -0.38277,-0.18147 -0.56687,-0.40327 z m 0.79907,-0.93526 c 0,-0.15411 0.11906,-0.20662 0.26458,-0.11668 0.14552,0.0899 0.26458,0.21603 0.26458,0.2802 0,0.0642 -0.11906,0.11668 -0.26458,0.11668 -0.14552,0 -0.26458,-0.12609 -0.26458,-0.2802 z m -27.64896,-4.4823 c -0.0899,-0.14552 -0.0374,-0.26459 0.11668,-0.26459 0.15409,0 0.2802,0.11907 0.2802,0.26459 0,0.14552 -0.0525,0.26458 -0.11669,0.26458 -0.0642,0 -0.19026,-0.11906 -0.28019,-0.26458 z M 121.30319,74.23023 c -0.17462,-0.174625 -0.3175,-0.509537 -0.3175,-0.744249 0,-0.940464 -2.07379,-2.335053 -4.7625,-3.202699 -1.76147,-0.568425 -0.78528,-0.672097 1.19063,-0.126442 1.70022,0.469527 2.92568,1.003996 4.67706,2.039832 1.40707,0.832199 1.41185,0.832953 5.24481,0.826889 3.58735,-0.0057 3.69043,0.0076 1.5875,0.204343 -1.23693,0.115729 -2.9038,0.459973 -3.70417,0.764987 -1.61384,0.615027 -3.42818,0.724993 -3.91583,0.237339 z m -28.989516,-3.241799 -1.816809,-0.596077 1.114737,-0.149519 c 0.613106,-0.08223 1.763429,-0.08257 2.556272,-7.93e-4 1.306404,0.134834 1.664441,0.04285 3.819427,-0.981253 1.368311,-0.650256 2.907869,-1.179417 3.626159,-1.246349 1.24824,-0.116316 1.2482,-0.116284 -1.19912,1.076212 -1.554496,0.757451 -2.447399,1.345401 -2.447399,1.611534 0,1.056437 -2.863733,1.20141 -5.653267,0.28619 z m 22.322016,-6.959978 c -0.21828,-0.07096 -0.75824,-0.470144 -1.1999,-0.887069 -0.44166,-0.416927 -1.4537,-0.996854 -2.24896,-1.28873 l -1.44593,-0.53068 1.19062,0.161126 c 0.65485,0.08862 1.7526,0.372711 2.43944,0.631312 1.09691,0.412991 1.37047,0.426781 2.24896,0.113363 0.55008,-0.196249 1.71452,-0.358158 2.58765,-0.359793 l 1.5875,-0.003 -1.38968,0.480082 c -0.76433,0.264043 -1.59777,0.661577 -1.85209,0.883404 -0.7131,0.621995 -1.48041,0.942094 -1.91761,0.799962 z"
               id="path968" />
          </g>
        </g>
      </g>
    </g>
  </g>
</svg>
