<?xml version="1.0" encoding="UTF-8" standalone="no"?>
<svg
   xmlns:dc="http://purl.org/dc/elements/1.1/"
   xmlns:cc="http://creativecommons.org/ns#"
   xmlns:rdf="http://www.w3.org/1999/02/22-rdf-syntax-ns#"
   xmlns:svg="http://www.w3.org/2000/svg"
   xmlns="http://www.w3.org/2000/svg"
   xmlns:sodipodi="http://sodipodi.sourceforge.net/DTD/sodipodi-0.dtd"
   xmlns:inkscape="http://www.inkscape.org/namespaces/inkscape"
   width="451.556mm"
   height="45mm"
   viewBox="0 0 451.556 45"
   version="1.1"
   id="svg8"
   inkscape:version="1.0.2 (e86c870, 2021-01-15)"
   sodipodi:docname="divider-argile.svg">
  <defs
     id="defs2">
    <clipPath
       clipPathUnits="userSpaceOnUse"
       id="clipPath852">
      <rect
         style="fill:none;stroke:#000000;stroke-width:0.999135;stroke-linejoin:bevel;stroke-miterlimit:4;stroke-dasharray:none;stroke-opacity:1;paint-order:stroke markers fill"
         id="rect854"
         width="451.89908"
         height="70.965294"
         x="-183.41457"
         y="5.5045657" />
    </clipPath>
  </defs>
  <sodipodi:namedview
     id="base"
     pagecolor="#ffffff"
     bordercolor="#666666"
     borderopacity="1.0"
     inkscape:pageopacity="0.0"
     inkscape:pageshadow="2"
     inkscape:zoom="0.35"
     inkscape:cx="482.77702"
     inkscape:cy="134.90137"
     inkscape:document-units="mm"
     inkscape:current-layer="layer1"
     inkscape:document-rotation="0"
     showgrid="false"
     inkscape:window-width="1588"
     inkscape:window-height="1016"
     inkscape:window-x="245"
     inkscape:window-y="45"
     inkscape:window-maximized="0" />
  <metadata
     id="metadata5">
    <rdf:RDF>
      <cc:Work
         rdf:about="">
        <dc:format>image/svg+xml</dc:format>
        <dc:type
           rdf:resource="http://purl.org/dc/dcmitype/StillImage" />
        <dc:title></dc:title>
      </cc:Work>
    </rdf:RDF>
  </metadata>
  <g
     inkscape:label="Calque 1"
     inkscape:groupmode="layer"
     id="layer1">
    <g
       id="g860"
       transform="translate(148.80809,7.8008709)">
      <path
         style="fill:#861f0b;stroke-width:0.352778"
         d="m -148.80667,16.298911 1.3236,-0.211656 c 6.51139,-1.041213 37.24647,-3.463565 54.768064,-4.31649 l 4.762501,-0.231828 7.761111,2.476444 c 4.268611,1.362043 9.705559,3.05465 12.082107,3.761345 l 4.320995,1.284901 21.431783,-0.10353 21.431784,-0.103529 4.056944,-1.366291 c 2.23132,-0.751459 9.148717,-3.394608 15.3719924,-5.873666 C 11.786242,6.3236852 19.514274,3.6818841 27.356055,1.7517133 c 12.504942,-3.0779545 18.719232,-3.618029 38.149778,-3.3155397 16.088861,0.2504687 22.525775,-0.071639 28.927779,-1.4475602 7.574198,-1.6278543 23.308248,-3.2858182 41.980558,-4.4236747 7.94442,-0.484117 26.87601,-0.4887489 31.75,-0.00776 5.33112,0.526094 5.74408,0.6181619 23.28333,5.1911075 35.16881,9.1694356 54.60196,14.9272558 65.26389,19.3369538 l 4.58612,1.896777 19.40277,1.789726 c 10.67153,0.984349 19.99778,1.828797 20.72499,1.876556 l 1.32221,0.08683 V 37.199027 H 76.9697 -148.80809 Z"
         id="path862"
         sodipodi:nodetypes="csscsscccssssssssscssccccc" />
    </g>
  </g>
</svg>
