<?xml version="1.0" encoding="UTF-8" standalone="no"?>
<svg
   xmlns:dc="http://purl.org/dc/elements/1.1/"
   xmlns:cc="http://creativecommons.org/ns#"
   xmlns:rdf="http://www.w3.org/1999/02/22-rdf-syntax-ns#"
   xmlns:svg="http://www.w3.org/2000/svg"
   xmlns="http://www.w3.org/2000/svg"
   width="338.66699mm"
   height="37.210999mm"
   viewBox="0 0 338.66699 37.210998"
   version="1.1"
   id="svg8">
  <defs
     id="defs2" />
  <metadata
     id="metadata5">
    <rdf:RDF>
      <cc:Work
         rdf:about="">
        <dc:format>image/svg+xml</dc:format>
        <dc:type
           rdf:resource="http://purl.org/dc/dcmitype/StillImage" />
        <dc:title></dc:title>
      </cc:Work>
    </rdf:RDF>
  </metadata>
  <g
     id="layer1">
    <g
       id="g847"
       transform="translate(7.9319996,-43.790877)">
      <path
         style="fill:#eddeab;stroke-width:0.264582"
         d="m 6.4877914,80.844154 c -2.300767,-0.147406 -2.34305,-0.235408 -0.319399,-0.664756 0.406413,-0.08623 0.807806,-0.336255 0.891984,-0.555616 0.527888,-1.375638 -5.122132,-3.861937 -10.485724,-4.61426 -2.039862,-0.286121 -3.183735,-0.800311 -3.183735,-1.431142 0,-0.575773 0.520538,-0.663505 6.441644,-1.085693 11.2135696,-0.799548 16.0479396,-1.485323 16.0479396,-2.276462 0,-0.459786 -2.741858,-1.54954 -3.905407,-1.552207 -0.620004,-0.0014 -2.2273476,0.246509 -3.5718746,0.550955 -2.098354,0.475139 -3.025445,0.535115 -6.545636,0.423459 -3.495139,-0.110863 -7.624285,-0.613496 -9.326562,-1.135306 -0.262616,-0.0805 -0.463021,-0.400877 -0.463021,-0.740206 0,-0.547085 0.242617,-0.649181 2.835644,-1.193264 4.270422,-0.896044 5.662549,-1.632587 3.712793,-1.964357 -0.472942,-0.08048 -2.139817,-0.22701 -3.704166,-0.325631 l -2.844271,-0.17931 v -0.854691 -0.854691 l 1.984375,0.127349 1.984375,0.127348 v -0.689451 c 0,-0.975489 0.897265,-1.362993 5.637287,-2.434591 4.355488,-0.984663 6.004379,-1.578281 6.004379,-2.16164 0,-0.205305 -0.80334,-0.737529 -1.785201,-1.182721 -2.399244,-1.087857 -3.947675,-2.188528 -4.452687,-3.165104 -0.361395,-0.698851 -0.530967,-0.790867 -1.257115,-0.682153 -0.461654,0.06912 -1.223459,0.284676 -1.692899,0.479023 -0.795665,0.329404 -0.903284,0.306941 -1.5875,-0.331366 -1.045622,-0.975464 -1.669967,-1.243993 -3.351983,-1.441679 -0.815667,-0.09587 -1.483031,-0.261541 -1.483031,-0.368171 0,-0.349107 5.803712,-0.847019 7.678443,-0.658748 1.57196,0.157863 1.95223,0.106499 2.823764,-0.381412 0.553942,-0.310113 1.721543,-0.781631 2.594668,-1.047818 1.517604,-0.462668 1.552552,-0.492353 0.79375,-0.674217 -1.449094,-0.347307 -1.520238,-0.397957 -1.369361,-0.974905 0.136968,-0.52376 0.07008,-0.548331 -1.094461,-0.402041 -3.460733,0.43474 -5.544735,0.478429 -8.359345,0.175248 L -7.9319996,46.37351 V 45.082194 43.790877 H 161.40133 330.73466 v 7.122649 7.122647 l -0.7276,0.15747 c -0.88353,0.191216 -4.23849,-0.215713 -6.48796,-0.786938 -2.48187,-0.630239 -6.24781,-2.560305 -8.84983,-4.535572 -1.27773,-0.969955 -2.73987,-1.916323 -3.24919,-2.103038 -0.50932,-0.186715 -2.06785,-0.344708 -3.4634,-0.351095 -4.00679,-0.01834 -8.13802,1.256938 -8.57967,2.648477 -0.0929,0.292708 0.20725,1.60488 0.69154,3.023285 0.78193,2.290068 0.82789,2.598976 0.53295,3.583339 -0.41169,1.374103 -1.38112,1.978045 -3.84108,2.392967 -2.33008,0.393016 -6.66756,0.187888 -7.72443,-0.365301 -0.90451,-0.473435 -1.94734,-1.562566 -3.62324,-3.784058 -1.24176,-1.646038 -2.49674,-2.483295 -3.72221,-2.483295 -1.89489,0 -5.72463,2.349289 -5.72463,3.511666 0,0.230248 0.30176,0.655995 0.67059,0.946103 0.76242,0.599716 4.21833,2.089422 5.39147,2.324047 0.86698,0.173396 1.72061,0.977804 1.99376,1.878786 0.1314,0.433456 0.003,0.768319 -0.48672,1.256757 -1.63709,1.637065 -5.38573,0.532493 -19.73993,-5.816571 -6.8821,-3.044053 -10.58898,-3.985399 -14.903,-3.784561 -2.16771,0.100916 -2.62706,0.217344 -4.29649,1.088996 -1.63201,0.852119 -2.10217,0.975846 -3.70416,0.974782 -2.37828,-0.0016 -8.1125,-0.849831 -11.69747,-1.73038 -3.08966,-0.758892 -3.22291,-0.754542 -7.07075,0.230855 -1.45521,0.372665 -4.37224,0.931827 -6.4823,1.242581 -5.02202,0.739612 -5.41769,0.940948 -6.74687,3.433127 -1.38559,2.597945 -2.15366,3.011027 -5.54022,2.979612 -1.31851,-0.01223 -4.18322,-0.227179 -6.36603,-0.477661 -5.95735,-0.683619 -9.25056,-0.393017 -17.06563,1.505912 -2.10598,0.511719 -3.47921,0.986918 -3.78062,1.308261 -0.26032,0.277555 -0.51506,0.504645 -0.56608,0.504645 -0.051,0 -1.08817,0.184039 -2.3048,0.408976 -3.10842,0.574706 -4.57888,1.097465 -5.87944,2.090196 -0.77049,0.588125 -1.52288,0.90486 -2.37855,1.001305 -1.24514,0.140345 -2.38392,0.843182 -2.21027,1.36414 0.0501,0.150197 0.73666,0.39701 1.52577,0.548473 1.74286,0.334532 1.8608,0.673303 0.7947,2.282804 -1.48783,2.246179 -3.89097,3.508066 -7.48939,3.932659 -1.2019,0.141819 -3.01871,0.437876 -4.03736,0.657906 -2.92822,0.632506 -7.23441,1.020868 -9.35159,0.843393 -1.49279,-0.125134 -4.13013,-0.893155 -11.37708,-3.313115 -5.18861,-1.732621 -10.07626,-3.297022 -10.86145,-3.476444 -2.99582,-0.68457 -9.89931,0.222134 -15.06289,1.97836 -1.58226,0.538159 -1.92188,0.577902 -2.35371,0.275439 -1.47143,-1.030615 -5.387639,-1.879492 -15.177852,-3.289949 -7.883549,-1.135766 -8.972716,-1.424614 -8.972716,-2.379548 0,-1.108361 3.368122,-3.072176 7.672916,-4.473765 4.812268,-1.566816 6.725182,-1.590609 14.552082,-0.180997 7.43427,1.3389 9.92854,1.456466 9.73642,0.458921 -0.15011,-0.779455 -2.76223,-2.098911 -5.32868,-2.691672 -3.04046,-0.702236 -10.032735,-1.803829 -15.387947,-2.424283 -1.164167,-0.134879 -3.584305,-0.598385 -5.378085,-1.030013 -3.639317,-0.87571 -4.584178,-0.968552 -3.287019,-0.322984 0.942565,0.469094 1.076598,0.881052 0.454597,1.397259 -0.299228,0.248334 -1.112849,0.294641 -3.108855,0.176935 -2.967942,-0.17502 -5.092094,-0.701772 -6.050695,-1.500465 l -0.621609,-0.517919 1.132977,-0.0088 c 0.623136,-0.0048 1.575636,-0.203874 2.116667,-0.442294 L 77.92529,57.740397 76.734665,57.400672 C 69.2506,55.265219 68.316888,55.092209 65.121327,55.248808 c -3.173981,0.15554 -6.361027,0.744646 -10.47937,1.937043 -2.197213,0.636165 -2.636856,0.676815 -5.688541,0.525961 -3.129518,-0.154702 -5.304957,-0.414591 -6.945313,-0.829723 -2.032444,-0.51436 0.594294,1.503048 3.307292,2.540092 1.611736,0.616087 1.820235,0.949347 1.037251,1.657929 -1.1241,1.017288 -7.608689,3.06683 -13.141938,4.15369 -3.203696,0.629281 -4.171209,0.968726 -5.949875,2.08747 -0.65663,0.413007 -1.716445,1.074036 -2.355141,1.468955 l -1.161267,0.718034 0.94824,0.568764 c 0.521534,0.312819 1.675339,1.130063 2.564011,1.816098 1.690672,1.305157 2.011191,1.405026 5.383627,1.677483 2.368264,0.191331 3.083946,0.655706 3.083946,2.001047 0,2.066764 -3.415747,3.80682 -9.009463,4.589613 -5.339728,0.747249 -14.431473,1.054199 -20.2269946,0.68289 z"
         id="path849" />
    </g>
  </g>
</svg>
