<?xml version="1.0" encoding="UTF-8" standalone="no"?>
<svg
   xmlns:dc="http://purl.org/dc/elements/1.1/"
   xmlns:cc="http://creativecommons.org/ns#"
   xmlns:rdf="http://www.w3.org/1999/02/22-rdf-syntax-ns#"
   xmlns:svg="http://www.w3.org/2000/svg"
   xmlns="http://www.w3.org/2000/svg"
   width="451.556mm"
   height="109.335mm"
   viewBox="0 0 451.556 109.335"
   version="1.1"
   id="svg1496">
  <defs
     id="defs1490" />
  <metadata
     id="metadata1493">
    <rdf:RDF>
      <cc:Work
         rdf:about="">
        <dc:format>image/svg+xml</dc:format>
        <dc:type
           rdf:resource="http://purl.org/dc/dcmitype/StillImage" />
        <dc:title></dc:title>
      </cc:Work>
    </rdf:RDF>
  </metadata>
  <g
     id="layer1">
    <g
       id="g2073"
       transform="translate(88.950409,233.06008)">
      <path
         style="fill:#ecddaa;stroke-width:0.352778"
         d="m 8.6822517,-124.26302 c -1.0008341,-0.30777 -1.9026788,-0.86343 -2.2420933,-1.38144 -0.5278156,-0.80555 -0.5198922,-0.95891 0.1125184,-2.17753 0.8309011,-1.60111 3.4219834,-3.44502 5.8572192,-4.1682 2.530101,-0.75136 9.650991,-1.35304 13.645254,-1.15295 3.852415,0.19298 5.23832,-0.0122 5.768277,-0.85397 1.049669,-1.66727 -2.933686,-3.34013 -9.075279,-3.81128 -4.097105,-0.3143 -6.846429,-0.97791 -9.292908,-2.24303 -3.011452,-1.55729 -7.0055143,-6.55612 -6.7387226,-8.43396 0.1004782,-0.70722 0.3600697,-0.80851 2.4766165,-0.96641 1.3004061,-0.097 2.5454261,-0.35779 2.7667091,-0.57949 0.921008,-0.92275 -1.364509,-2.94829 -3.3267085,-2.94829 -1.417112,0 -2.7177049,-0.64463 -4.3659921,-2.16397 -1.9901324,-1.83444 -4.16516972,-2.77309 -9.6056171,-4.14537 -4.3759685,-1.10379 -5.9453993,-1.93192 -5.5607723,-2.93424 0.268848,-0.70061 3.8907611,-2.37944 10.22557068,-4.73977 l 5.55033762,-2.06804 -5.9913099,-0.0965 -5.9913133,-0.0965 v -1.86165 -1.86165 l -1.6756945,-0.81509 c -1.3370946,-0.65038 -2.6023886,-0.87521 -6.2618056,-1.11266 -10.070289,-0.65344 -13.132697,-3.05618 -6.71115,-5.26552 2.407564,-0.82833 4.819255,-0.89205 7.769483,-0.20529 1.164167,0.271 3.194452,0.55443 4.497917,0.74144 0.744869,0.10687 1.3195153,0.29717 2.3812501,0.24872 14.9476198,-1.04084 27.5406229,-3.31969 33.6972809,-9.80932 6.569227,-12.3174 -20.4180299,-8.53909 -33.6972809,-11.33597 l -1.8520834,0.13944 -1.8520837,0.13945 1.2347225,-0.70561 c 0.6790973,-0.38809 1.5125348,-0.71227 1.8520834,-0.7204 0.3395487,-0.008 0.6173612,-0.24694 0.6173612,-0.53068 0,-0.5572 -0.9279891,-0.53479 -8.2902781,0.20024 -7.448346,0.74361 -8.595692,0.94594 -10.455864,1.8438 -2.093183,1.01032 -7.998203,2.31302 -11.079467,2.44423 -1.905592,0.0811 -2.028486,0.0318 -3.029257,-1.21519 -1.027698,-1.28059 -2.097362,-1.78221 -5.87314,-2.75419 -0.830474,-0.21379 -1.416417,-0.54004 -1.302099,-0.72502 0.130898,-0.21179 -7.571391,-0.33631 -20.803244,-0.33631 h -21.011098 v -15.16945 -15.16944 H 136.82738 362.60516 v 16.36352 16.36352 l -1.85208,0.22716 c -7.06611,0.86668 -11.47071,1.02333 -30.2507,1.07589 -22.30603,0.0624 -21.21616,-0.0315 -23.59134,2.03233 -1.32228,1.14893 -2.30043,1.12333 -3.85685,-0.10095 -1.55473,-1.22294 -2.87077,-0.91129 -4.59204,1.08743 -1.56866,1.82151 -3.50453,2.98873 -7.37002,4.4437 -3.97711,1.49698 -4.4383,2.11453 -2.48211,3.32368 1.06878,0.66062 2.53718,1.15315 13.08343,4.38838 4.76561,1.46193 5.95888,2.2508 5.8075,3.83943 l -0.10551,1.1073 2.46944,-0.0174 c 1.3582,-0.01 4.88044,-0.0889 7.82719,-0.17639 5.76259,-0.17101 6.93773,0.0978 5.25297,1.20176 -1.91386,1.25399 -4.79616,1.67718 -13.15791,1.93189 -8.08662,0.24634 -9.56666,0.49242 -8.46427,1.40734 0.79446,0.65931 4.73558,2.02939 9.32716,3.24243 2.37208,0.62669 4.5835,1.3373 4.91427,1.57915 0.5576,0.40773 0.5479,0.46833 -0.13296,0.83274 -1.19214,0.638 -7.12174,1.46163 -12.7242,1.76739 -7.47184,0.40779 -12.13545,0.0246 -17.03645,-1.40001 -5.21597,-1.51612 -9.0611,-1.6325 -11.87733,-0.35949 -1.92126,0.86847 -2.30667,1.54052 -1.21772,2.12332 2.11787,1.13344 11.45389,2.8182 26.6996,4.81814 9.88667,1.29694 10.66275,1.43298 11.36245,1.99171 1.18572,0.94688 -1.68162,2.75241 -4.37473,2.75467 -4.21104,0.004 -12.47048,1.95296 -16.57601,3.91235 -2.29005,1.09295 -3.72586,2.49337 -3.40737,3.32339 0.17925,0.46705 1.67686,1.10841 4.35892,1.86672 1.04683,0.29597 0.72471,0.35406 -2.11666,0.3817 -7.57594,0.0737 -22.45138,-1.14965 -32.04241,-2.63515 -6.94913,-1.07631 -10.92393,-2.16353 -14.75972,-4.0372 -4.08084,-1.99337 -5.41804,-3.77253 -4.90216,-6.52238 0.37707,-2.00995 1.30576,-2.36523 6.60292,-2.52597 5.35869,-0.16261 6.08532,-0.39689 9.61463,-3.09997 1.37611,-1.05395 3.11822,-2.1737 3.87135,-2.48833 0.75314,-0.31464 1.22939,-0.69411 1.05834,-0.84328 -0.64105,-0.55902 -6.36254,-4.55225 -7.71934,-5.38759 -2.03988,-1.2559 -3.84511,-1.90452 -9.094,-3.26747 -8.09066,-2.10087 -17.48908,-5.62331 -20.66224,-7.74402 -2.44323,-1.63288 -2.25025,-2.28952 1.00485,-3.41927 3.34541,-1.16109 5.97437,-2.49601 6.87222,-3.48952 l 0.69862,-0.77306 -2.63889,0.29396 c -1.4514,0.16166 -5.89327,0.29394 -9.87084,0.29394 h -7.23195 l -6.52639,-2.17645 c -6.8366,-2.2799 -13.17619,-3.77904 -17.63889,-4.17112 -2.22163,-0.19519 -3.4094,-0.0616 -7.40833,0.83308 -2.61938,0.58604 -6.57461,1.39157 -8.78941,1.79006 -2.2148,0.3985 -4.07834,0.77597 -4.14119,0.83883 -0.38912,0.38912 3.06521,1.7509 4.85248,1.91296 2.5915,0.23499 2.54718,0.69396 -0.17231,1.78437 -3.49096,1.39973 -11.77586,1.96727 -14.16229,0.97016 -1.87663,-0.7841 -1.65568,-1.77453 0.62869,-2.81819 2.45889,-1.1234 1.70841,-1.10104 -4.78998,0.14274 -3.00784,0.57569 -7.36819,1.15405 -9.68967,1.28525 -3.71865,0.21016 -4.59273,0.1437 -7.34605,-0.55858 -2.49056,-0.63525 -3.63754,-0.7507 -5.64826,-0.56849 -2.91093,0.26378 -5.48949,0.93613 -5.67028,1.47851 -0.0687,0.20617 0.96554,1.09998 2.29835,1.98624 2.5686,1.708 4.3486,3.93675 5.07172,6.35033 0.80094,2.67329 -1.22342,3.96757 -7.90958,5.057 l -3.70971,0.60446 2.16027,1.05736 c 1.62716,0.79642 3.20499,2.11164 6.39361,5.32942 4.36095,4.40085 6.08231,6.94942 5.63841,8.34802 -0.313,0.98617 -1.22977,1.27443 -4.9438,1.55444 -5.1173,0.38581 -14.32937,1.54825 -18.17083,2.29291 -3.51809,0.68199 -6.95783,1.979 -8.1788,3.08396 -0.77716,0.70332 -0.81214,1.72256 -0.0689,2.00777 1.26759,0.48642 8.19094,0.15531 15.31041,-0.73221 5.24154,-0.65343 9.33844,-0.95231 13.23574,-0.96561 5.4935,-0.0187 5.73406,0.0118 8.99583,1.14248 5.42231,1.87961 10.20302,4.90616 11.4721,7.26272 0.60439,1.12227 0.60883,1.25972 0.0675,2.08593 -0.89672,1.36858 -2.2123,1.44789 -6.83156,0.41188 -6.2099,-1.39277 -10.94839,-1.92096 -17.30191,-1.92862 -9.74906,-0.0118 -15.83655,1.61027 -26.468656,7.05258 -6.989841,3.57792 -9.405712,4.28193 -14.736054,4.29423 -4.246386,0.01 -6.500996,-0.36597 -13.307586,-2.21792 -9.32155,-2.53622 -12.595631,-2.00752 -17.743869,2.86531 -1.521284,1.43989 -3.515036,2.89251 -4.970724,3.62159 -5.353921,2.68149 -16.850893,6.01497 -26.376991,7.64786 -5.004703,0.85786 -11.542896,0.92962 -14.0640083,0.15435 z M 123.06683,-199.02693 c 4.06152,-0.57721 9.33416,-1.91399 11.70963,-2.96877 l 1.52175,-0.6757 -12.91643,-0.0249 c -7.53561,-0.0145 -13.70805,0.12685 -14.81667,0.33941 -1.04513,0.20038 -3.7831,0.50897 -6.08438,0.68576 -5.7102,0.43868 -5.964034,0.75496 -1.31032,1.63269 8.42183,1.58843 15.52728,1.91667 21.89642,1.01153 z"
         id="path2075" />
    </g>
  </g>
</svg>
