<?xml version="1.0" encoding="UTF-8" standalone="no"?>
<svg
   xmlns:dc="http://purl.org/dc/elements/1.1/"
   xmlns:cc="http://creativecommons.org/ns#"
   xmlns:rdf="http://www.w3.org/1999/02/22-rdf-syntax-ns#"
   xmlns:svg="http://www.w3.org/2000/svg"
   xmlns="http://www.w3.org/2000/svg"
   width="43.273998mm"
   height="30.289mm"
   viewBox="0 0 43.273998 30.289"
   version="1.1"
   id="svg8">
  <defs
     id="defs2" />
  <metadata
     id="metadata5">
    <rdf:RDF>
      <cc:Work
         rdf:about="">
        <dc:format>image/svg+xml</dc:format>
        <dc:type
           rdf:resource="http://purl.org/dc/dcmitype/StillImage" />
        <dc:title></dc:title>
      </cc:Work>
    </rdf:RDF>
  </metadata>
  <g
     id="layer1">
    <path
       style="fill:#000000;stroke-width:0.352778"
       d="m 35.273877,29.623381 c -0.209829,-0.392064 -0.27445,-0.886062 -0.143605,-1.097774 0.383226,-0.620074 -0.615403,-1.004644 -1.169628,-0.45042 -0.786765,0.786769 -1.330406,0.589425 -1.948833,-0.707422 -0.31593,-0.662516 -0.861271,-1.299774 -1.211865,-1.416127 -0.350594,-0.116354 -1.092955,-0.856333 -1.649692,-1.644396 -0.556732,-0.788064 -1.401755,-1.610318 -1.877825,-1.827231 -0.771444,-0.351493 -0.960029,-0.273713 -1.733935,0.715155 -1.391662,1.778222 -6.396306,5.376923 -7.480346,5.378919 -0.521635,0.0011 -1.70313,-0.268756 -2.625545,-0.599369 L 13.75548,27.3736 12.367288,28.729131 10.979101,30.084666 8.2507627,29.837428 C 6.7501767,29.70145 5.259116,29.449274 4.937294,29.277041 4.615473,29.104808 3.574538,28.053671 2.624109,26.941179 0.98045,25.017256 0.894666,24.813866 0.86765,22.776655 0.85202,21.598656 0.650413,20.288086 0.419622,19.86428 0.188831,19.440474 0,18.310947 0,17.354217 c 0,-2.109939 0.875637,-3.390004 2.862866,-4.185133 0.753755,-0.301597 1.370467,-0.723548 1.370467,-0.93767 0,-0.214122 0.65839,-1.060164 1.463086,-1.88009 L 7.1595047,8.8605479 6.7065237,7.2426709 C 6.124265,5.1630319 6.422404,1.5974291 7.2555307,0.67683009 c 0.836031,-0.923801 2.9555093,-0.897491 4.1621713,0.05167 0.841481,0.66191001 0.92952,0.95853301 0.92952,3.13180581 0,1.737621 -0.150971,2.525939 -0.546632,2.854308 -0.369027,0.306264 -0.512301,0.919928 -0.440972,1.88873 0.08862,1.203596 0.261881,1.4896921 1.074197,1.7737351 0.833124,0.29132 1.11778,0.195682 2.036011,-0.6840361 0.670882,-0.642744 1.147629,-1.523962 1.283219,-2.371874 0.130179,-0.814094 0.546915,-1.609672 1.050791,-2.006021 0.602407,-0.473851 0.835053,-1.011273 0.835053,-1.9289958 0,-0.699679 0.135456,-1.272145 0.301011,-1.272145 0.458509,0 0.821987,5.3178458 0.398368,5.8282768 -0.497209,0.599098 -0.113669,1.412198 0.879609,1.864766 0.677753,0.3088041 0.88066,0.7487671 1.079574,2.3408391 0.218235,1.746698 0.334458,1.960563 1.065435,1.960563 0.451259,0 0.918587,-0.15875 1.038503,-0.352778 0.300874,-0.486823 2.766763,-0.44329 3.890413,0.06868 0.508751,0.2318 1.155298,0.8668 1.436772,1.411111 0.295854,0.572118 0.802608,0.989651 1.201124,0.989651 1.62567,0 3.488284,1.176991 5.606298,3.542634 1.918918,2.14327 2.352817,2.454589 3.421067,2.454589 1.361224,0 1.908326,0.735549 1.190466,1.600517 -0.677249,0.816039 -0.245869,0.928191 1.373103,0.356983 1.66746,-0.588313 2.393135,-0.438033 2.71031,0.561291 0.33721,1.062454 -1.318193,2.93176 -3.850269,4.347775 -2.541962,1.421546 -3.56107,1.554176 -4.106796,0.534476 z M 18.697223,14.259463 c 0,-0.499025 -0.422607,-1.628443 -0.939127,-2.50982 l -0.939126,-1.602496 -0.501491,0.957128 c -0.588476,1.123149 -0.353811,2.387286 0.624829,3.365927 0.984339,0.984338 1.754915,0.891805 1.754915,-0.210739 z"
       id="path847" />
  </g>
</svg>
