<?xml version="1.0" encoding="UTF-8" standalone="no"?>
<svg
   xmlns:dc="http://purl.org/dc/elements/1.1/"
   xmlns:cc="http://creativecommons.org/ns#"
   xmlns:rdf="http://www.w3.org/1999/02/22-rdf-syntax-ns#"
   xmlns:svg="http://www.w3.org/2000/svg"
   xmlns="http://www.w3.org/2000/svg"
   width="451.85999mm"
   height="199.856mm"
   viewBox="0 0 451.85999 199.856"
   version="1.1"
   id="svg8">
  <defs
     id="defs2" />
  <metadata
     id="metadata5">
    <rdf:RDF>
      <cc:Work
         rdf:about="">
        <dc:format>image/svg+xml</dc:format>
        <dc:type
           rdf:resource="http://purl.org/dc/dcmitype/StillImage" />
        <dc:title></dc:title>
      </cc:Work>
    </rdf:RDF>
  </metadata>
  <g
     id="layer1">
    <g
       id="g893"
       transform="matrix(-1,0,0,1,293.8588,38.904406)">
      <path
         style="fill:#fde2a7;stroke-width:0.352778"
         d="m 112.86439,36.986589 -148.733644,0.461526 2.834122,-52.007241 94.559959,-19.537932 c 2.029353,-1.022716 5.780331,-1.562995 8.678839,-2.342155 7.543722,-2.302711 12.919523,-3.405435 17.978691,-1.471269 0.266003,0.134637 0.216308,0.180003 0.331634,0.81361 0.06832,0.375366 0.400404,0.88099 0.748425,1.605312 0.500094,1.040828 1.866121,1.903121 2.805869,3.514811 z"
         id="path907" />
      <path
         style="fill:#eccb82;stroke-width:0.352778"
         d="M -19.267467,22.009637 -43.278618,3.5828226 -33.035132,-14.559126 69.799604,-36.355406 c 5.617545,-1.184025 12.13301,-3.307408 15.875,-2.180026 l 2.204862,0.533919 c 0.868248,0.175247 0.296366,0.536073 0.970139,1.696579 0.42695,0.643062 0.866688,2.386579 1.439929,2.946414 L 103.6817,-24.885608 64.991372,6.2035915 Z m 2.649918,-18.3586776 c 1.39094,-0.2925938 3.663506,-0.9838371 5.050148,-1.5360966 2.197058,-0.8750229 4.1227908,-1.43761166 6.7545026,-1.97327998 0.3880555,-0.07898694 4.65113875,-1.109419 9.4735194,-2.28984862 4.8223807,-1.1804332 10.775506,-2.5501774 13.229167,-3.0438793 5.363926,-1.0792742 6.810245,-1.706072 11.934833,-5.1722689 4.458201,-3.015466 4.749334,-3.132278 10.341649,-4.149481 6.372228,-1.159062 8.846601,-2.163402 16.889822,-6.855534 4.56311,-2.661955 6.770151,-3.348457 12.037956,-3.744421 2.425348,-0.182305 5.044723,-0.431592 5.820834,-0.553974 2.008628,-0.316735 6.669924,-2.009115 11.052433,-4.012816 2.070329,-0.946562 4.213765,-1.831202 4.763191,-1.965861 l 0.998958,-0.244838 -1.43993,-1.467181 c -0.65319,-0.665552 -0.80611,-1.858917 -1.439929,-2.946414 -0.667612,-1.145479 -0.100606,-1.501772 -0.970139,-1.696579 -0.533577,-0.119542 -1.525764,-0.359805 -2.204862,-0.533919 -2.797041,-0.71714 -5.190264,-0.388493 -15.875,2.180026 -4.955974,1.191373 -8.153333,2.322932 -21.519445,7.615815 -8.634237,3.419098 -17.186886,6.907262 -19.005889,7.751483 -2.261941,1.049789 -3.779887,1.534943 -4.802544,1.534943 -2.315789,0 -5.118683,0.629113 -7.094785,1.592436 -0.989478,0.482353 -2.111604,0.877009 -2.49361,0.877009 -1.156123,0 -4.28359,1.039403 -6.9834867,2.320935 -1.4031525,0.66602 -3.4881574,1.383718 -4.6333517,1.594887 -2.88194057,0.531414 -3.96184983,1.039104 -6.7329617,3.1653056 -2.7602569,2.1178765 -3.7805961,2.5998274 -7.0809099,3.34464 -3.289731,0.7424243 -4.832851,1.3897256 -7.494687,3.1438354 -1.748469,1.1522144 -2.729755,1.5509168 -4.131842,1.6787917 -1.486578,0.1355795 -2.107594,0.4105521 -3.242145,1.4355514 -0.870225,0.78619344 -1.913932,1.3511388 -2.747327,1.4870887 -3.448565,0.5625571 -5.016331,0.9488064 -6.812019,1.6782661 l -1.940278,0.7881972 4.056944,0.1942148 c 8.496565,0.4067527 13.669194,0.3440006 16.241184,-0.1970335 z"
         id="path905" />
      <path
         style="fill:#a9a355;stroke-width:0.352778"
         d="m -76.42679,146.04969 -81.13889,-15.04821 -0.089,-73.07124 -0.089,-73.071236 1.14736,-0.19001 c 0.63105,-0.104507 30.19862,-2.271035 65.705701,-4.81451 59.642363,-4.272353 64.982374,-4.706242 70.12695,-5.697978 4.287683,-0.826551 6.397548,-1.057768 9.172223,-1.00518 1.9819832,0.03757 4.1581847,-0.108701 4.8360014,-0.325039 0.6778166,-0.216337 1.8684417,-0.390761 2.6458334,-0.387611 1.6880453,0.0068 8.5389158,-1.207611 11.9967732,-2.126667 1.3581945,-0.360994 3.18382,-0.765782 4.056945,-0.899534 0.873125,-0.133752 3.095625,-0.635064 4.938889,-1.11403 2.652331,-0.689197 4.418372,-0.893011 8.466667,-0.977117 2.813402,-0.05845 5.970383,-0.281622 7.015511,-0.495938 2.435307,-0.499389 7.282555,-0.503234 8.210681,-0.0065 0.518756,0.277629 1.36247,0.269427 3.063614,-0.02981 1.291231,-0.227115 5.046444,-0.554179 8.344917,-0.7268 3.298472,-0.172625 7.029097,-0.40083 8.290278,-0.507122 2.809924,-0.236823 4.00039,-0.778023 -13.405556,6.094296 -7.858126,3.102592 -15.648348,6.271076 -17.311604,7.041077 -2.166338,1.002901 -3.72419,1.468988 -5.492295,1.64321 -2.925896,0.288312 -5.863724,1.019817 -6.947412,1.729878 -0.428656,0.280867 -1.481455,0.629281 -2.339551,0.774255 -1.986326,0.335591 -4.685979,1.2645 -7.5010862,2.581021 -1.21672,0.569013 -3.2440952,1.229438 -4.5052758,1.467605 -2.77901407,0.524806 -3.05464288,0.659659 -6.1751459,3.021206 -2.4770257,1.8745694 -5.5176668,3.3326387 -6.9788861,3.3465664 -1.522716,0.014499 -5.536005,1.696875 -7.765056,3.2550944 -1.856676,1.2979081 -2.612912,1.6096049 -4.230659,1.7437628 -1.621889,0.1345 -2.145306,0.3511655 -2.963006,1.22651646 -1.110043,1.18830363 -2.518713,1.71913894 -5.435642,2.04833694 -1.086129,0.1225762 -2.911754,0.6682458 -4.056945,1.2125995 l -2.082161,0.9897321 6.28064,0.2699843 c 9.36412,0.4025335 13.606947,0.1457748 16.826305,-1.0182612 1.455208,-0.5261645 4.0499842,-1.3694691 5.7661705,-1.8740048 l 3.1203337,-0.91734211 1.8185554,0.79097005 c 1.0002026,0.43503136 2.92980188,1.17912086 4.2879964,1.65352576 9.16946,3.2028092 21.00808,3.253327 29.986465,0.127956 2.293017,-0.7981985 11.118367,-2.16159979 24.062168,-3.71728617 l 8.187521,-0.98403823 2.092315,-1.8247712 c 1.736937,-1.5148382 2.456533,-1.8964273 4.236685,-2.2466509 1.179403,-0.2320361 2.230441,-0.561146 2.335639,-0.7313612 0.105202,-0.1702153 1.447709,-0.7279146 2.983357,-1.239333 1.535646,-0.5114183 2.982183,-1.1589031 3.214526,-1.4388605 0.232343,-0.2799538 0.880632,-0.5090089 1.440642,-0.5090089 0.740727,0 1.582155,-0.5184595 3.087631,-1.9024845 1.138185,-1.046367 2.406805,-2.009563 2.819157,-2.14044 0.533675,-0.169351 0.74973,-0.527989 0.74973,-1.244455 0,-0.827843 0.184841,-1.04713 1.041178,-1.235213 0.57265,-0.125776 2.0014,-0.849302 3.175,-1.607837 l 2.133822,-1.379153 -0.0084,-2.036166 c -0.0046,-1.119893 -0.153514,-3.941166 -0.33094,-6.2695 l -0.322595,-4.233333 -1.504946,-1.306357 c -1.060789,-0.92081 -1.353552,-1.355936 -0.991969,-1.474346 0.613407,-0.200879 18.50089,-1.53911 24.50187,-1.833079 3.45551,-0.169274 152.75592,3.81588 173.83125,4.639937 l 5.90903,0.231045 v 89.482443 89.482446 l -29.72153,-2.0234 -29.72153,-2.02341 -113.06528,8.80117 c -62.185903,4.84065 -113.8590293,8.86801 -114.8291682,8.9497 -1.300607,0.10952 -23.0748778,-3.80386 -82.9027808,-14.89968 z"
         id="path901" />
      <path
         style="fill:#baad39;stroke-width:0.352778"
         d="m -77.132345,145.80251 c -44.238335,-8.21227 -80.473025,-14.94062 -80.521535,-14.95188 -0.0485,-0.0113 -0.0882,-30.976721 -0.0882,-68.812134 V -6.7531655 l 1.14653,0.00141 c 0.63059,7.056e-4 8.8459,-0.4860678 18.25625,-1.0819058 l 17.10972,-1.0833382 4.34208,-1.3991125 c 19.741412,-6.361123 42.566593,-7.811329 65.155146,-4.139657 4.324237,0.702889 4.988994,0.721219 11.641667,0.321049 l 7.055555,-0.424406 15.169445,-4.183012 c 8.3431951,-2.300658 17.39194536,-4.773842 20.1083343,-5.495967 l 4.9388891,-1.312954 5.2916666,0.404646 c 6.946996,0.531224 10.284947,0.508536 14.321057,-0.09735 1.827907,-0.274397 5.782829,-0.597746 8.788707,-0.718552 l 5.465237,-0.219646 -4.586111,1.894558 c -2.522361,1.042006 -5.78841,2.453332 -7.257888,3.136278 -1.838442,0.854428 -3.441467,1.317565 -5.139514,1.484888 -2.925491,0.288269 -5.863329,1.019806 -6.946964,1.729831 -0.428656,0.280868 -1.481455,0.629282 -2.339551,0.774256 -1.986326,0.33559 -4.685979,1.2645 -7.5010862,2.581021 -1.21672,0.569012 -3.2440952,1.229437 -4.5052758,1.467604 -2.77901407,0.524807 -3.05464288,0.65966 -6.1751459,3.021207 -2.4770257,1.8745689 -5.5176668,3.3326381 -6.9788861,3.3465658 -1.522716,0.014499 -5.536005,1.6968751 -7.765056,3.2550944 -1.856676,1.2979081 -2.612912,1.6096049 -4.230659,1.7437628 -1.621889,0.1345 -2.145306,0.3511655 -2.963006,1.22651649 -1.110043,1.18830363 -2.518713,1.71913891 -5.435642,2.04833701 -1.086129,0.1225761 -2.911754,0.6682457 -4.056945,1.2125994 l -2.082161,0.9897321 6.28064,0.2699843 c 9.36412,0.4025336 13.606947,0.1457749 16.826305,-1.0182612 1.455208,-0.5261645 4.0499842,-1.3694691 5.7661705,-1.8740048 l 3.1203337,-0.91734209 1.8185554,0.79097005 C -2.1034798,1.4166677 -0.17388052,2.1607571 1.184314,2.635162 c 9.16946,3.2028092 21.00808,3.253327 29.986465,0.127956 2.293017,-0.7981984 11.118367,-2.16159976 24.062168,-3.71728614 l 8.187521,-0.98403826 2.092315,-1.8247711 c 1.736937,-1.5148383 2.456533,-1.8964274 4.236685,-2.246651 1.179403,-0.2320361 2.230441,-0.5611459 2.335639,-0.7313612 0.105202,-0.1702153 1.447709,-0.7279146 2.983357,-1.2393329 1.535646,-0.5114184 2.982183,-1.1589032 3.214526,-1.4388605 0.232343,-0.2799539 0.880632,-0.5090089 1.440642,-0.5090089 0.740727,0 1.582155,-0.51846 3.087631,-1.902484 1.138185,-1.046368 2.406805,-2.009564 2.819157,-2.140441 0.533675,-0.169354 0.74973,-0.527992 0.74973,-1.244458 0,-0.827843 0.184841,-1.04713 1.041178,-1.235213 0.57265,-0.125776 1.991797,-0.843096 3.153667,-1.594047 1.919962,-1.240931 2.12247,-1.490352 2.222017,-2.736758 l 0.109527,-1.371389 7.231941,3.450258 c 9.87263,4.710091 17.8703,8.175353 21.87483,9.4780096 l 3.34879,1.0893495 84.1375,1.6612374 84.1375,1.6612375 0.089,75.935411 c 0.0846,72.153209 0.0582,75.935809 -0.52917,75.943409 -0.34001,0.004 -13.8738,-0.88241 -30.07512,-1.97068 l -29.45694,-1.97868 -113.10407,8.84985 C 58.353584,156.83384 6.5217073,160.79774 5.3788731,160.77509 4.2360388,160.75244 -32.89401,154.01478 -77.132345,145.80251 Z"
         id="path899" />
      <path
         style="fill:#a68a15;stroke-width:0.352778"
         d="m -77.132345,145.80251 c -44.238335,-8.21227 -80.473025,-14.94062 -80.521535,-14.95188 -0.0485,-0.0113 -0.0882,-25.95187 -0.0882,-57.645801 V 15.579501 l 2.23027,-2.611473 c 3.28342,-3.8446284 7.87978,-7.9994331 11.22659,-10.1481036 16.21164,-10.4079526 31.87468,-15.8788754 52.865364,-18.4652834 5.83546,-0.719028 26.075973,-0.604248 32.279168,0.183049 13.818803,1.753852 26.422284,4.714596 38.758288,9.1048906 l 4.133723,1.4711643 -1.983606,1.3172651 c -1.478128,0.98159 -2.502866,1.3760131 -4.021307,1.5478053 -1.54819,0.1751577 -2.240484,0.4476185 -2.881841,1.13418754 -1.231368,1.31816465 -2.292978,1.768429 -5.243944,2.22413316 -1.44975,0.2238763 -3.592875,0.8367077 -4.7625,1.3618456 l -2.12659,0.9547965 1.855544,0.2264728 c 1.020551,0.1245587 4.751176,0.3366205 8.290278,0.471244 7.138028,0.271526 9.830852,-0.010301 13.841649,-1.4487312 1.358975,-0.4873766 3.8530606,-1.2779974 5.5424147,-1.756932 l 3.0715515,-0.87078953 1.6909486,0.85100573 c 2.27209714,1.1434797 6.5650112,2.5538499 10.0900022,3.3149114 2.1712168,0.4687782 4.468894,0.6221201 9.239836,0.6166591 6.745422,-0.00773 9.478938,-0.3994679 14.710622,-2.1081893 2.604075,-0.8505154 14.611739,-2.66798402 26.917157,-4.0741526 3.4925,-0.3990939 7.62,-0.8701263 9.172223,-1.0467374 17.442279,-1.9845689 42.209219,-2.4104845 52.798049,-0.9079618 14.6691,2.08150164 46.91915,13.1037387 68.20473,23.3106227 5.59781,2.684268 9.39811,4.058948 17.99167,6.508139 10.31843,2.94078 16.98156,4.047804 22.40139,3.721809 25.47645,-1.532372 46.64269,-1.816573 57.67917,-0.774471 3.68653,0.348096 6.90121,0.700299 7.14375,0.782676 0.64837,0.220225 0.64837,116.584837 0,116.596547 -0.24254,0.004 -13.77597,-0.88262 -30.07431,-1.9711 L 233.66489,143.11573 120.56082,151.966 C 58.353584,156.83364 6.5217073,160.79774 5.3788731,160.77509 4.2360388,160.75244 -32.89401,154.01478 -77.132345,145.80251 Z"
         id="path897" />
      <path
         style="fill:#905d12;stroke-width:0.352778"
         d="m -157.99618,160.72526 c -0.05,-0.007 0.28951,-39.26962 0.33951,-50.72736 l 0.091,-20.832263 31.75,-13.061254 31.750001,-13.061257 8.428546,-1.916123 8.428542,-1.916127 6.564514,0.515927 c 19.956025,1.568404 24.263767,1.572052 36.197844,0.03066 12.832645,-1.657449 21.878591,-3.378902 27.2499819,-5.185703 1.9326085,-0.650078 2.7546583,-0.718167 6.70277802,-0.555173 5.22382768,0.215663 10.02985358,1.323255 16.86254508,3.886132 3.438074,1.289587 4.986063,1.666879 8.11389,1.977605 7.988427,0.793592 20.973916,1.481035 44.258309,2.343002 7.858125,0.290901 16.464414,0.759802 19.125085,1.042007 27.010184,2.864823 67.393764,13.596421 112.731784,29.957526 13.30068,4.799803 19.82308,7.333171 59.87786,23.257231 l 33.16111,13.18343 0.0987,4.46387 c 0.0543,2.45513 -0.0184,25.58297 -0.1698,25.57813 -0.47579,-0.0152 -175.46807,1.08911 -175.46807,1.08911 0,0 -111.6257181,0.007 -112.625829,-0.0116 z"
         id="path895" />
    </g>
  </g>
</svg>
