<?xml version="1.0" encoding="UTF-8" standalone="no"?>
<svg
   xmlns:dc="http://purl.org/dc/elements/1.1/"
   xmlns:cc="http://creativecommons.org/ns#"
   xmlns:rdf="http://www.w3.org/1999/02/22-rdf-syntax-ns#"
   xmlns:svg="http://www.w3.org/2000/svg"
   xmlns="http://www.w3.org/2000/svg"
   xmlns:sodipodi="http://sodipodi.sourceforge.net/DTD/sodipodi-0.dtd"
   xmlns:inkscape="http://www.inkscape.org/namespaces/inkscape"
   width="148.517mm"
   height="81.598mm"
   viewBox="0 0 148.517 81.598"
   version="1.1"
   id="svg8"
   sodipodi:docname="oc-logo-shadow.svg"
   inkscape:version="1.0.2 (e86c870, 2021-01-15)">
  <defs
     id="defs2">
    <clipPath
       clipPathUnits="userSpaceOnUse"
       id="clipPath849">
      <rect
         style="fill:none;stroke:#000000;stroke-width:0.264583"
         id="rect851"
         width="129.80595"
         height="76.570404"
         x="21.762053"
         y="37.197254" />
    </clipPath>
    <filter
       style="color-interpolation-filters:sRGB"
       inkscape:label="Drop Shadow"
       id="filter1536">
      <feFlood
         flood-opacity="0.388235"
         flood-color="rgb(0,0,0)"
         result="flood"
         id="feFlood1526" />
      <feComposite
         in="flood"
         in2="SourceGraphic"
         operator="in"
         result="composite1"
         id="feComposite1528" />
      <feGaussianBlur
         in="composite1"
         stdDeviation="2"
         result="blur"
         id="feGaussianBlur1530" />
      <feOffset
         dx="0"
         dy="0"
         result="offset"
         id="feOffset1532" />
      <feComposite
         in="SourceGraphic"
         in2="offset"
         operator="over"
         result="composite2"
         id="feComposite1534" />
    </filter>
  </defs>
  <sodipodi:namedview
     id="base"
     pagecolor="#ffffff"
     bordercolor="#666666"
     borderopacity="1.0"
     inkscape:pageopacity="0.0"
     inkscape:pageshadow="2"
     inkscape:zoom="0.5"
     inkscape:cx="-141.13303"
     inkscape:cy="255.21421"
     inkscape:document-units="mm"
     inkscape:current-layer="layer1"
     inkscape:document-rotation="0"
     showgrid="false"
     inkscape:window-width="1920"
     inkscape:window-height="1056"
     inkscape:window-x="0"
     inkscape:window-y="0"
     inkscape:window-maximized="1" />
  <metadata
     id="metadata5">
    <rdf:RDF>
      <cc:Work
         rdf:about="">
        <dc:format>image/svg+xml</dc:format>
        <dc:type
           rdf:resource="http://purl.org/dc/dcmitype/StillImage" />
        <dc:title></dc:title>
      </cc:Work>
    </rdf:RDF>
  </metadata>
  <g
     inkscape:label="Calque 1"
     inkscape:groupmode="layer"
     id="layer1">
    <g
       id="g859"
       transform="translate(1.3266165,-24.002324)"
       style="filter:url(#filter1536)">
      <g
         id="g868">
        <path
           style="fill:#bbae3c;stroke-width:0.264583"
           d="m 103.02532,70.38194 c -5.142369,-1.101892 -8.102507,-4.210391 -8.889764,-9.33532 -0.757631,-4.932064 1.592234,-12.764017 5.723403,-19.075748 1.585581,-2.422499 5.048581,-5.914118 7.000061,-7.057906 2.179,-1.277144 4.51635,-1.801696 6.27473,-1.408189 1.68446,0.376965 3.3475,1.573506 4.43795,3.193065 1.61537,2.399155 1.83503,4.521045 0.5198,5.021094 -1.11062,0.422259 -1.83564,-0.07057 -2.49546,-1.696265 -0.83559,-2.05875 -2.28728,-3.333629 -3.79596,-3.333629 -4.51948,0 -10.94574,7.832112 -13.568176,16.536459 -0.588338,1.9528 -0.722199,2.928713 -0.743966,5.423959 -0.02312,2.65144 0.05183,3.212825 0.582951,4.365625 0.822825,1.78594 1.657536,2.595235 3.555031,3.44678 1.94744,0.873956 5.19959,1.16367 7.37492,0.656985 1.96003,-0.456539 4.49286,-1.834158 6.82827,-3.713928 2.22884,-1.793989 3.16303,-2.015701 3.88035,-0.920932 0.71306,1.088268 0.29528,1.836891 -2.07967,3.726556 -2.66015,2.116584 -5.73675,3.644207 -8.44943,4.195381 -2.46326,0.500494 -3.73041,0.495557 -6.15504,-0.024 z M 75.104101,69.988126 c -2.008087,-0.330689 -4.39602,-1.503868 -6.048729,-2.971707 l -1.389732,-1.234279 1.139542,0.158327 c 1.895804,0.263401 10.095391,0.742052 12.055278,2.762045 0.396011,0.408155 0.048,0.743888 -1.147703,1.006415 -2.15949,0.474131 -3.084608,0.530178 -4.608656,0.279199 z m 5.630669,-0.986502 -2.791845,-1.182339 -2.031658,-0.805164 1.537151,-0.264995 c 1.765084,-0.304289 3.01529,-0.778063 4.995042,-2.185921 2.263548,-1.609675 4.073591,-3.921636 5.769187,-7.368953 1.848956,-3.759121 2.577912,-6.724222 2.569339,-10.451042 -0.0122,-5.303801 -1.894461,-8.910704 -5.995537,-11.489022 -1.042279,-0.655275 -3.303738,-0.444206 -5.124114,0.478248 -1.709375,0.866206 -4.513244,3.470664 -6.040453,5.610855 -1.487617,2.084708 -3.613788,6.541278 -4.343437,9.104085 -0.689986,2.423486 -0.98416,7.231616 -0.562692,9.196862 0.568502,2.650826 1.883613,4.66875 3.874807,5.945547 0.500102,0.320678 0.77481,0.842472 0.441408,0.755072 -1.224246,-0.320934 -4.898846,-0.998555 -5.392855,-0.998555 -1.072822,0 -2.254782,-3.901461 -2.496008,-7.622884 -0.346316,-5.342673 1.829083,-12.461997 5.463982,-17.881719 1.802365,-2.687368 5.196128,-5.857656 7.461901,-6.970544 3.641915,-1.788814 6.425485,-1.803045 9.079743,-0.04643 2.998504,1.984443 5.283142,5.122439 6.377127,8.759105 0.366258,1.217528 0.474147,2.450767 0.462931,5.291667 -0.01624,4.117068 -0.595474,6.949795 -2.184704,10.684434 -1.799831,4.229542 -5.408125,8.618765 -8.751853,10.645982 -0.70716,0.292351 -1.826121,1.1856 -2.317462,0.795707 z m 44.64016,-24.375081 c -1.09937,-1.099373 -0.64687,-1.89587 1.72524,-3.036811 2.21458,-1.06517 3.59156,-2.476394 4.23977,-4.345207 0.76162,-2.195778 1.00456,-2.534119 1.88141,-2.620291 1.87994,-0.184753 2.10318,1.466302 0.62708,4.637821 -0.98291,2.111872 -2.80365,3.879813 -5.15874,5.009123 -2.14262,1.027425 -2.59427,1.075846 -3.31476,0.355365 z"
           id="path863"
           sodipodi:nodetypes="sssssssssssssssssssssscsssscccssssssssssssssssssscccsssssss" />
      </g>
      <path
         style="fill:#1b1b1a;stroke-width:0.264583"
         d="M 72.59056,97.949506 C 60.174511,94.485819 52.61881,88.310941 49.754714,79.286961 c -0.947097,-2.98404 -1.205669,-4.790234 -1.221542,-8.532813 -0.01082,-2.552647 -0.106045,-3.638021 -0.319166,-3.638021 -1.48961,0 -10.862424,2.354702 -11.467423,2.880924 -0.269608,0.234503 -3.163424,3.641055 -6.430706,7.570118 -5.841531,7.024725 -7.327315,8.556538 -10.359993,10.680936 -1.625208,1.138462 -3.887507,2.032008 -4.525163,1.787316 -1.252879,-0.480774 0.162131,-2.931279 6.095235,-10.555682 2.687037,-3.453008 4.84672,-6.278195 4.799296,-6.278195 -0.04742,0 -0.789475,0.244057 -1.649,0.542351 -2.504654,0.869225 -5.003231,1.309732 -7.42886,1.309732 -2.205881,0 -5.17975,-0.567303 -5.841727,-1.114385 -1.6699335,-1.380088 2.68872,-3.804248 9.889837,-5.50045 2.427432,-0.571772 5.794052,-1.304308 7.481371,-1.627857 l 3.067854,-0.588266 4.762122,-5.969419 c 5.638784,-7.068328 18.081122,-22.011651 21.603104,-25.945458 3.630327,-4.054819 4.863013,-4.459951 5.771396,-1.896816 0.721085,2.03464 -0.117435,4.431162 -5.115478,14.620206 -1.528413,3.115834 -3.152399,6.677184 -3.608861,7.914111 -0.793102,2.149155 -2.377908,7.865076 -2.377908,8.576395 0,0.254667 1.122315,0.384109 4.529664,0.522428 9.550741,0.387702 17.511775,1.955115 22.325544,4.395573 1.718257,0.871112 1.712997,0.869924 -1.943256,-0.438777 -5.24074,-1.875843 -11.880564,-2.649937 -18.897783,-2.203167 -2.194046,0.139692 -4.578432,0.33215 -5.298633,0.427689 l -1.309454,0.173707 0.14243,4.525679 c 0.159205,5.05868 0.616919,7.299569 2.184006,10.692549 3.319407,7.187012 10.128985,12.870783 19.434148,16.221152 3.435019,1.236795 2.76389,1.287981 -1.455208,0.110985 z m -25.787323,-33.633988 2.258507,-0.173395 0.48029,-2.151018 c 0.673947,-3.018324 2.099659,-7.182067 3.628964,-10.598264 0.716698,-1.600975 1.199211,-2.796072 1.07225,-2.655768 -1.230458,1.359767 -13.005813,15.739203 -13.005813,15.882004 0,0.10388 0.744141,0.117091 1.653646,0.02935 0.909505,-0.08774 2.669974,-0.237546 3.912156,-0.332912 z m 15.228598,22.15501 c -0.0764,-0.123621 -0.727307,-1.879793 -1.446453,-3.902604 -0.719148,-2.022811 -1.463045,-4.06313 -1.653106,-4.534038 -0.28094,-0.696079 -0.282165,-0.918744 -0.0066,-1.190625 0.503322,-0.496517 0.799756,0.03376 2.160037,3.863973 0.65233,1.836801 1.245587,3.337914 1.318347,3.335806 0.07276,-0.0021 0.54901,-1.089621 1.058333,-2.416697 1.140754,-2.972308 2.264656,-4.985216 2.78348,-4.985216 0.627907,0 0.466135,0.655725 -0.768273,3.114141 -0.637886,1.2704 -1.40835,3.114884 -1.71214,4.098854 -0.803801,2.6035 -1.289044,3.335816 -1.733664,2.616406 z m 12.860018,-0.0075 c -0.247664,-0.153064 -0.311309,-1.4112 -0.256921,-5.078844 0.06117,-4.125159 0.133365,-4.875387 0.469169,-4.875387 0.304388,0 0.427705,0.4495 0.529167,1.928847 0.130358,1.900642 0.137599,1.916753 0.495274,1.101714 0.199641,-0.454922 0.806283,-1.293138 1.348097,-1.862701 0.831773,-0.874374 1.153236,-1.035569 2.065207,-1.035569 0.838298,0 1.197118,0.148768 1.602814,0.664528 0.785112,0.998104 1.187884,3.105655 1.212964,6.346931 0.01873,2.420657 -0.04427,2.910417 -0.374356,2.910417 -0.318791,0 -0.430551,-0.580028 -0.568037,-2.948091 -0.195852,-3.373356 -0.387014,-4.479713 -0.919242,-5.320139 -1.299098,-2.051365 -4.052096,1.483363 -4.702915,6.038332 -0.318905,2.23197 -0.405398,2.436387 -0.901221,2.129951 z m 10.453224,0.04845 c -0.06991,-0.117198 -0.213463,-1.909729 -0.319,-3.983401 l -0.191889,-3.770312 h -0.915694 c -0.729115,0 -0.897821,-0.09434 -0.827979,-0.463021 0.05685,-0.300106 0.37787,-0.491326 0.91237,-0.543465 l 0.824659,-0.08044 0.187637,-2.646648 c 0.160867,-2.269009 0.250526,-2.634616 0.628383,-2.562326 0.368684,0.07053 0.453099,0.503192 0.516295,2.64619 l 0.07555,2.561871 1.115076,0.0809 c 1.57158,0.11402 1.55136,0.843238 -0.02653,0.956845 l -1.141611,0.0822 0.05726,3.886555 c 0.04918,3.338324 -7.94e-4,3.89795 -0.355076,3.96735 -0.226782,0.04444 -0.469532,-0.01511 -0.539443,-0.132291 z m 4.717724,-0.443876 c -0.90973,-0.90973 -1.197226,-2.285691 -1.19889,-5.737913 -0.0011,-2.224419 0.100838,-3.198207 0.373766,-3.57146 0.206383,-0.282244 0.457846,-0.43057 0.558805,-0.32961 0.10096,0.10096 0.199991,1.892006 0.22007,3.980106 0.03057,3.17958 0.11447,3.915506 0.51625,4.528585 0.678011,1.034584 1.499386,0.849167 2.150705,-0.485495 0.39047,-0.800137 0.549225,-1.847937 0.661458,-4.365625 0.120481,-2.7027 0.220769,-3.312811 0.544553,-3.312811 0.619122,0 0.538093,6.218942 -0.102894,7.897347 -0.77732,2.035382 -2.455714,2.664974 -3.723823,1.396865 z m 21.156929,0.320556 c -0.91648,-0.504 -1.44324,-1.378064 -1.44933,-2.404883 -0.005,-0.817761 0.0871,-0.992187 0.52328,-0.992187 0.41158,0 0.52917,0.176389 0.52917,0.79375 0,2.049063 3.06149,2.600809 3.55351,0.640421 0.23027,-0.917461 -0.28976,-1.679424 -2.0566,-3.013401 -2.07875,-1.569476 -2.59252,-3.08805 -1.41805,-4.191412 0.84489,-0.793729 2.05183,-0.987103 3.02382,-0.484466 0.8516,0.440381 1.79598,2.079062 1.55704,2.701751 -0.25289,0.658995 -0.90666,0.40953 -1.08777,-0.415065 -0.17005,-0.774235 -0.99866,-1.587829 -1.61713,-1.587829 -0.16978,0 -0.57514,0.21575 -0.90079,0.479444 -0.86073,0.696981 -0.52174,1.383445 1.44734,2.930885 1.9732,1.550675 2.49261,2.627212 1.99503,4.134898 -0.48548,1.471012 -2.63966,2.210922 -4.09952,1.408094 z M 68.625429,85.857121 c -1.453631,-1.143426 -1.773121,-2.901773 -1.016934,-5.596798 0.614074,-2.188548 1.975816,-3.619196 3.444883,-3.619196 1.687497,0 2.364939,1.213493 1.681282,3.011652 -0.392941,1.033513 -1.990521,2.657745 -3.170092,3.222982 -1.228469,0.588667 -1.34157,1.095659 -0.43452,1.947789 0.83825,0.787495 2.227085,0.79193 3.284048,0.01048 0.810511,-0.599239 1.732518,-0.558845 1.490776,0.06531 -0.07259,0.18741 -0.52443,0.608634 -1.004099,0.936056 -1.190313,0.812507 -3.256677,0.823005 -4.275344,0.02172 z m 0.604833,-4.032996 c 1.35473,-0.707745 2.698839,-2.489756 2.698839,-3.578104 0,-0.423407 -0.168457,-0.54656 -0.74763,-0.54656 -1.146858,0 -2.400033,1.640046 -2.779842,3.638021 -0.185859,0.977693 -0.150765,0.998302 0.828633,0.486643 z m 26.694055,4.024511 c -0.08023,-0.334703 -0.159017,-2.49345 -0.17508,-4.797214 -0.02713,-3.89124 0.0044,-4.182279 0.4446,-4.098745 0.356899,0.06773 0.506823,0.415769 0.607621,1.410539 l 0.133816,1.32062 0.48709,-0.89625 c 0.778139,-1.431779 1.709428,-2.146996 2.789646,-2.142408 1.16068,0.0049 1.74424,0.335868 1.53836,0.872403 -0.11474,0.298984 -0.41604,0.365514 -1.18702,0.262104 -0.892303,-0.119682 -1.109735,-0.04137 -1.593795,0.574011 -0.902933,1.147892 -1.671093,3.552444 -1.860847,5.824964 -0.137953,1.652148 -0.270581,2.131581 -0.607499,2.196049 -0.26901,0.05148 -0.485844,-0.146256 -0.576892,-0.526073 z m 7.956543,0.167899 c -1.36202,-0.739026 -1.95795,-2.653951 -1.5066,-4.841259 0.60661,-2.939775 1.89596,-4.537551 3.65563,-4.530098 1.09898,0.0047 1.42296,0.172725 1.83204,0.950376 0.69149,1.314548 -0.93056,3.91401 -3.31388,5.310732 -1.30272,0.763437 -1.36577,1.212075 -0.28377,2.019128 0.93172,0.694955 2.14447,0.680125 3.11593,-0.03811 0.42646,-0.315296 0.9588,-0.573265 1.18297,-0.573265 0.7333,0 0.42819,0.760678 -0.57987,1.445671 -1.14387,0.777277 -2.93643,0.889494 -4.10245,0.25682 z m 1.25149,-4.931037 c 1.9714,-1.735299 2.4325,-3.386037 0.94582,-3.386037 -1.12964,0 -2.16215,1.33868 -2.62649,3.405309 -0.32197,1.432952 0.0355,1.428851 1.68067,-0.01926 z"
         id="path861" />
    </g>
  </g>
</svg>
