<?xml version="1.0" standalone="no"?>
<!DOCTYPE svg PUBLIC "-//W3C//DTD SVG 20010904//EN"
 "http://www.w3.org/TR/2001/REC-SVG-20010904/DTD/svg10.dtd">
<svg version="1.0" xmlns="http://www.w3.org/2000/svg"
 width="936.000000pt" height="936.000000pt" viewBox="0 0 936.000000 936.000000"
 preserveAspectRatio="xMidYMid meet">
<metadata>
Created by potrace 1.11, written by Peter Selinger 2001-2013
</metadata>
<g transform="translate(0.000000,936.000000) scale(0.100000,-0.100000)"
fill="#000000" stroke="none">
<path d="M3837 7236 c-8 -6 -26 -18 -39 -26 -24 -15 -220 -210 -273 -270 -66
-77 -102 -118 -142 -166 -23 -27 -53 -62 -68 -79 -14 -16 -43 -50 -63 -75 -20
-25 -39 -47 -42 -50 -7 -7 -116 -135 -165 -195 -22 -27 -45 -53 -50 -59 -6 -6
-53 -63 -105 -126 -52 -63 -97 -117 -100 -120 -3 -3 -35 -41 -70 -85 -36 -44
-70 -84 -76 -90 -6 -5 -38 -44 -70 -85 -32 -41 -64 -79 -70 -85 -9 -8 -59 -69
-204 -249 -8 -10 -19 -23 -25 -30 -5 -6 -39 -47 -75 -91 -35 -44 -67 -82 -70
-85 -3 -3 -21 -25 -40 -50 -19 -25 -42 -54 -52 -65 -14 -17 -107 -132 -141
-175 -7 -8 -46 -58 -87 -110 -41 -52 -77 -97 -80 -100 -3 -3 -32 -39 -65 -80
-90 -113 -96 -119 -124 -124 -14 -3 -89 -17 -166 -32 -182 -34 -174 -32 -193
-38 -18 -6 -59 -14 -107 -22 -16 -3 -48 -10 -70 -16 -22 -5 -49 -12 -60 -14
-11 -2 -32 -6 -47 -10 -15 -3 -30 -5 -33 -5 -2 0 -19 -5 -37 -10 -18 -6 -46
-13 -61 -15 -15 -3 -97 -25 -181 -49 -266 -76 -470 -168 -547 -247 -98 -101
-15 -157 291 -195 129 -16 354 -2 495 32 43 10 72 18 85 22 8 3 20 7 26 8 6 2
55 17 109 34 54 17 99 30 101 28 1 -1 -39 -57 -89 -123 -94 -123 -102 -133
-204 -264 -106 -136 -258 -334 -273 -356 -8 -13 -43 -61 -78 -109 -34 -47 -62
-89 -62 -94 0 -5 -4 -11 -9 -13 -11 -4 -95 -144 -114 -191 -8 -18 -14 -48 -13
-67 2 -65 73 -65 216 1 197 91 445 305 671 579 11 14 33 39 47 55 15 17 49 57
77 90 27 33 52 62 55 65 3 3 84 100 180 215 96 116 186 223 200 239 14 16 34
40 45 52 11 13 38 44 60 71 86 101 97 109 190 139 50 15 95 29 100 30 6 2 82
21 170 44 164 43 179 46 230 55 17 3 44 10 60 15 33 10 66 17 135 26 25 3 47
8 50 9 12 8 34 -15 36 -37 1 -13 5 -122 8 -243 4 -121 8 -236 11 -255 12 -110
19 -152 37 -220 10 -41 21 -85 23 -97 8 -33 64 -192 87 -243 41 -91 82 -167
137 -250 31 -47 58 -89 60 -95 2 -5 7 -12 10 -15 3 -3 31 -34 61 -70 101 -121
218 -230 355 -331 33 -24 62 -46 65 -49 3 -3 17 -12 32 -20 14 -8 77 -44 140
-80 177 -102 376 -189 605 -265 106 -36 264 -81 313 -91 14 -3 33 -7 42 -10
45 -13 118 -26 118 -21 0 5 -90 43 -172 73 -102 38 -131 50 -238 97 -169 76
-437 226 -505 284 -5 5 -46 35 -90 68 -112 84 -330 303 -409 410 -36 50 -70
95 -76 102 -5 7 -10 14 -10 17 0 3 -11 21 -24 41 -37 54 -133 246 -163 323
-83 218 -107 391 -118 835 -2 97 -7 182 -10 187 -3 6 2 10 12 11 10 0 27 2 38
5 11 2 45 6 75 8 30 3 80 7 110 10 30 3 91 8 135 11 44 3 114 8 155 11 78 6
451 6 530 0 25 -2 62 -4 82 -5 20 0 43 -7 50 -14 182 -172 363 -269 568 -302
112 -19 321 9 409 55 20 10 70 35 111 55 280 139 575 493 742 890 21 50 75
211 82 245 3 14 10 44 16 68 5 23 12 57 15 75 2 17 6 48 9 67 17 116 24 440
11 540 -11 89 -16 117 -24 146 -16 56 -85 219 -108 256 -13 21 -23 42 -23 47
0 5 -3 11 -7 13 -5 2 -26 30 -48 63 -37 55 -167 193 -225 240 -57 45 -171 111
-209 121 -103 25 -136 30 -196 28 -38 0 -99 -9 -135 -18 -36 -10 -69 -19 -75
-20 -78 -21 -305 -146 -305 -168 0 -4 -4 -8 -10 -8 -27 0 -271 -245 -349 -350
-155 -209 -289 -482 -371 -758 -16 -53 -31 -108 -34 -122 -3 -14 -12 -59 -21
-100 -25 -123 -30 -177 -29 -350 0 -189 7 -244 44 -390 35 -138 31 -127 62
-187 26 -50 26 -52 6 -48 -11 3 -46 7 -77 11 -31 3 -65 8 -76 10 -11 2 -53 6
-95 10 -41 3 -91 7 -110 9 -19 3 -71 7 -115 10 -76 5 -126 7 -380 20 -193 9
-198 12 -179 94 7 32 15 69 17 82 3 14 15 58 27 98 12 41 24 82 26 92 2 11 6
28 8 38 3 11 10 29 16 40 6 12 8 21 6 21 -8 0 80 250 113 324 17 36 31 68 31
70 0 4 17 41 130 281 21 44 78 163 128 265 254 524 331 718 337 856 7 134 -53
247 -128 242 -19 -1 -42 -7 -50 -12z m1728 -318 c36 -14 144 -99 205 -160 138
-140 218 -312 249 -538 21 -149 5 -428 -31 -555 -6 -22 -12 -44 -13 -50 -17
-79 -74 -224 -146 -370 -52 -104 -57 -113 -101 -182 -16 -23 -28 -44 -28 -48
0 -4 -6 -12 -12 -19 -7 -8 -20 -23 -28 -36 -46 -67 -145 -171 -220 -230 -65
-52 -124 -90 -138 -90 -7 0 -12 -4 -12 -9 0 -13 -137 -68 -212 -85 -123 -29
-143 -29 -246 0 -53 14 -103 27 -110 28 -7 1 -21 9 -30 17 -9 8 -39 30 -67 51
-141 102 -224 244 -271 460 -7 31 -7 302 0 358 14 116 17 139 26 190 16 94 19
107 51 197 39 109 53 142 140 318 66 134 108 214 119 225 3 3 17 23 31 45 60
92 224 266 319 338 30 23 57 44 60 47 25 27 125 78 187 96 112 33 195 33 278
2z m-2316 -1074 c-7 -16 -13 -31 -13 -34 -1 -3 -9 -21 -17 -40 -9 -19 -31 -69
-49 -110 -17 -41 -38 -89 -46 -107 -8 -17 -14 -38 -14 -47 0 -9 -4 -16 -8 -16
-4 0 -13 -17 -19 -37 -6 -21 -34 -103 -61 -183 -62 -178 -113 -364 -138 -505
-3 -16 -6 -31 -8 -32 -1 -2 -31 -5 -67 -7 -124 -10 -214 -17 -249 -21 -19 -3
-91 -8 -160 -11 l-124 -7 34 44 c30 37 134 165 263 323 39 47 78 96 92 114 5
7 15 18 20 25 6 7 40 48 75 92 36 43 72 86 80 95 8 9 58 70 112 136 53 65 108
133 122 149 15 17 61 73 104 126 77 96 93 108 71 53z"/>
<path d="M7545 7048 c-102 -19 -140 -31 -215 -65 -80 -37 -155 -88 -245 -167
-267 -237 -441 -479 -597 -831 -81 -181 -164 -440 -183 -570 -3 -16 -7 -41
-10 -55 -19 -89 -25 -298 -11 -400 15 -114 65 -251 133 -365 31 -52 136 -155
204 -201 104 -69 236 -118 405 -151 51 -10 265 -10 329 0 214 33 474 153 685
316 165 127 211 188 195 260 -9 43 -58 85 -99 84 -46 -1 -82 -22 -227 -128
-337 -250 -513 -310 -814 -281 -166 17 -315 78 -407 167 -70 68 -134 194 -144
279 -11 103 -7 314 11 465 12 104 164 510 235 625 5 8 39 65 75 127 36 61 72
117 80 123 8 7 15 16 15 21 0 18 164 210 239 281 257 242 462 285 610 128 27
-29 85 -119 87 -137 4 -27 68 -125 91 -140 28 -19 91 -20 122 -4 68 37 57 209
-21 323 -10 14 -18 29 -18 33 0 15 -105 131 -147 162 -46 35 -156 91 -194 99
-43 9 -143 10 -184 2z"/>
<path d="M9202 6948 c-37 -18 -43 -27 -86 -137 -80 -203 -156 -284 -366 -391
-143 -72 -175 -128 -117 -201 49 -61 101 -62 231 -2 145 67 273 166 352 274
34 47 103 178 109 208 2 9 8 29 15 46 21 54 24 139 6 173 -9 18 -20 32 -24 32
-4 0 -24 4 -44 9 -29 7 -46 5 -76 -11z"/>
<path d="M5615 4081 c-10 -31 -20 -134 -30 -303 -4 -64 -11 -82 -30 -74 -27
10 -92 -15 -104 -40 -14 -31 0 -38 76 -38 52 -1 53 -2 54 -31 1 -16 2 -55 4
-85 11 -210 15 -262 20 -270 3 -5 1 -11 -5 -15 -6 -4 -7 -11 -3 -17 3 -7 8
-32 10 -57 8 -112 9 -116 33 -119 12 -2 27 1 34 8 8 8 11 97 11 297 l0 286 65
4 c62 4 110 23 110 42 0 14 -59 30 -117 33 -29 2 -53 5 -54 8 0 3 -2 50 -4
105 -7 182 -12 242 -24 263 -14 27 -38 28 -46 3z"/>
<path d="M5915 3776 c-39 -59 -41 -440 -3 -581 57 -218 271 -228 344 -16 28
81 39 192 38 381 0 152 -8 210 -29 210 -24 0 -30 -36 -40 -215 -7 -140 -16
-248 -20 -256 -2 -3 -7 -20 -10 -38 -3 -18 -15 -50 -25 -72 -43 -84 -98 -103
-144 -49 -39 47 -46 89 -52 315 -3 116 -7 230 -9 255 -1 25 -3 55 -4 68 -1 29
-26 28 -46 -2z"/>
<path d="M7614 3781 c-104 -47 -132 -128 -81 -228 17 -32 132 -143 177 -170
34 -21 98 -101 105 -133 3 -14 0 -44 -7 -65 -23 -71 -111 -100 -185 -62 -53
28 -75 71 -82 168 -2 13 -40 17 -54 5 -51 -41 -3 -194 76 -241 77 -46 187 -37
265 22 40 30 62 72 69 132 9 85 -34 153 -164 260 -147 122 -167 163 -105 219
70 61 133 36 183 -73 31 -68 45 -80 73 -59 41 29 -15 157 -95 216 -36 27 -124
31 -175 9z"/>
<path d="M4145 3767 c-35 -41 -74 -110 -119 -214 -26 -60 -51 -117 -56 -128
-5 -11 -23 -56 -41 -100 -17 -44 -35 -84 -39 -89 -5 -4 -15 7 -23 25 -20 44
-97 249 -102 270 -2 9 -13 41 -25 70 -12 30 -29 72 -38 94 -35 86 -58 104 -85
64 -11 -14 -13 -29 -7 -47 7 -24 112 -314 127 -352 4 -8 7 -17 7 -20 1 -3 14
-38 29 -77 15 -40 39 -106 53 -145 33 -91 46 -107 70 -87 21 17 55 92 82 181
24 78 77 206 134 327 74 157 88 191 88 215 0 32 -32 40 -55 13z"/>
<path d="M4500 3780 c-74 -20 -137 -76 -178 -156 -59 -116 -86 -272 -66 -373
28 -137 127 -212 269 -205 81 4 155 35 201 86 29 32 33 42 23 54 -15 19 -59
12 -96 -13 -81 -56 -177 -63 -243 -18 -83 57 -79 104 13 157 118 68 227 188
253 278 22 75 -2 150 -57 177 -32 15 -88 21 -119 13z m97 -96 c24 -32 -26
-139 -100 -214 -49 -49 -151 -109 -164 -96 -9 9 17 114 42 172 53 120 178 198
222 138z"/>
<path d="M4825 3770 c-10 -31 -14 -150 -15 -415 0 -265 1 -287 20 -310 24 -29
40 6 65 146 37 207 93 349 177 444 134 152 224 50 242 -276 16 -284 34 -369
66 -308 11 20 16 326 6 389 -2 14 -7 49 -11 79 -4 30 -11 65 -16 78 -5 13 -5
23 -2 23 4 0 2 5 -5 12 -7 7 -12 19 -12 28 0 22 -54 96 -80 110 -35 19 -116
19 -157 0 -37 -17 -123 -101 -123 -121 0 -5 -4 -9 -9 -9 -5 0 -21 -25 -37 -55
-16 -30 -31 -55 -35 -55 -3 0 -6 19 -8 43 -8 111 -10 134 -16 162 -3 17 -8 36
-10 43 -7 19 -33 14 -40 -8z"/>
<path d="M6684 3773 c-52 -17 -117 -82 -152 -150 -27 -54 -41 -67 -40 -35 0 9
-3 40 -7 67 -4 28 -7 56 -8 62 -1 20 -35 46 -51 40 -19 -8 -22 -54 -20 -311 4
-356 9 -396 55 -396 25 0 30 20 49 175 22 189 90 384 156 449 27 26 33 28 95
24 74 -5 99 3 99 32 0 45 -99 69 -176 43z"/>
<path d="M7123 3775 c-155 -46 -271 -357 -208 -559 41 -131 154 -190 310 -162
87 15 202 108 175 142 -9 10 -37 12 -47 4 -2 -2 -6 -3 -10 -4 -5 -1 -27 -14
-51 -29 -60 -39 -81 -45 -140 -43 -57 3 -119 37 -148 82 -16 24 -16 27 3 52
11 15 29 31 41 37 12 5 22 13 22 17 0 5 5 8 11 8 6 0 32 17 57 38 188 150 250
334 139 407 -31 20 -103 25 -154 10z m115 -88 c51 -40 -48 -191 -195 -295 -62
-44 -77 -22 -49 71 8 26 12 47 9 47 -10 0 61 122 86 146 48 49 110 62 149 31z"/>
</g>
</svg>
